<svg width="152" height="30" viewBox="0 0 152 30" fill="none" xmlns="http://www.w3.org/2000/svg">
<path d="M4.70103 4.01332V6.81501H10.5426V10.5553H4.70103V16.4668H0.946777V0.273071H13.2182V4.01332H4.70103Z" fill="#281339"/>
<path d="M96.5824 4.01332H91.3992V0.273071H105.534V4.01332H100.351V16.4948H96.5824V4.01332Z" fill="#281339"/>
<path d="M139.238 0.273071H143.006V12.7546H151.131V16.4948H139.238V0.273071Z" fill="#281339"/>
<path d="M54.0387 0.273071H49.8362L42.6078 16.4948H46.7403L48.1692 13.0208H48.1832L50.2004 8.20185L51.9515 4.01333L53.7025 8.20185L55.7057 13.0208L57.1486 16.4948H61.2951L54.0387 0.273071Z" fill="#281339"/>
<path d="M31.4573 11.2838C32.4762 10.8806 33.3446 10.1706 33.9419 9.25191C34.5393 8.33326 34.8362 7.25153 34.7913 6.15665C34.834 5.06238 34.5416 3.98116 33.9534 3.05747C33.3651 2.13378 32.5089 1.41163 31.4993 0.987536C30.3123 0.48691 29.0328 0.243429 27.745 0.273113H20.7408V16.4949H24.495V3.35497H27.5489C28.4662 3.29488 29.3763 3.55207 30.1265 4.0834C30.4077 4.35631 30.6313 4.68293 30.784 5.04387C30.9368 5.40482 31.0155 5.79275 31.0155 6.18467C31.0155 6.57659 30.9368 6.96453 30.784 7.32547C30.6313 7.68642 30.4077 8.01302 30.1265 8.28593C29.3812 8.82864 28.4686 9.09151 27.5489 9.02839H25.3216L27.3948 12.0122L30.5187 16.5369H35.0994L31.4573 11.2838Z" fill="#281339"/>
<path d="M80.2626 12.0683C79.5772 12.6348 78.7455 12.9956 77.8635 13.1089C76.9816 13.2222 76.0856 13.0834 75.2793 12.7085C74.473 12.3336 73.7894 11.738 73.3076 10.9906C72.8259 10.2432 72.5656 9.37469 72.5571 8.48554C72.5486 7.59639 72.7921 6.72301 73.2595 5.96655C73.7268 5.21008 74.3989 4.60148 75.1979 4.21121C75.9968 3.82094 76.8901 3.66497 77.774 3.76137C78.658 3.85776 79.4965 4.20257 80.1926 4.75587L83.8347 3.13088C82.7435 1.77681 81.2591 0.79458 79.5861 0.319587C77.9132 -0.155407 76.134 -0.099777 74.494 0.478821C72.854 1.05742 71.4339 2.13049 70.4293 3.5501C69.4248 4.96972 68.8853 6.66599 68.8853 8.40507C68.8853 10.1442 69.4248 11.8404 70.4293 13.26C71.4339 14.6796 72.854 15.7527 74.494 16.3313C76.134 16.9099 77.9132 16.9655 79.5861 16.4905C81.2591 16.0156 82.7435 15.0333 83.8347 13.6793L80.2626 12.0683Z" fill="#281339"/>
<path d="M124.473 0.273071H120.271L113.042 16.4948H117.175L118.618 13.0208L120.635 8.20185L122.386 4.01333L124.151 8.20185L126.14 13.0208H126.154L127.583 16.4948H131.73L124.473 0.273071Z" fill="#281339"/>
<path d="M3.60838 29.5649L2.92198 28.5843H2.17949V29.5649H1.36697V26.0628H2.87991C3.15851 26.0571 3.43526 26.1096 3.69242 26.2169C3.90664 26.3096 4.09093 26.4599 4.22475 26.6511C4.35147 26.8571 4.41481 27.0959 4.40687 27.3376C4.41371 27.5747 4.35035 27.8087 4.22475 28.01C4.09093 28.2012 3.90664 28.3516 3.69242 28.4442L4.47689 29.5649H3.60838ZM3.39822 26.8753C3.23373 26.7631 3.03664 26.7089 2.83793 26.7212H2.17949V27.9399H2.83793C3.03732 27.9594 3.23682 27.9045 3.39822 27.7858C3.46096 27.7301 3.51002 27.6607 3.5416 27.583C3.57318 27.5052 3.58644 27.4213 3.58033 27.3376C3.58553 27.2519 3.57195 27.1661 3.54049 27.0863C3.50903 27.0064 3.46045 26.9344 3.39822 26.8753Z" fill="#281339"/>
<path d="M11.5512 28.9204V29.5648H8.84759V26.0627H11.5512V26.7071H9.70208V27.4775H11.3271V28.1079H9.70208V28.9204H11.5512Z" fill="#281339"/>
<path d="M16.0199 26.0627H16.8324V29.5648H16.0199V26.0627Z" fill="#281339"/>
<path d="M24.6911 26.0627V29.5648H24.0187L22.2816 27.4355V29.5648H21.4692V26.0627H22.1415L23.8926 28.192V26.0627H24.6911Z" fill="#281339"/>
<path d="M32.6758 26.0627L31.1629 29.5648H30.3644L28.8515 26.0627H29.762L30.8407 28.5702L31.9193 26.0627H32.6758Z" fill="#281339"/>
<path d="M39.5679 28.9204V29.5648H36.7662V26.0627H39.4138V26.7071H37.5787V27.4775H39.2037V28.1079H37.5787V28.9204H39.5679Z" fill="#281339"/>
<path d="M47.1606 26.0627V29.5648H46.5723L44.8212 27.4355V29.5648H44.0227V26.0627H44.6951L46.4322 28.192V26.0627H47.1606Z" fill="#281339"/>
<path d="M52.5259 26.7211H51.4052V26.0627H54.459V26.7211H53.3384V29.5228H52.5259V26.7211Z" fill="#281339"/>
<path d="M58.7036 26.0627H59.5161V29.5648H58.7036V26.0627Z" fill="#281339"/>
<path d="M67.3749 26.0627V29.5648H66.7025L64.9514 27.4355V29.5648H64.153V26.0627H64.7834L66.5344 28.192V26.0627H67.3749Z" fill="#281339"/>
<path d="M74.379 27.7578H75.1215V29.1586C74.9231 29.3045 74.7 29.4137 74.4631 29.4808C74.2194 29.5634 73.964 29.606 73.7066 29.6069C73.3652 29.6095 73.0283 29.5277 72.726 29.3688C72.4389 29.216 72.1987 28.9879 72.0312 28.7091C71.8637 28.4302 71.7753 28.1111 71.7753 27.7858C71.7753 27.4605 71.8637 27.1414 72.0312 26.8625C72.1987 26.5837 72.4389 26.3556 72.726 26.2028C73.0343 26.0482 73.3758 25.9712 73.7207 25.9787C74.0086 25.9703 74.2949 26.0228 74.5611 26.1328C74.8054 26.2273 75.0221 26.3814 75.1915 26.5811L74.6732 27.0574C74.558 26.9311 74.4172 26.8309 74.2602 26.7632C74.1032 26.6956 73.9336 26.6622 73.7626 26.6651C73.5532 26.6599 73.3459 26.7081 73.1603 26.8052C72.9929 26.8981 72.8528 27.0334 72.7541 27.1974C72.6557 27.3775 72.6073 27.5807 72.614 27.7858C72.6087 27.9908 72.6569 28.1936 72.7541 28.3742C72.8528 28.5382 72.9929 28.6735 73.1603 28.7664C73.3404 28.8648 73.5436 28.9132 73.7487 28.9065C73.9691 28.9152 74.1875 28.8618 74.379 28.7524V27.7578Z" fill="#281339"/>
<path d="M87.9531 28.0659C88.0702 28.2233 88.1296 28.4162 88.1212 28.6122C88.129 28.7513 88.1009 28.8901 88.0396 29.0152C87.9782 29.1403 87.8857 29.2476 87.771 29.3266C87.4496 29.5018 87.0859 29.5843 86.7204 29.5648H84.9133V26.0627H86.6224C86.9655 26.0441 87.3065 26.1269 87.6029 26.3008C87.7116 26.376 87.8003 26.4765 87.8613 26.5937C87.9223 26.7108 87.9538 26.8411 87.9531 26.9732C87.9545 27.136 87.9109 27.296 87.8271 27.4355C87.7418 27.5692 87.6204 27.6761 87.4769 27.7437C87.6663 27.7968 87.8333 27.9099 87.9531 28.0659ZM85.7118 26.665V27.4915H86.5243C86.6816 27.5 86.8378 27.461 86.9726 27.3795C87.0218 27.3445 87.0618 27.2983 87.0895 27.2447C87.1171 27.1911 87.1315 27.1316 87.1315 27.0713C87.1315 27.011 87.1171 26.9515 87.0895 26.8979C87.0618 26.8443 87.0218 26.7981 86.9726 26.7631C86.8363 26.6865 86.6802 26.6523 86.5243 26.665H85.7118ZM87.1127 28.8364C87.1664 28.8021 87.2103 28.7543 87.2398 28.6977C87.2693 28.6412 87.2834 28.5779 87.2807 28.5142C87.2807 28.22 87.0566 28.0799 86.6363 28.0799H85.6838V28.9484H86.6363C86.8288 28.9785 87.0259 28.944 87.1967 28.8504L87.1127 28.8364Z" fill="#281339"/>
<path d="M92.9403 29.2146C92.793 29.0551 92.6798 28.8673 92.6075 28.6625C92.5353 28.4578 92.5055 28.2405 92.52 28.0239V26.0627H93.3326V27.9958C93.3326 28.6262 93.5847 28.9344 94.103 28.9344C94.2116 28.9434 94.3209 28.928 94.4227 28.8892C94.5245 28.8504 94.6163 28.7893 94.6913 28.7103C94.8358 28.5013 94.905 28.2493 94.8875 27.9958V26.0627H95.686V28.0239C95.7128 28.4588 95.5668 28.8867 95.2798 29.2146C95.1219 29.3601 94.9364 29.4724 94.7342 29.5446C94.532 29.6168 94.3173 29.6475 94.103 29.6348C93.8907 29.6489 93.6778 29.6188 93.4777 29.5464C93.2775 29.4741 93.0946 29.3611 92.9403 29.2146Z" fill="#281339"/>
<path d="M100.645 29.5088C100.425 29.4521 100.216 29.3573 100.029 29.2286L100.295 28.6123C100.462 28.7284 100.646 28.8182 100.841 28.8784C101.039 28.9461 101.248 28.9792 101.457 28.9765C101.631 28.9913 101.806 28.9574 101.962 28.8784C102.012 28.8509 102.054 28.8105 102.084 28.7612C102.114 28.712 102.129 28.6557 102.13 28.5982C102.131 28.5579 102.123 28.5178 102.106 28.4812C102.089 28.4447 102.064 28.4127 102.032 28.3881C101.961 28.3242 101.873 28.2806 101.78 28.262C101.647 28.2156 101.511 28.1782 101.373 28.15C101.15 28.0981 100.93 28.0326 100.715 27.9539C100.545 27.8998 100.394 27.7976 100.281 27.6597C100.152 27.5023 100.087 27.3023 100.099 27.0993C100.096 26.8998 100.155 26.7043 100.267 26.539C100.384 26.3594 100.556 26.222 100.757 26.1468C101.015 26.0446 101.292 25.9969 101.57 26.0067C101.788 25.9853 102.009 25.9853 102.228 26.0067C102.426 26.0577 102.614 26.1379 102.788 26.2448L102.536 26.8612C102.244 26.6853 101.911 26.5888 101.57 26.581C101.394 26.5719 101.22 26.6107 101.065 26.6931C101.014 26.7229 100.971 26.7658 100.941 26.8175C100.912 26.8692 100.897 26.9278 100.897 26.9873C100.899 27.0462 100.919 27.1031 100.954 27.1505C100.989 27.198 101.038 27.2338 101.093 27.2534C101.278 27.3288 101.471 27.3851 101.668 27.4215C101.89 27.4753 102.11 27.5407 102.326 27.6177C102.494 27.6757 102.644 27.7772 102.76 27.9118C102.89 28.0686 102.955 28.269 102.942 28.4722C102.943 28.6671 102.884 28.8575 102.774 29.0185C102.648 29.1954 102.473 29.3317 102.27 29.4107C102.013 29.5181 101.736 29.5705 101.457 29.5648C101.185 29.5879 100.911 29.569 100.645 29.5088Z" fill="#281339"/>
<path d="M107.299 26.0627H108.111V29.5648H107.299V26.0627Z" fill="#281339"/>
<path d="M115.97 26.0627V29.5648H115.298L113.561 27.4355V29.5648H112.748V26.0627H113.42L115.214 28.192V26.0627H115.97Z" fill="#281339"/>
<path d="M123.324 28.9204V29.5648H120.607V26.0627H123.254V26.7071H121.419V27.4775H123.044V28.1079H121.419V28.9204H123.324Z" fill="#281339"/>
<path d="M128.129 29.5088C127.904 29.4548 127.69 29.3599 127.499 29.2286L127.821 28.5702C127.983 28.6865 128.163 28.7763 128.353 28.8364C128.552 28.902 128.76 28.9351 128.97 28.9345C129.148 28.949 129.327 28.9151 129.488 28.8364C129.539 28.8089 129.581 28.7685 129.61 28.7192C129.64 28.6699 129.656 28.6137 129.656 28.5562C129.655 28.5164 129.646 28.4772 129.629 28.4411C129.612 28.405 129.588 28.3726 129.558 28.3461C129.483 28.2877 129.398 28.2449 129.306 28.22C129.169 28.1718 129.029 28.1344 128.886 28.108C128.667 28.0565 128.452 27.991 128.241 27.9118C128.067 27.858 127.912 27.756 127.793 27.6177C127.671 27.4567 127.607 27.2593 127.611 27.0573C127.609 26.8578 127.667 26.6623 127.779 26.497C127.906 26.3201 128.081 26.1838 128.283 26.1047C128.541 26.001 128.818 25.9533 129.096 25.9647C129.315 25.944 129.535 25.944 129.754 25.9647C129.951 26.0184 130.14 26.0985 130.315 26.2028L130.062 26.8192C129.765 26.6428 129.427 26.5462 129.082 26.539C128.907 26.5299 128.732 26.5687 128.578 26.6511C128.53 26.6835 128.49 26.7274 128.463 26.7787C128.437 26.8301 128.423 26.8873 128.423 26.9453C128.423 27.003 128.44 27.0595 128.472 27.1072C128.505 27.1548 128.552 27.1912 128.606 27.2114C128.792 27.2847 128.984 27.341 129.18 27.3795C129.403 27.4314 129.623 27.4969 129.838 27.5756C130.008 27.6297 130.159 27.7319 130.273 27.8698C130.403 28.0265 130.468 28.227 130.455 28.4302C130.455 28.625 130.396 28.8155 130.287 28.9765C130.16 29.1534 129.985 29.2897 129.782 29.3687C129.525 29.476 129.248 29.5285 128.97 29.5228C128.691 29.5655 128.407 29.5607 128.129 29.5088Z" fill="#281339"/>
<path d="M135.134 29.5088C134.908 29.4548 134.694 29.3599 134.503 29.2286L134.825 28.5702C134.988 28.6865 135.167 28.7763 135.358 28.8364C135.557 28.902 135.765 28.9351 135.974 28.9345C136.153 28.949 136.332 28.9151 136.492 28.8364C136.543 28.8089 136.585 28.7685 136.615 28.7192C136.644 28.6699 136.66 28.6137 136.66 28.5562C136.659 28.5164 136.65 28.4772 136.633 28.4411C136.616 28.405 136.592 28.3726 136.562 28.3461C136.488 28.2877 136.402 28.2449 136.31 28.22C136.173 28.1718 136.033 28.1344 135.89 28.108C135.671 28.0565 135.456 27.991 135.246 27.9118C135.071 27.858 134.916 27.756 134.797 27.6177C134.675 27.4567 134.611 27.2593 134.615 27.0573C134.613 26.8578 134.672 26.6623 134.783 26.497C134.91 26.3201 135.085 26.1838 135.288 26.1047C135.546 26.001 135.822 25.9533 136.1 25.9647C136.319 25.944 136.54 25.944 136.759 25.9647C136.955 26.0184 137.144 26.0985 137.319 26.2028L137.067 26.8192C136.769 26.6428 136.432 26.5462 136.086 26.539C135.911 26.5299 135.737 26.5687 135.582 26.6511C135.534 26.6835 135.495 26.7274 135.468 26.7787C135.441 26.8301 135.427 26.8873 135.428 26.9453C135.427 27.003 135.444 27.0595 135.477 27.1072C135.509 27.1548 135.556 27.1912 135.61 27.2114C135.796 27.2847 135.988 27.341 136.184 27.3795C136.407 27.4314 136.627 27.4969 136.843 27.5756C137.013 27.6297 137.164 27.7319 137.277 27.8698C137.407 28.0265 137.472 28.227 137.459 28.4302C137.459 28.625 137.401 28.8155 137.291 28.9765C137.164 29.1534 136.989 29.2897 136.787 29.3687C136.529 29.476 136.253 29.5285 135.974 29.5228C135.695 29.5655 135.411 29.5607 135.134 29.5088Z" fill="#281339"/>
<path d="M144.505 28.9204V29.5648H141.83V26.0627H144.477V26.7071H142.628V27.4775H144.267V28.1079H142.628V28.9204H144.505Z" fill="#281339"/>
<path d="M149.296 29.5088C149.076 29.4521 148.867 29.3573 148.68 29.2286L148.96 28.6123C149.121 28.7312 149.301 28.8212 149.492 28.8784C149.691 28.945 149.899 28.9782 150.109 28.9765C150.287 28.991 150.466 28.9572 150.627 28.8784C150.674 28.8482 150.713 28.8067 150.739 28.7578C150.766 28.7089 150.781 28.6541 150.781 28.5982C150.783 28.5579 150.775 28.5178 150.758 28.4812C150.741 28.4447 150.715 28.4127 150.683 28.3881C150.615 28.3269 150.534 28.2835 150.445 28.262L150.025 28.15C149.801 28.0981 149.581 28.0326 149.366 27.9539C149.198 27.8958 149.048 27.7943 148.932 27.6597C148.803 27.5023 148.738 27.3023 148.75 27.0993C148.748 26.8998 148.806 26.7043 148.918 26.539C149.039 26.3625 149.21 26.226 149.408 26.1468C149.667 26.0446 149.943 25.9969 150.221 26.0067C150.44 25.9853 150.66 25.9853 150.879 26.0067C151.077 26.0577 151.266 26.1379 151.439 26.2448L151.187 26.8612C150.895 26.6853 150.562 26.5888 150.221 26.581C150.046 26.5719 149.871 26.6107 149.716 26.6931C149.665 26.7229 149.622 26.7658 149.593 26.8175C149.563 26.8692 149.548 26.9278 149.548 26.9873C149.551 27.0462 149.571 27.1031 149.605 27.1505C149.64 27.198 149.689 27.2338 149.744 27.2534C149.93 27.3288 150.122 27.3851 150.319 27.4215C150.542 27.4753 150.761 27.5407 150.977 27.6177C151.145 27.6757 151.295 27.7772 151.412 27.9118C151.541 28.0686 151.606 28.269 151.594 28.4722C151.594 28.6671 151.535 28.8575 151.425 29.0185C151.299 29.1954 151.124 29.3317 150.921 29.4107C150.664 29.5181 150.387 29.5705 150.109 29.5648C149.837 29.5879 149.563 29.569 149.296 29.5088Z" fill="#281339"/>
</svg>
