<svg width="55" height="42" viewBox="0 0 55 42" fill="none" xmlns="http://www.w3.org/2000/svg">
<path d="M29.496 3.69427C28.9595 3.4754 28.3854 3.36308 27.8059 3.3636C27.2235 3.36306 26.6464 3.47535 26.1066 3.69427C25.6657 3.46464 25.1881 3.27175 24.7564 3.07885C25.6647 2.50905 26.7153 2.20681 27.7876 2.20681C28.8598 2.20681 29.9104 2.50905 30.8187 3.07885C30.3595 3.27175 29.9002 3.46464 29.4685 3.69427H29.496ZM29.6981 3.77694H29.6063H29.6981ZM27.1997 8.16755C27.1786 7.36022 26.85 6.59141 26.2812 6.01817C25.7374 5.54236 25.116 5.16332 24.4441 4.89755C23.7234 5.72107 23.3282 6.77933 23.3327 7.87362C23.3317 9.07066 23.8038 10.2196 24.6462 11.0701L27.8427 14.2574L31.03 11.0701C31.8398 10.259 32.312 9.17097 32.3512 8.02544C32.3904 6.87992 31.9938 5.76214 31.2413 4.89755C30.5673 5.15926 29.9453 5.5387 29.4042 6.01817C28.8353 6.59141 28.5068 7.36022 28.4856 8.16755C28.4719 8.31372 28.4039 8.44945 28.2951 8.54804C28.1863 8.64663 28.0446 8.70094 27.8978 8.7003C27.8162 8.71764 27.7318 8.71716 27.6505 8.69886C27.5691 8.68056 27.4926 8.6449 27.4263 8.5943C27.36 8.5437 27.3055 8.47937 27.2663 8.40571C27.2272 8.33205 27.2045 8.25081 27.1997 8.16755ZM32.5823 3.07885C31.3195 1.83631 29.6189 1.13994 27.8473 1.13994C26.0756 1.13994 24.375 1.83631 23.1122 3.07885C23.4337 3.22582 23.746 3.35441 24.0307 3.47382L24.4349 3.63916H25.1789H25.3902C26.0479 4.03996 26.6193 4.56765 27.0711 5.19149C27.354 5.45831 27.5927 5.76835 27.7784 6.11002C27.9637 5.77058 28.199 5.46094 28.4765 5.19149C28.9804 4.7197 29.5613 4.33759 30.1941 4.06169H30.9749H31.1402L31.5444 3.89635C31.9118 3.35441 32.2241 3.22582 32.5823 3.07885ZM30.0747 6.753C30.1772 6.753 30.2788 6.77319 30.3735 6.81243C30.4682 6.85167 30.5543 6.90918 30.6268 6.98168C30.6993 7.05418 30.7568 7.14025 30.796 7.23497C30.8353 7.3297 30.8555 7.43122 30.8555 7.53375C30.8573 7.69076 30.8123 7.84474 30.7262 7.97605C30.6401 8.10735 30.5168 8.21002 30.3721 8.27094C30.2274 8.33187 30.0678 8.34828 29.9137 8.31809C29.7596 8.28791 29.618 8.21249 29.507 8.10146C29.396 7.99044 29.3206 7.84884 29.2904 7.69476C29.2602 7.54067 29.2766 7.38109 29.3375 7.23638C29.3985 7.09167 29.5011 6.96839 29.6324 6.8823C29.7637 6.7962 29.9177 6.75118 30.0747 6.753ZM25.629 6.753C25.7315 6.753 25.833 6.77319 25.9278 6.81243C26.0225 6.85167 26.1086 6.90918 26.1811 6.98168C26.2536 7.05418 26.3111 7.14025 26.3503 7.23497C26.3896 7.3297 26.4097 7.43122 26.4097 7.53375C26.4097 7.74082 26.3275 7.93942 26.1811 8.08584C26.0347 8.23226 25.8361 8.31451 25.629 8.31451C25.4219 8.31451 25.2233 8.23226 25.0769 8.08584C24.9305 7.93942 24.8482 7.74082 24.8482 7.53375C24.8395 7.42971 24.8517 7.32497 24.8841 7.22572C24.9166 7.12647 24.9686 7.03474 25.0371 6.95595C25.1056 6.87716 25.1892 6.81291 25.283 6.767C25.3768 6.7211 25.4788 6.69448 25.5831 6.6887L25.629 6.753ZM33.4366 2.31647L33.657 2.5461C34.0555 2.34999 34.3952 2.05228 34.642 1.68298C34.8887 1.31369 35.0337 0.885864 35.0624 0.442653C35.2521 0.560295 35.4121 0.720122 35.53 0.909703C35.6479 1.09929 35.7205 1.31351 35.7421 1.53571C35.7777 1.91342 35.6694 2.29066 35.439 2.59203C35.1355 2.94655 34.7829 3.25586 34.3918 3.51057H34.0612H33.3171C32.9865 3.66672 32.6466 3.8045 32.3251 3.94228C33.1559 5.03514 33.5625 6.39205 33.4696 7.76169C33.3767 9.13134 32.7907 10.4209 31.8199 11.3916L29.2572 13.9543C30.2881 13.726 31.2509 13.2587 32.0681 12.5902C32.8853 11.9216 33.5341 11.0705 33.9622 10.1053C34.3903 9.1401 34.5857 8.08787 34.5327 7.03336C34.4796 5.97884 34.1797 4.95152 33.657 4.03413C34.0093 3.87103 34.35 3.68382 34.6766 3.47382C35.2675 4.52689 35.6091 5.70141 35.6751 6.90711C35.7412 8.11282 35.53 9.31763 35.0577 10.429C34.5854 11.5403 33.8646 12.5285 32.9508 13.3178C32.0369 14.1071 30.9542 14.6763 29.786 14.9818C28.6177 15.2873 27.395 15.3209 26.2118 15.08C25.0285 14.8391 23.9163 14.3302 22.9604 13.5923C22.0046 12.8544 21.2306 11.9072 20.698 10.8235C20.1654 9.73978 19.8884 8.54838 19.8881 7.34086C19.8855 5.98741 20.2302 4.65593 20.8893 3.47382C21.217 3.68195 21.5576 3.86909 21.9089 4.03413C21.3842 4.9505 21.0823 5.97746 21.0278 7.03204C20.9732 8.08661 21.1675 9.13923 21.5948 10.1049C22.0222 11.0705 22.6707 11.9221 23.488 12.5908C24.3053 13.2595 25.2684 13.7266 26.2995 13.9543L23.746 11.3916C23.2172 10.8657 22.7981 10.2401 22.5127 9.55113C22.2273 8.86212 22.0814 8.12337 22.0834 7.3776C22.0828 6.13817 22.4858 4.93223 23.2316 3.94228L22.2396 3.51057H21.9916H21.7252H21.6609H21.4864C21.1 3.25334 20.7508 2.94428 20.4484 2.59203C20.2146 2.29237 20.106 1.91377 20.1453 1.53571C20.1652 1.31414 20.2361 1.10018 20.3524 0.910551C20.4687 0.720927 20.6274 0.560786 20.8159 0.442653C20.8463 0.885373 20.9921 1.31242 21.2386 1.68141C21.4851 2.0504 21.8239 2.3485 22.2212 2.5461C22.2932 2.46511 22.3699 2.38843 22.4509 2.31647C23.1837 1.58215 24.0542 0.999578 25.0125 0.602089C25.9708 0.2046 26.9981 0 28.0356 0C29.073 0 30.1003 0.2046 31.0586 0.602089C32.0169 0.999578 32.8874 1.58215 33.6203 2.31647H33.4366Z" fill="#216FB3"/>
<path d="M44.7254 7.27649H35.4757L35.5308 8.61755H44.7162C44.8194 8.61752 44.9185 8.65788 44.9923 8.72997C45.0661 8.80207 45.1088 8.90019 45.1112 9.00334C45.1112 9.5184 45.0097 10.0284 44.8126 10.5043C44.6155 10.9801 44.3266 11.4125 43.9624 11.7767C43.5982 12.1409 43.1658 12.4298 42.69 12.6269C42.2141 12.824 41.7041 12.9255 41.189 12.9255H33.3998L32.812 13.6236L30.9749 14.6891L28.0815 18.8501C28.0039 18.9142 27.9066 18.9499 27.8059 18.9511C27.705 18.9514 27.6072 18.9156 27.5304 18.8501L24.7748 14.9187H24.4625L22.0651 12.9622H14.4137C13.375 12.9501 12.3836 12.5265 11.6569 11.7843C10.9303 11.0421 10.5276 10.042 10.5374 9.00334C10.5374 8.9519 10.5477 8.90097 10.5677 8.85355C10.5876 8.80614 10.6169 8.76319 10.6537 8.72725C10.6905 8.6913 10.7341 8.66308 10.782 8.64424C10.8298 8.6254 10.881 8.61633 10.9324 8.61755H20.1178L20.0076 7.27649H10.914C10.4561 7.27649 10.0168 7.45843 9.69298 7.78227C9.36913 8.10612 9.18719 8.54535 9.18719 9.00334C9.18719 10.3968 9.74074 11.7332 10.7261 12.7185C11.7114 13.7038 13.0478 14.2574 14.4412 14.2574H22.7081L26.5292 19.7686C26.694 19.9347 26.89 20.0665 27.106 20.1564C27.322 20.2464 27.5536 20.2927 27.7876 20.2927C28.0215 20.2927 28.2532 20.2464 28.4692 20.1564C28.6851 20.0665 28.8812 19.9347 29.046 19.7686L32.8579 14.2574H41.1247C42.5182 14.2574 43.8546 13.7038 44.8399 12.7185C45.8252 11.7332 46.3787 10.3968 46.3787 9.00334C46.3792 8.5578 46.2073 8.12935 45.8992 7.80754C45.5911 7.48572 45.1705 7.29545 44.7254 7.27649Z" fill="#216FB3"/>
<path d="M8.07594 16.1771C7.28093 16.1747 6.5193 15.8572 5.958 15.2941C5.3967 14.7311 5.08151 13.9685 5.08151 13.1735V8.79208C5.08151 8.74335 5.10087 8.69663 5.13532 8.66218C5.16977 8.62772 5.2165 8.60837 5.26522 8.60837H20.2925L20.1363 7.27649H5.26522C4.86326 7.27649 4.47776 7.43617 4.19354 7.72039C3.90931 8.00462 3.74963 8.39012 3.74963 8.79208V13.1735C3.74963 14.3217 4.20514 15.4231 5.01622 16.2359C5.8273 17.0487 6.92769 17.5066 8.07594 17.509H25.5281L24.6096 16.1771H8.07594Z" fill="#216FB3"/>
<path d="M50.3468 7.27652H35.4848L35.3379 8.6084H49.9426C50.4111 8.6084 50.4937 8.69107 50.4937 8.7921V13.1735C50.4913 13.9694 50.1741 14.732 49.6113 15.2947C49.0486 15.8575 48.286 16.1747 47.4901 16.1771H30.4788L29.7164 17.509H47.5269C48.097 17.5102 48.6617 17.399 49.1888 17.1816C49.7159 16.9643 50.1949 16.6451 50.5985 16.2424C51.002 15.8397 51.3222 15.3614 51.5406 14.8348C51.7591 14.3082 51.8715 13.7436 51.8715 13.1735V8.7921C51.8715 8.5923 51.832 8.39446 51.7553 8.20998C51.6786 8.0255 51.5661 7.85802 51.4244 7.71716C51.2827 7.57631 51.1145 7.46486 50.9296 7.38924C50.7446 7.31362 50.5466 7.27531 50.3468 7.27652Z" fill="#216FB3"/>
<path d="M0.433594 40.6745V38.9293C0.459433 38.6389 0.593032 38.3688 0.808084 38.172C1.02314 37.9753 1.30406 37.8661 1.59554 37.8661C1.88703 37.8661 2.16795 37.9753 2.383 38.172C2.59806 38.3688 2.73165 38.6389 2.75749 38.9293V40.6745C2.73165 40.9648 2.59806 41.235 2.383 41.4317C2.16795 41.6285 1.88703 41.7376 1.59554 41.7376C1.30406 41.7376 1.02314 41.6285 0.808084 41.4317C0.593032 41.235 0.459433 40.9648 0.433594 40.6745ZM2.35334 40.6745V38.8925C2.36508 38.786 2.35424 38.6782 2.32151 38.5762C2.28878 38.4741 2.23491 38.3801 2.1634 38.3003C2.0919 38.2205 2.00437 38.1566 1.90652 38.1129C1.80867 38.0692 1.70271 38.0466 1.59554 38.0466C1.48837 38.0466 1.38241 38.0692 1.28456 38.1129C1.18672 38.1566 1.09919 38.2205 1.02768 38.3003C0.956174 38.3801 0.902301 38.4741 0.869575 38.5762C0.836848 38.6782 0.826003 38.786 0.837749 38.8925V40.6745C0.826003 40.781 0.836848 40.8888 0.869575 40.9909C0.902301 41.0929 0.956174 41.1869 1.02768 41.2667C1.09919 41.3466 1.18672 41.4104 1.28456 41.4541C1.38241 41.4978 1.48837 41.5204 1.59554 41.5204C1.70271 41.5204 1.80867 41.4978 1.90652 41.4541C2.00437 41.4104 2.0919 41.3466 2.1634 41.2667C2.23491 41.1869 2.28878 41.0929 2.32151 40.9909C2.35424 40.8888 2.36508 40.781 2.35334 40.6745Z" fill="#216FB3"/>
<path d="M3.85971 41.6941V37.8454C3.85795 37.8378 3.85815 37.8299 3.86029 37.8224C3.86244 37.8149 3.86646 37.8081 3.87197 37.8026C3.87749 37.7971 3.88431 37.793 3.89181 37.7909C3.89931 37.7888 3.90722 37.7885 3.91482 37.7903H4.19956C4.19956 37.7903 4.26386 37.7903 4.26386 37.8454V41.3818H5.94479C5.96036 41.3816 5.97546 41.3871 5.98729 41.3973C5.99911 41.4074 6.00686 41.4215 6.00908 41.4369V41.6757C6.00908 41.6757 6.00908 41.7308 5.94479 41.7308H3.91482C3.90722 41.7326 3.89931 41.7324 3.89181 41.7302C3.88431 41.7281 3.87749 41.7241 3.87197 41.7186C3.86646 41.7131 3.86244 41.7062 3.86029 41.6987C3.85815 41.6912 3.85795 41.6833 3.85971 41.6757" fill="#216FB3"/>
<path d="M6.86343 41.6941V37.8454C6.86167 37.8378 6.86187 37.8299 6.86402 37.8224C6.86616 37.8149 6.87018 37.8081 6.87569 37.8026C6.88121 37.7971 6.88803 37.793 6.89553 37.7909C6.90303 37.7888 6.91095 37.7885 6.91854 37.7903H7.21248C7.21971 37.7903 7.22688 37.7917 7.23357 37.7945C7.24025 37.7973 7.24633 37.8013 7.25145 37.8064C7.25656 37.8116 7.26062 37.8176 7.26339 37.8243C7.26616 37.831 7.26759 37.8382 7.26759 37.8454V41.6941C7.26759 41.7087 7.26178 41.7227 7.25145 41.7331C7.24111 41.7434 7.22709 41.7492 7.21248 41.7492H6.91854C6.91095 41.751 6.90303 41.7508 6.89553 41.7486C6.88803 41.7465 6.88121 41.7425 6.87569 41.7369C6.87018 41.7314 6.86616 41.7246 6.86402 41.7171C6.86187 41.7096 6.86167 41.7017 6.86343 41.6941Z" fill="#216FB3"/>
<path d="M8.46176 41.6942V37.8455C8.46 37.8379 8.4602 37.83 8.46234 37.8225C8.46449 37.815 8.46851 37.8082 8.47402 37.8027C8.47954 37.7972 8.48636 37.7931 8.49386 37.791C8.50135 37.7889 8.50927 37.7887 8.51687 37.7904H8.8108C8.82057 37.7848 8.83166 37.7818 8.84295 37.7818C8.85424 37.7818 8.86532 37.7848 8.8751 37.7904L9.71097 39.4713L10.556 37.7904C10.5658 37.7848 10.5769 37.7818 10.5882 37.7818C10.5995 37.7818 10.6105 37.7848 10.6203 37.7904H10.9143C10.9218 37.7887 10.9298 37.7889 10.9373 37.791C10.9448 37.7931 10.9516 37.7972 10.9571 37.8027C10.9626 37.8082 10.9666 37.815 10.9688 37.8225C10.9709 37.83 10.9711 37.8379 10.9694 37.8455V41.6942C10.9711 41.7018 10.9709 41.7097 10.9688 41.7172C10.9666 41.7247 10.9626 41.7315 10.9571 41.737C10.9516 41.7426 10.9448 41.7466 10.9373 41.7487C10.9298 41.7509 10.9218 41.7511 10.9143 41.7493H10.6295C10.6219 41.7511 10.614 41.7509 10.6065 41.7487C10.599 41.7466 10.5922 41.7426 10.5867 41.737C10.5811 41.7315 10.5771 41.7247 10.575 41.7172C10.5728 41.7097 10.5726 41.7018 10.5744 41.6942V38.6998L9.86712 40.0959C9.8571 40.1008 9.84611 40.1033 9.83497 40.1033C9.82383 40.1033 9.81284 40.1008 9.80282 40.0959H9.67423C9.66264 40.101 9.65013 40.1036 9.63748 40.1036C9.62484 40.1036 9.61233 40.101 9.60074 40.0959L8.89347 38.6906V41.6942C8.89347 41.7088 8.88766 41.7228 8.87733 41.7332C8.86699 41.7435 8.85298 41.7493 8.83836 41.7493H8.51687C8.50927 41.7511 8.50135 41.7509 8.49386 41.7487C8.48636 41.7466 8.47954 41.7426 8.47402 41.737C8.46851 41.7315 8.46449 41.7247 8.46234 41.7172C8.4602 41.7097 8.46 41.7018 8.46176 41.6942Z" fill="#216FB3"/>
<path d="M14.4046 38.8926C14.4176 39.032 14.401 39.1725 14.3558 39.3049C14.3107 39.4374 14.238 39.5588 14.1425 39.6612C14.0471 39.7635 13.9311 39.8445 13.8021 39.8989C13.6732 39.9532 13.5342 39.9797 13.3943 39.9765H12.5492V41.6758C12.5492 41.6758 12.5492 41.7309 12.4849 41.7309H12.2002C12.1926 41.7327 12.1846 41.7325 12.1771 41.7303C12.1697 41.7282 12.1628 41.7241 12.1573 41.7186C12.1518 41.7131 12.1478 41.7063 12.1456 41.6988C12.1435 41.6913 12.1433 41.6834 12.145 41.6758V37.8455C12.145 37.8455 12.145 37.7812 12.2002 37.7812H13.4126C13.5547 37.779 13.6956 37.8071 13.826 37.8636C13.9563 37.9201 14.0732 38.0037 14.1687 38.1088C14.2643 38.2139 14.3364 38.3382 14.3803 38.4733C14.4241 38.6085 14.4387 38.7514 14.423 38.8926H14.4046ZM14.0189 38.8926C14.0305 38.7986 14.0222 38.7033 13.9943 38.6128C13.9665 38.5223 13.9198 38.4387 13.8573 38.3675C13.7948 38.2964 13.718 38.2392 13.6318 38.1999C13.5457 38.1606 13.4522 38.14 13.3575 38.1394H12.5676V39.5999H13.3575C13.4522 39.5993 13.5457 39.5787 13.6318 39.5394C13.718 39.5001 13.7948 39.4429 13.8573 39.3718C13.9198 39.3006 13.9665 39.217 13.9943 39.1265C14.0222 39.036 14.0305 38.9407 14.0189 38.8467" fill="#216FB3"/>
<path d="M15.3047 37.2576L15.6446 36.6422C15.656 36.6366 15.6686 36.6336 15.6813 36.6336C15.694 36.6336 15.7066 36.6366 15.718 36.6422H15.9844C15.9844 36.6422 16.0395 36.6422 15.9844 36.7065L15.5894 37.3219C15.5797 37.3276 15.5686 37.3305 15.5573 37.3305C15.546 37.3305 15.5349 37.3276 15.5252 37.3219H15.3047C15.3047 37.3219 15.2404 37.3219 15.3047 37.2576ZM15.3047 41.6942V37.8455C15.3029 37.8379 15.3031 37.83 15.3053 37.8225C15.3074 37.815 15.3115 37.8082 15.317 37.8027C15.3225 37.7971 15.3293 37.7931 15.3368 37.791C15.3443 37.7888 15.3522 37.7886 15.3598 37.7904H15.6537C15.661 37.7904 15.6681 37.7918 15.6748 37.7946C15.6815 37.7974 15.6876 37.8014 15.6927 37.8065C15.6978 37.8116 15.7019 37.8177 15.7047 37.8244C15.7074 37.8311 15.7089 37.8383 15.7089 37.8455V41.6942C15.7089 41.7088 15.7031 41.7228 15.6927 41.7331C15.6824 41.7435 15.6684 41.7493 15.6537 41.7493H15.3598C15.3522 41.751 15.3443 41.7508 15.3368 41.7487C15.3293 41.7465 15.3225 41.7425 15.317 41.737C15.3115 41.7315 15.3074 41.7247 15.3053 41.7172C15.3031 41.7097 15.3029 41.7018 15.3047 41.6942Z" fill="#216FB3"/>
<path d="M18.8686 41.7034L18.6849 40.9961H17.3071L17.1142 41.7034C17.1058 41.7082 17.0963 41.7108 17.0866 41.7108C17.0769 41.7108 17.0674 41.7082 17.059 41.7034H16.7651C16.7651 41.7034 16.7008 41.7034 16.71 41.6483L17.7663 37.7996C17.7663 37.7924 17.7677 37.7852 17.7705 37.7785C17.7733 37.7718 17.7773 37.7658 17.7825 37.7607C17.7876 37.7555 17.7937 37.7515 17.8003 37.7487C17.807 37.7459 17.8142 37.7445 17.8214 37.7445H18.1888C18.2044 37.7444 18.2195 37.7499 18.2314 37.76C18.2432 37.7701 18.2509 37.7842 18.2531 37.7996L19.3095 41.6483C19.3095 41.6483 19.3095 41.7034 19.2544 41.7034H18.9604C18.9504 41.7083 18.9394 41.7108 18.9283 41.7108C18.9171 41.7108 18.9061 41.7083 18.8961 41.7034H18.8686ZM17.3989 40.6746H18.5654L17.9684 38.4059L17.3713 40.6746" fill="#216FB3"/>
<path d="M20.219 41.6941V37.8455C20.219 37.8382 20.2204 37.8311 20.2232 37.8244C20.226 37.8177 20.23 37.8116 20.2351 37.8065C20.2403 37.8014 20.2463 37.7973 20.253 37.7945C20.2597 37.7918 20.2669 37.7904 20.2741 37.7904H21.3855C21.5285 37.777 21.6726 37.7945 21.8082 37.8418C21.9438 37.8891 22.0676 37.9649 22.1713 38.0642C22.2749 38.1635 22.356 38.284 22.4091 38.4174C22.4621 38.5508 22.4858 38.6941 22.4786 38.8375V40.6746C22.4898 40.8193 22.4693 40.9648 22.4187 41.1009C22.3681 41.237 22.2884 41.3604 22.1853 41.4627C22.0822 41.5649 21.9581 41.6435 21.8216 41.693C21.685 41.7425 21.5394 41.7617 21.3947 41.7492H20.2741C20.2595 41.7492 20.2455 41.7434 20.2351 41.7331C20.2248 41.7228 20.219 41.7087 20.219 41.6941ZM20.6415 41.4002H21.3855C21.4818 41.4023 21.5773 41.3836 21.6657 41.3454C21.7541 41.3072 21.8332 41.2505 21.8977 41.1791C21.9621 41.1076 22.0105 41.0231 22.0394 40.9313C22.0683 40.8395 22.0771 40.7425 22.0653 40.647V38.9018C22.0786 38.8056 22.0709 38.7076 22.0426 38.6147C22.0143 38.5217 21.9662 38.436 21.9016 38.3635C21.8369 38.291 21.7573 38.2334 21.6682 38.1947C21.5791 38.156 21.4827 38.1371 21.3855 38.1394H20.6415V41.3543" fill="#216FB3"/>
<path d="M25.3534 41.7034L25.1697 40.9961H23.7919L23.6082 41.7034C23.6082 41.7034 23.6082 41.7034 23.5439 41.7034H23.2132C23.2132 41.7034 23.1489 41.7034 23.2132 41.6483L24.2603 37.7996C24.2626 37.7842 24.2703 37.7701 24.2821 37.76C24.294 37.7499 24.3091 37.7444 24.3246 37.7445H24.6921C24.7067 37.7445 24.7207 37.7503 24.731 37.7607C24.7414 37.771 24.7472 37.785 24.7472 37.7996L25.8127 41.6483C25.8127 41.6483 25.8127 41.7034 25.7576 41.7034H25.4177C25.4079 41.7091 25.3968 41.712 25.3855 41.712C25.3743 41.712 25.3632 41.7091 25.3534 41.7034ZM23.8746 40.6746H25.0503L24.4624 38.4059L23.8562 40.6746" fill="#216FB3"/>
<path d="M28.1001 41.6941V37.8454C28.1001 37.8382 28.1015 37.831 28.1043 37.8243C28.1071 37.8177 28.1111 37.8116 28.1162 37.8065C28.1214 37.8013 28.1274 37.7973 28.1341 37.7945C28.1408 37.7918 28.148 37.7903 28.1552 37.7903H29.2666C29.4089 37.7784 29.552 37.797 29.6864 37.8448C29.8209 37.8927 29.9435 37.9688 30.0462 38.0679C30.1488 38.1671 30.2291 38.2871 30.2816 38.4198C30.334 38.5525 30.3576 38.6949 30.3505 38.8375V40.6745C30.3617 40.8193 30.3413 40.9648 30.2906 41.1009C30.24 41.237 30.1603 41.3604 30.0572 41.4627C29.9541 41.5649 29.83 41.6435 29.6935 41.693C29.557 41.7424 29.4113 41.7616 29.2666 41.7492H28.1552C28.1406 41.7492 28.1266 41.7434 28.1162 41.7331C28.1059 41.7227 28.1001 41.7087 28.1001 41.6941ZM28.5226 41.4002H29.2666C29.3629 41.4022 29.4584 41.3835 29.5468 41.3454C29.6352 41.3072 29.7143 41.2505 29.7788 41.179C29.8432 41.1076 29.8916 41.0231 29.9205 40.9313C29.9494 40.8394 29.9582 40.7425 29.9464 40.647V38.9018C29.9597 38.8055 29.952 38.7076 29.9237 38.6146C29.8954 38.5217 29.8473 38.436 29.7827 38.3635C29.718 38.291 29.6384 38.2334 29.5493 38.1947C29.4602 38.156 29.3638 38.1371 29.2666 38.1394H28.5226V41.3542" fill="#216FB3"/>
<path d="M31.3239 40.6745V38.9293C31.3498 38.6389 31.4834 38.3688 31.6984 38.172C31.9135 37.9753 32.1944 37.8661 32.4859 37.8661C32.7773 37.8661 33.0583 37.9753 33.2733 38.172C33.4884 38.3688 33.622 38.6389 33.6478 38.9293V40.6745C33.622 40.9648 33.4884 41.235 33.2733 41.4317C33.0583 41.6285 32.7773 41.7376 32.4859 41.7376C32.1944 41.7376 31.9135 41.6285 31.6984 41.4317C31.4834 41.235 31.3498 40.9648 31.3239 40.6745ZM33.2437 40.6745V38.8925C33.2554 38.786 33.2446 38.6782 33.2118 38.5762C33.1791 38.4741 33.1252 38.3801 33.0537 38.3003C32.9822 38.2205 32.8947 38.1566 32.7968 38.1129C32.699 38.0692 32.593 38.0466 32.4859 38.0466C32.3787 38.0466 32.2727 38.0692 32.1749 38.1129C32.077 38.1566 31.9895 38.2205 31.918 38.3003C31.8465 38.3801 31.7926 38.4741 31.7599 38.5762C31.7272 38.6782 31.7163 38.786 31.7281 38.8925V40.6745C31.7163 40.781 31.7272 40.8888 31.7599 40.9909C31.7926 41.0929 31.8465 41.1869 31.918 41.2667C31.9895 41.3466 32.077 41.4104 32.1749 41.4541C32.2727 41.4978 32.3787 41.5204 32.4859 41.5204C32.593 41.5204 32.699 41.4978 32.7968 41.4541C32.8947 41.4104 32.9822 41.3466 33.0537 41.2667C33.1252 41.1869 33.1791 41.0929 33.2118 40.9909C33.2446 40.8888 33.2554 40.781 33.2437 40.6745Z" fill="#216FB3"/>
<path d="M38.268 38.1394H36.5687V39.5356H37.7077C37.7153 39.5338 37.7232 39.534 37.7307 39.5361C37.7382 39.5383 37.745 39.5423 37.7505 39.5478C37.7561 39.5533 37.7601 39.5602 37.7622 39.5677C37.7644 39.5752 37.7646 39.5831 37.7628 39.5907V39.8295C37.7646 39.8371 37.7644 39.845 37.7622 39.8525C37.7601 39.86 37.7561 39.8668 37.7505 39.8723C37.745 39.8779 37.7382 39.8819 37.7307 39.884C37.7232 39.8862 37.7153 39.8864 37.7077 39.8846H36.5687V41.6115C36.5687 41.6261 36.5629 41.6401 36.5526 41.6504C36.5422 41.6608 36.5282 41.6666 36.5136 41.6666H36.2197C36.205 41.6666 36.191 41.6608 36.1807 41.6504C36.1704 41.6401 36.1646 41.6261 36.1646 41.6115V37.8455C36.1646 37.8382 36.166 37.8311 36.1687 37.8244C36.1715 37.8177 36.1756 37.8116 36.1807 37.8065C36.1858 37.8014 36.1919 37.7973 36.1986 37.7945C36.2053 37.7918 36.2124 37.7903 36.2197 37.7903H38.2864C38.2936 37.7903 38.3008 37.7918 38.3075 37.7945C38.3141 37.7973 38.3202 37.8014 38.3253 37.8065C38.3305 37.8116 38.3345 37.8177 38.3373 37.8244C38.3401 37.8311 38.3415 37.8382 38.3415 37.8455V38.0843C38.3415 38.0989 38.3357 38.1129 38.3253 38.1232C38.315 38.1336 38.301 38.1394 38.2864 38.1394" fill="#216FB3"/>
<path d="M39.1225 40.6195V37.8639C39.1225 37.8493 39.1283 37.8353 39.1386 37.8249C39.1489 37.8146 39.1629 37.8088 39.1776 37.8088H39.4715C39.4791 37.807 39.487 37.8072 39.4945 37.8094C39.502 37.8115 39.5088 37.8156 39.5143 37.8211C39.5199 37.8266 39.5239 37.8334 39.526 37.8409C39.5282 37.8484 39.5284 37.8563 39.5266 37.8639V40.6195C39.5149 40.7261 39.5257 40.8339 39.5584 40.9359C39.5912 41.0379 39.645 41.1319 39.7165 41.2118C39.788 41.2916 39.8756 41.3555 39.9734 41.3992C40.0713 41.4429 40.1772 41.4655 40.2844 41.4655C40.3916 41.4655 40.4975 41.4429 40.5954 41.3992C40.6932 41.3555 40.7808 41.2916 40.8523 41.2118C40.9238 41.1319 40.9776 41.0379 41.0104 40.9359C41.0431 40.8339 41.0539 40.7261 41.0422 40.6195V37.8639C41.0422 37.8493 41.048 37.8353 41.0583 37.8249C41.0687 37.8146 41.0827 37.8088 41.0973 37.8088H41.3912C41.4058 37.8088 41.4199 37.8146 41.4302 37.8249C41.4405 37.8353 41.4463 37.8493 41.4463 37.8639V40.6195C41.4607 40.7808 41.4413 40.9433 41.3895 41.0967C41.3376 41.25 41.2543 41.3909 41.1451 41.5104C41.0358 41.6299 40.9028 41.7252 40.7546 41.7905C40.6064 41.8558 40.4463 41.8895 40.2844 41.8895C40.1225 41.8895 39.9624 41.8558 39.8142 41.7905C39.666 41.7252 39.533 41.6299 39.4237 41.5104C39.3144 41.3909 39.2312 41.25 39.1793 41.0967C39.1275 40.9433 39.1081 40.7808 39.1225 40.6195Z" fill="#216FB3"/>
<path d="M44.7253 37.8455V38.0843C44.7271 38.0919 44.7269 38.0999 44.7247 38.1073C44.7226 38.1148 44.7186 38.1217 44.7131 38.1272C44.7076 38.1327 44.7007 38.1367 44.6932 38.1389C44.6857 38.141 44.6778 38.1412 44.6702 38.1394H43.7517V41.6666C43.7534 41.6742 43.7532 41.6821 43.7511 41.6896C43.7489 41.6971 43.7449 41.704 43.7394 41.7095C43.7339 41.715 43.7271 41.719 43.7196 41.7212C43.7121 41.7233 43.7042 41.7235 43.6966 41.7217H43.4118C43.4042 41.7235 43.3963 41.7233 43.3888 41.7212C43.3813 41.719 43.3745 41.715 43.369 41.7095C43.3635 41.704 43.3594 41.6971 43.3573 41.6896C43.3551 41.6821 43.3549 41.6742 43.3567 41.6666V38.167H42.4382C42.4309 38.167 42.4238 38.1656 42.4171 38.1628C42.4104 38.16 42.4043 38.156 42.3992 38.1509C42.3941 38.1457 42.39 38.1397 42.3873 38.133C42.3845 38.1263 42.3831 38.1191 42.3831 38.1119V37.8731C42.3831 37.8585 42.3889 37.8444 42.3992 37.8341C42.4095 37.8238 42.4236 37.818 42.4382 37.818H44.6978C44.7054 37.8162 44.7133 37.8164 44.7208 37.8185C44.7283 37.8207 44.7351 37.8247 44.7406 37.8302C44.7461 37.8357 44.7501 37.8426 44.7523 37.8501C44.7544 37.8576 44.7546 37.8655 44.7529 37.8731" fill="#216FB3"/>
<path d="M45.6441 40.6195V37.8639C45.6441 37.8639 45.6441 37.8088 45.7084 37.8088H45.9932C46.0008 37.807 46.0087 37.8072 46.0162 37.8094C46.0237 37.8115 46.0305 37.8156 46.036 37.8211C46.0415 37.8266 46.0455 37.8334 46.0477 37.8409C46.0498 37.8484 46.05 37.8563 46.0483 37.8639V40.6195C46.0365 40.7261 46.0474 40.8339 46.0801 40.9359C46.1128 41.0379 46.1667 41.1319 46.2382 41.2118C46.3097 41.2916 46.3972 41.3555 46.4951 41.3992C46.5929 41.4429 46.6989 41.4655 46.8061 41.4655C46.9132 41.4655 47.0192 41.4429 47.117 41.3992C47.2149 41.3555 47.3024 41.2916 47.3739 41.2118C47.4454 41.1319 47.4993 41.0379 47.532 40.9359C47.5648 40.8339 47.5756 40.7261 47.5639 40.6195V37.8639C47.5639 37.8493 47.5697 37.8353 47.58 37.8249C47.5903 37.8146 47.6044 37.8088 47.619 37.8088H47.9129C47.9205 37.807 47.9284 37.8072 47.9359 37.8094C47.9434 37.8115 47.9502 37.8156 47.9558 37.8211C47.9613 37.8266 47.9653 37.8334 47.9674 37.8409C47.9696 37.8484 47.9698 37.8563 47.968 37.8639V40.6195C47.9824 40.7808 47.963 40.9433 47.9111 41.0967C47.8592 41.25 47.776 41.3909 47.6667 41.5104C47.5574 41.6299 47.4245 41.7252 47.2763 41.7905C47.1281 41.8558 46.968 41.8895 46.8061 41.8895C46.6442 41.8895 46.484 41.8558 46.3358 41.7905C46.1877 41.7252 46.0547 41.6299 45.9454 41.5104C45.8361 41.3909 45.7529 41.25 45.701 41.0967C45.6491 40.9433 45.6298 40.7808 45.6441 40.6195Z" fill="#216FB3"/>
<path d="M51.0174 41.7034L50.3101 39.949H49.5845V41.6942C49.5845 41.7088 49.5787 41.7229 49.5683 41.7332C49.558 41.7435 49.544 41.7493 49.5294 41.7493H49.2354C49.2278 41.7511 49.2199 41.7509 49.2124 41.7487C49.2049 41.7466 49.1981 41.7426 49.1926 41.7371C49.1871 41.7316 49.1831 41.7247 49.1809 41.7172C49.1788 41.7097 49.1786 41.7018 49.1803 41.6942V37.8455C49.1803 37.8455 49.1803 37.7812 49.2354 37.7812H50.4387C50.5719 37.7859 50.7027 37.8171 50.8236 37.873C50.9445 37.9289 51.0531 38.0084 51.1429 38.1068C51.2327 38.2051 51.302 38.3204 51.3467 38.4459C51.3914 38.5714 51.4106 38.7046 51.4032 38.8376C51.4188 39.0626 51.3572 39.2862 51.2286 39.4716C51.1001 39.6569 50.9122 39.7929 50.6959 39.8571L51.4307 41.6207C51.4307 41.6207 51.4307 41.685 51.3848 41.685H51.0817C51.0817 41.685 51.0817 41.685 51.0266 41.685L51.0174 41.7034ZM49.5477 38.1395V39.5632H50.3285C50.5234 39.5632 50.7103 39.4858 50.8481 39.348C50.9859 39.2102 51.0633 39.0233 51.0633 38.8284C51.0633 38.6335 50.9859 38.4466 50.8481 38.3088C50.7103 38.171 50.5234 38.0936 50.3285 38.0936H49.5477" fill="#216FB3"/>
<path d="M52.2849 40.6745V38.9293C52.3107 38.6389 52.4443 38.3688 52.6593 38.172C52.8744 37.9753 53.1553 37.8661 53.4468 37.8661C53.7383 37.8661 54.0192 37.9753 54.2343 38.172C54.4493 38.3688 54.5829 38.6389 54.6088 38.9293V40.6745C54.5829 40.9648 54.4493 41.235 54.2343 41.4317C54.0192 41.6285 53.7383 41.7376 53.4468 41.7376C53.1553 41.7376 52.8744 41.6285 52.6593 41.4317C52.4443 41.235 52.3107 40.9648 52.2849 40.6745ZM54.2046 40.6745V38.8925C54.2163 38.786 54.2055 38.6782 54.1728 38.5762C54.14 38.4741 54.0862 38.3801 54.0147 38.3003C53.9432 38.2205 53.8556 38.1566 53.7578 38.1129C53.6599 38.0692 53.554 38.0466 53.4468 38.0466C53.3396 38.0466 53.2337 38.0692 53.1358 38.1129C53.038 38.1566 52.9504 38.2205 52.8789 38.3003C52.8074 38.3801 52.7536 38.4741 52.7208 38.5762C52.6881 38.6782 52.6773 38.786 52.689 38.8925V40.6745C52.6773 40.781 52.6881 40.8888 52.7208 40.9909C52.7536 41.0929 52.8074 41.1869 52.8789 41.2667C52.9504 41.3466 53.038 41.4104 53.1358 41.4541C53.2337 41.4978 53.3396 41.5204 53.4468 41.5204C53.554 41.5204 53.6599 41.4978 53.7578 41.4541C53.8556 41.4104 53.9432 41.3466 54.0147 41.2667C54.0862 41.1869 54.14 41.0929 54.1728 40.9909C54.2055 40.8888 54.2163 40.781 54.2046 40.6745Z" fill="#216FB3"/>
<path d="M3.74934 26.6578C2.8951 26.6578 2.47258 26.9425 2.47258 27.5028C2.4674 27.6173 2.4938 27.7309 2.54888 27.8314C2.60396 27.9318 2.68561 28.0152 2.78488 28.0723C3.2593 28.3167 3.75803 28.5107 4.27291 28.651C4.87228 28.8048 5.42844 29.0939 5.89872 29.4961C6.24403 29.901 6.41567 30.4258 6.37636 30.9565C6.40027 31.3104 6.34414 31.6651 6.21216 31.9942C6.08017 32.3234 5.87571 32.6186 5.61397 32.8579C5.04668 33.3015 4.34034 33.5294 3.62075 33.5009C2.85653 33.4866 2.09599 33.3912 1.35196 33.2161L0.929434 33.1335L1.09477 31.8843C1.89199 32.0029 2.69563 32.0735 3.50134 32.0955C4.32802 32.0955 4.74136 31.7465 4.74136 31.0668C4.74543 30.953 4.72162 30.8399 4.67199 30.7375C4.62235 30.635 4.54842 30.5462 4.45662 30.4789C4.10011 30.267 3.71273 30.1121 3.30844 30.0196C2.60868 29.8666 1.95439 29.5521 1.39789 29.1011C1.20625 28.9075 1.05736 28.6758 0.96085 28.4211C0.864336 28.1664 0.822341 27.8942 0.837578 27.6222C0.813201 27.2894 0.866002 26.9554 0.991867 26.6463C1.11773 26.3373 1.31326 26.0614 1.56322 25.8403C2.13901 25.4184 2.84388 25.2105 3.55645 25.2524C4.29663 25.2707 5.03401 25.3506 5.76094 25.4912L6.18346 25.5647L6.05487 26.8415C5.02611 26.7221 4.19942 26.6578 3.74934 26.6578Z" fill="#423F40"/>
<path d="M6.9093 33.3263L8.74638 25.3626H11.8143L13.5595 33.3263H11.9429L11.6306 31.8934H8.87497L8.52593 33.3263H6.9093ZM9.95884 26.7037L9.15053 30.488H11.3275L10.5375 26.7312L9.95884 26.7037Z" fill="#423F40"/>
<path d="M17.5551 31.0391H16.2416V33.3263H14.6249V25.3901H17.5551C19.4473 25.3901 20.3933 26.3087 20.3933 28.1457C20.4201 28.5328 20.3697 28.9212 20.2452 29.2886C20.1206 29.656 19.9243 29.995 19.6677 30.2859C19.3864 30.5502 19.0536 30.7536 18.6901 30.8832C18.3265 31.0128 17.9401 31.0659 17.5551 31.0391ZM16.2416 29.6521H17.5459C18.3542 29.6521 18.7492 29.147 18.7492 28.1457C18.7865 27.7693 18.6816 27.3925 18.4552 27.0894C18.334 26.9734 18.1892 26.8846 18.0308 26.8292C17.8724 26.7737 17.7039 26.7529 17.5367 26.7679H16.2416V29.6521Z" fill="#423F40"/>
<path d="M21.5599 33.3263V25.3901H23.1765V33.3263H21.5599Z" fill="#423F40"/>
<path d="M24.8759 33.3263V25.3901H30.0289V26.7955H26.4925V28.6326H29.3308V30.0196H26.4925V31.9485H30.0289V33.3263H24.8759Z" fill="#423F40"/>
<path d="M31.3607 33.3263V25.3901H34.1163L36.036 31.9485H36.1462V25.3901H37.7629V33.3263H35.0899L33.0967 26.7679H32.9773V33.3263H31.3607Z" fill="#423F40"/>
<path d="M38.7641 26.8231V25.3901H44.6244V26.8231H42.5117V33.3263H40.8951V26.8231H38.7641Z" fill="#423F40"/>
<path d="M45.6438 33.3263V25.3901H47.2788V33.3263H45.6438Z" fill="#423F40"/>
<path d="M48.3258 33.3263L50.1629 25.3626H53.2308L54.976 33.3263H53.3594L53.0471 31.8934H50.2915L49.9424 33.3263H48.3258ZM51.3662 26.7037L50.5579 30.488H52.7899L51.9816 26.7037H51.3662Z" fill="#423F40"/>
</svg>
