<svg width="163" height="30" viewBox="0 0 163 30" fill="none" xmlns="http://www.w3.org/2000/svg">
<path d="M17.9586 0H18.5921L19.0873 0.829235L19.7092 1.0711L22.6576 6.00044L23.4811 6.31716L25.2317 9.231L24.3679 10.6994L17.9586 0Z" fill="#2D2540"/>
<path d="M20.1699 0H21.0971L21.3389 0.0921372L24.2873 5.02148L25.1165 5.34396L26.3258 7.36522L25.4621 8.83365L20.1699 0Z" fill="#2D2540"/>
<path d="M15.7415 0H16.375L17.4576 1.80819L18.0737 2.05005L21.0279 6.97364L21.8514 7.29612L24.1318 11.1025L23.2737 12.571L15.7415 0Z" fill="#2D2540"/>
<path d="M22.3871 0H23.4985L25.9229 4.04252L26.7463 4.365L27.4258 5.49368L26.5621 6.96212L22.3871 0Z" fill="#2D2540"/>
<path d="M13.5248 0H14.1582L15.8282 2.78715L16.4444 3.02325L19.3985 7.95259L20.222 8.27507L23.0379 12.9683L22.1742 14.4367L13.5248 0Z" fill="#2D2540"/>
<path d="M27.9268 0L29.1821 2.09036L29.3779 2.16522L28.756 3.23056L26.8211 0H27.9268Z" fill="#2D2540"/>
<path d="M24.6042 0H25.7156L27.5526 3.06932L28.3761 3.38604L28.52 3.6279L27.6562 5.09634L24.6042 0Z" fill="#2D2540"/>
<path d="M2.44513 0H3.07857L7.67392 7.67042L8.29008 7.91228L11.2442 12.8359L12.0677 13.1583L17.5556 22.3145L16.6918 23.7829L2.44513 0Z" fill="#2D2540"/>
<path d="M9.41298 15.3293L0.354736 0H0.861491L6.04421 8.64938L6.66038 8.88548L9.61453 13.8148L10.438 14.1373L16.4557 24.1803L15.5977 25.6487L9.41298 15.3293Z" fill="#2D2540"/>
<path d="M4.65643 0H5.29564L9.3036 6.69146L9.91977 6.93333L12.8739 11.8627L13.7032 12.1794L18.6498 20.4429L17.786 21.9114L4.65643 0Z" fill="#2D2540"/>
<path d="M6.8736 0H7.5128L10.9334 5.71827L11.5553 5.95437L14.5037 10.8837L15.3329 11.2004L19.7498 18.5772L18.886 20.0456L6.8736 0Z" fill="#2D2540"/>
<path d="M9.09033 0H9.72378L12.5628 4.73931L13.1847 4.98117L16.1388 9.90475L16.9623 10.2272L20.8436 16.7056L19.9798 18.1741L9.09033 0Z" fill="#2D2540"/>
<path d="M11.3074 0H11.9236H11.9409L14.1982 3.76035L14.8144 4.00221L17.7686 8.93155L18.592 9.24827L21.9378 14.8399L21.0797 16.3083L11.3074 0Z" fill="#2D2540"/>
<path d="M29.7466 1.53754L28.8022 0H30.6507L29.7466 1.53754Z" fill="#2D2540"/>
<path d="M53.587 2.92533H50.2816C50.1464 2.94931 50.0263 3.02601 49.9476 3.13846L44.9088 15.4733L39.847 3.13846C39.8096 3.08251 39.7613 3.03478 39.7048 2.99815C39.6484 2.96152 39.585 2.93668 39.5187 2.92533H36.1443C36.0828 2.91733 36.0203 2.92666 35.9637 2.95218C35.9072 2.97769 35.8589 3.01845 35.8243 3.06985C35.7896 3.12126 35.77 3.18125 35.7675 3.2432C35.765 3.30515 35.7798 3.36662 35.8102 3.42063L42.2023 18.9688C42.281 19.0812 42.401 19.1578 42.5362 19.1818H47.218C47.351 19.1564 47.4689 19.08 47.5463 18.9688L53.9151 3.42063C53.9452 3.36706 53.9599 3.30625 53.9576 3.24489C53.9553 3.18353 53.9361 3.12399 53.9022 3.0728C53.8683 3.02162 53.8209 2.98072 53.7653 2.95471C53.7097 2.9287 53.648 2.91855 53.587 2.92533Z" fill="#2D2540"/>
<path d="M71.525 2.92548H55.9769C55.8831 2.92836 55.7939 2.96697 55.7276 3.03331C55.6613 3.09965 55.6228 3.1888 55.6199 3.28258V18.8307C55.6228 18.9245 55.6613 19.0137 55.7276 19.08C55.7939 19.1463 55.8831 19.1848 55.9769 19.1877H71.525C71.6188 19.1848 71.7079 19.1463 71.7743 19.08C71.8406 19.0137 71.8792 18.9245 71.882 18.8307V16.0262C71.8792 15.9325 71.8406 15.8433 71.7743 15.777C71.7079 15.7106 71.6188 15.6722 71.525 15.6693H59.432V12.79H71.525C71.6188 12.7871 71.7079 12.7485 71.7743 12.6822C71.8406 12.6158 71.8792 12.5267 71.882 12.4329V9.62854C71.8792 9.53476 71.8406 9.44561 71.7743 9.37927C71.7079 9.31293 71.6188 9.27433 71.525 9.27144H59.432V6.42097H71.525C71.6188 6.41808 71.7079 6.37948 71.7743 6.31314C71.8406 6.2468 71.8792 6.15765 71.882 6.06387V3.25952C71.8736 3.16983 71.8327 3.08627 71.7669 3.02473C71.7011 2.96319 71.6151 2.9279 71.525 2.92548Z" fill="#2D2540"/>
<path d="M86.3072 12.692C87.4194 12.5085 88.4257 11.9237 89.1356 11.0482C89.8456 10.1727 90.2099 9.06725 90.1597 7.94117C90.1597 4.94671 88.1154 2.92548 85.1209 2.92548H73.9032C73.8095 2.92836 73.7203 2.96697 73.654 3.03331C73.5876 3.09965 73.5491 3.1888 73.5462 3.28258V18.8307C73.5491 18.9245 73.5876 19.0137 73.654 19.08C73.7203 19.1463 73.8095 19.1848 73.9032 19.1877H77.0186C77.1119 19.1847 77.2003 19.1461 77.2657 19.0796C77.3311 19.0131 77.3685 18.924 77.3699 18.8307V12.7958H82.1265L85.9732 19.0207C86.0641 19.0973 86.1701 19.1542 86.2842 19.1877H89.8027C89.8701 19.1982 89.9391 19.1878 90.0004 19.1579C90.0617 19.128 90.1125 19.08 90.1457 19.0204C90.1789 18.9608 90.1931 18.8924 90.1863 18.8245C90.1796 18.7567 90.1522 18.6925 90.1079 18.6407L86.3072 12.692ZM85.1209 9.29449H77.3699V6.44403H85.1209C85.2799 6.43599 85.4388 6.46095 85.5876 6.51742C85.7364 6.57388 85.872 6.66056 85.9856 6.77202C86.0993 6.88349 86.1885 7.01726 86.2478 7.16497C86.3071 7.31268 86.3352 7.47109 86.3302 7.63019V8.10243C86.336 8.262 86.3086 8.42107 86.2497 8.56947C86.1907 8.71787 86.1015 8.85244 85.9878 8.96453C85.8741 9.07662 85.7383 9.16373 85.589 9.22054C85.4398 9.27736 85.2804 9.30258 85.1209 9.29449Z" fill="#2D2540"/>
<path d="M107.769 2.92548H92.1751C92.0814 2.92836 91.9922 2.96697 91.9259 3.03331C91.8595 3.09965 91.821 3.1888 91.8181 3.28258V6.08693C91.821 6.1807 91.8595 6.26985 91.9259 6.33619C91.9922 6.40254 92.0814 6.44114 92.1751 6.44403H98.0489V18.848C98.0518 18.9418 98.0904 19.0309 98.1567 19.0973C98.223 19.1636 98.3122 19.2021 98.406 19.205H101.539C101.632 19.2021 101.722 19.1636 101.788 19.0973C101.854 19.0309 101.893 18.9418 101.896 18.848V6.44403H107.769C107.863 6.44114 107.952 6.40254 108.019 6.33619C108.085 6.26985 108.124 6.1807 108.126 6.08693V3.28258C108.124 3.1888 108.085 3.09965 108.019 3.03331C107.952 2.96697 107.863 2.92836 107.769 2.92548Z" fill="#2D2540"/>
<path d="M125.707 2.92548H110.159C110.065 2.92836 109.976 2.96697 109.91 3.03331C109.843 3.09965 109.805 3.1888 109.802 3.28258V18.8307C109.805 18.9245 109.843 19.0137 109.91 19.08C109.976 19.1463 110.065 19.1848 110.159 19.1877H125.707C125.801 19.1848 125.89 19.1463 125.957 19.08C126.023 19.0137 126.061 18.9245 126.064 18.8307V16.0262C126.061 15.9325 126.023 15.8433 125.957 15.777C125.89 15.7106 125.801 15.6722 125.707 15.6693H113.614V12.79H125.707C125.801 12.7871 125.89 12.7485 125.957 12.6822C126.023 12.6158 126.061 12.5267 126.064 12.4329V9.62854C126.061 9.53476 126.023 9.44561 125.957 9.37927C125.89 9.31293 125.801 9.27433 125.707 9.27144H113.614V6.42097H125.707C125.801 6.41808 125.89 6.37948 125.957 6.31314C126.023 6.2468 126.061 6.15765 126.064 6.06387V3.25952C126.056 3.16983 126.015 3.08627 125.949 3.02473C125.883 2.96319 125.797 2.9279 125.707 2.92548Z" fill="#2D2540"/>
<path d="M140.49 12.692C141.602 12.5085 142.608 11.9237 143.318 11.0482C144.028 10.1727 144.392 9.06725 144.342 7.94117C144.342 4.94671 142.298 2.92548 139.303 2.92548H128.086C127.992 2.92836 127.903 2.96697 127.836 3.03331C127.77 3.09965 127.732 3.1888 127.729 3.28258V18.8307C127.732 18.9245 127.77 19.0137 127.836 19.08C127.903 19.1463 127.992 19.1848 128.086 19.1877H131.195C131.289 19.1848 131.378 19.1463 131.445 19.08C131.511 19.0137 131.549 18.9245 131.552 18.8307V12.7958H136.309L140.156 19.0207C140.247 19.0973 140.353 19.1542 140.467 19.1877H143.985C144.053 19.1982 144.122 19.1878 144.183 19.1579C144.244 19.128 144.295 19.08 144.328 19.0204C144.361 18.9608 144.376 18.8924 144.369 18.8245C144.362 18.7567 144.335 18.6925 144.29 18.6407L140.49 12.692ZM139.303 9.29449H131.552V6.44403H139.303C139.462 6.43599 139.621 6.46095 139.77 6.51742C139.919 6.57388 140.054 6.66056 140.168 6.77202C140.282 6.88349 140.371 7.01726 140.43 7.16497C140.49 7.31268 140.518 7.47109 140.513 7.63019V8.10243C140.519 8.262 140.491 8.42107 140.432 8.56947C140.373 8.71787 140.284 8.85244 140.17 8.96453C140.057 9.07662 139.921 9.16373 139.772 9.22054C139.622 9.27736 139.463 9.30258 139.303 9.29449Z" fill="#2D2540"/>
<path d="M161.923 6.44403C162.017 6.44114 162.106 6.40254 162.172 6.33619C162.239 6.26985 162.277 6.1807 162.28 6.08693V3.28258C162.277 3.1888 162.239 3.09965 162.172 3.03331C162.106 2.96697 162.017 2.92836 161.923 2.92548H146.375C146.281 2.92836 146.192 2.96697 146.126 3.03331C146.059 3.09965 146.021 3.1888 146.018 3.28258V18.8307C146.021 18.9245 146.059 19.0137 146.126 19.08C146.192 19.1463 146.281 19.1848 146.375 19.1877H161.923C162.017 19.1848 162.106 19.1463 162.172 19.08C162.239 19.0137 162.277 18.9245 162.28 18.8307V16.0262C162.277 15.9325 162.239 15.8433 162.172 15.777C162.106 15.7106 162.017 15.6722 161.923 15.6693H149.83V12.79H161.923C162.017 12.7871 162.106 12.7485 162.172 12.6822C162.239 12.6158 162.277 12.5267 162.28 12.4329V9.62854C162.277 9.53476 162.239 9.44561 162.172 9.37927C162.106 9.31293 162.017 9.27433 161.923 9.27144H149.83V6.42097L161.923 6.44403Z" fill="#2D2540"/>
<path d="M98.8033 24.8771C98.7456 24.8261 98.6997 24.763 98.6689 24.6924C98.6381 24.6218 98.6231 24.5453 98.6248 24.4683C98.6231 24.3913 98.6381 24.3147 98.6689 24.2441C98.6997 24.1734 98.7456 24.1104 98.8033 24.0593C98.9298 23.9473 99.0953 23.8894 99.264 23.8981C99.4314 23.8918 99.5953 23.9472 99.7247 24.0536C99.7807 24.1032 99.8253 24.1644 99.8551 24.2331C99.885 24.3017 99.8994 24.3762 99.8975 24.451C99.8987 24.5291 99.884 24.6066 99.8543 24.6789C99.8246 24.7512 99.7805 24.8167 99.7247 24.8714C99.5978 24.9834 99.4332 25.0431 99.264 25.0384C99.0953 25.0471 98.9298 24.9892 98.8033 24.8771ZM98.7515 25.5336H99.7765V29.0636H98.7515V25.5336Z" fill="#2D2540"/>
<path d="M108.27 25.8733C108.412 26.0282 108.52 26.2101 108.59 26.408C108.659 26.6059 108.687 26.8158 108.674 27.0251V29.0463H107.666V27.1805C107.686 26.9573 107.62 26.7349 107.482 26.5586C107.414 26.4872 107.331 26.4316 107.24 26.3958C107.148 26.3599 107.05 26.3446 106.952 26.3512C106.838 26.3445 106.724 26.3621 106.618 26.4028C106.512 26.4435 106.416 26.5065 106.335 26.5874C106.167 26.7857 106.085 27.0424 106.105 27.3015V29.029H105.08V25.5508H106.059V25.9654C106.199 25.8122 106.372 25.6939 106.566 25.62C106.777 25.5375 107.002 25.4963 107.228 25.4989C107.418 25.4898 107.608 25.5181 107.787 25.5823C107.965 25.6465 108.13 25.7455 108.27 25.8733Z" fill="#2D2540"/>
<path d="M114.265 29.006C114.027 28.9501 113.8 28.8569 113.591 28.7296L113.937 27.9982C114.116 28.1061 114.31 28.1875 114.513 28.24C114.726 28.3027 114.947 28.3357 115.169 28.338C115.601 28.338 115.82 28.2286 115.82 28.0155C115.82 27.9119 115.762 27.8427 115.641 27.7966C115.463 27.7414 115.28 27.7048 115.094 27.6872C114.853 27.6529 114.615 27.6029 114.38 27.5375C114.194 27.4789 114.025 27.3739 113.891 27.2323C113.744 27.062 113.669 26.8409 113.683 26.6162C113.683 26.4079 113.752 26.2055 113.879 26.0404C114.027 25.8517 114.227 25.7112 114.455 25.6372C114.735 25.5348 115.032 25.486 115.33 25.4932C115.582 25.4912 115.833 25.5183 116.079 25.5739C116.294 25.6138 116.5 25.6896 116.689 25.7984L116.35 26.5298C116.04 26.3524 115.688 26.261 115.33 26.2649C115.162 26.2537 114.994 26.2853 114.841 26.357C114.794 26.3771 114.754 26.4098 114.724 26.4514C114.695 26.4931 114.677 26.5422 114.674 26.5932C114.673 26.6463 114.69 26.6981 114.722 26.7401C114.755 26.7821 114.801 26.8115 114.852 26.8235C115.04 26.8843 115.233 26.9268 115.428 26.9501C115.668 26.9853 115.904 27.0373 116.137 27.1056C116.321 27.1578 116.489 27.2594 116.62 27.3993C116.755 27.5606 116.826 27.7652 116.822 27.9752C116.82 28.1831 116.751 28.3849 116.626 28.551C116.477 28.7363 116.277 28.8743 116.05 28.9483C115.761 29.0462 115.457 29.0929 115.152 29.0865C114.854 29.0971 114.556 29.0701 114.265 29.006Z" fill="#2D2540"/>
<path d="M124.038 28.8967C123.924 28.975 123.797 29.0316 123.663 29.0637C123.512 29.099 123.358 29.1163 123.202 29.1155C122.849 29.1389 122.501 29.0255 122.229 28.7987C122.108 28.6736 122.015 28.5244 121.955 28.3606C121.896 28.1969 121.871 28.0224 121.884 27.8486V26.3974H121.308V25.6086H121.884V24.7505H122.909V25.6086H123.79V26.3974H122.909V27.8371C122.904 27.8994 122.912 27.9622 122.931 28.0215C122.951 28.0809 122.983 28.1357 123.024 28.1826C123.066 28.2244 123.117 28.2567 123.172 28.2775C123.228 28.2984 123.287 28.3073 123.346 28.3035C123.496 28.3065 123.641 28.2599 123.761 28.1711L124.038 28.8967Z" fill="#2D2540"/>
<path d="M129.001 24.8772C128.946 24.8244 128.902 24.761 128.871 24.6908C128.84 24.6206 128.824 24.545 128.823 24.4684C128.824 24.3918 128.84 24.316 128.871 24.2458C128.902 24.1756 128.946 24.1122 129.001 24.0594C129.128 23.9479 129.293 23.8901 129.462 23.8981C129.63 23.8908 129.794 23.9463 129.923 24.0536C129.98 24.1029 130.025 24.1641 130.056 24.2327C130.087 24.3014 130.102 24.3759 130.101 24.4511C130.102 24.5296 130.086 24.6074 130.055 24.6797C130.025 24.752 129.98 24.8173 129.923 24.8714C129.796 24.9845 129.631 25.0444 129.462 25.0385C129.293 25.0465 129.128 24.9887 129.001 24.8772ZM128.949 25.5336H129.974V29.0637H128.973L128.949 25.5336Z" fill="#2D2540"/>
<path d="M137.541 28.8967C137.428 28.975 137.301 29.0316 137.167 29.0637C137.016 29.099 136.861 29.1163 136.706 29.1155C136.353 29.1389 136.005 29.0255 135.733 28.7987C135.612 28.6736 135.518 28.5244 135.459 28.3606C135.399 28.1969 135.375 28.0224 135.388 27.8486V26.3974H134.812V25.6086H135.388V24.7505H136.413V25.6086H137.288V26.3974H136.413V27.8371C136.408 27.8994 136.415 27.9622 136.435 28.0215C136.455 28.0809 136.486 28.1357 136.528 28.1826C136.57 28.2244 136.62 28.2567 136.676 28.2775C136.732 28.2984 136.791 28.3073 136.85 28.3035C136.999 28.3065 137.145 28.2599 137.265 28.1711L137.541 28.8967Z" fill="#2D2540"/>
<path d="M146.012 25.5509V29.0808H145.039V28.6605C144.908 28.8142 144.742 28.9346 144.555 29.0118C144.362 29.0933 144.154 29.1344 143.945 29.1327C143.743 29.1435 143.542 29.1139 143.352 29.0457C143.162 28.9775 142.988 28.8719 142.839 28.7354C142.695 28.5744 142.584 28.3857 142.515 28.1808C142.446 27.9759 142.419 27.759 142.436 27.5433V25.5509H143.455V27.3936C143.455 27.9695 143.697 28.2459 144.175 28.2459C144.282 28.2498 144.389 28.2308 144.488 28.1901C144.588 28.1493 144.677 28.0879 144.751 28.0098C144.914 27.8092 144.995 27.5537 144.976 27.2958V25.5682L146.012 25.5509Z" fill="#2D2540"/>
<path d="M153.579 28.8967C153.468 28.9749 153.343 29.0316 153.21 29.0637C153.057 29.0986 152.901 29.1159 152.744 29.1155C152.391 29.1389 152.042 29.0255 151.771 28.7987C151.649 28.6736 151.556 28.5244 151.497 28.3606C151.437 28.1969 151.413 28.0224 151.425 27.8486V26.3974H150.849V25.6086H151.425V24.7505H152.45V25.6086H153.331V26.3974H152.45V27.8371C152.443 27.9628 152.484 28.0866 152.565 28.1826C152.608 28.2244 152.658 28.2567 152.714 28.2775C152.769 28.2984 152.829 28.3073 152.888 28.3035C153.037 28.3065 153.183 28.2599 153.302 28.1711L153.579 28.8967Z" fill="#2D2540"/>
<path d="M159.061 28.8852C158.775 28.7386 158.536 28.5152 158.37 28.2401C158.2 27.9548 158.112 27.628 158.117 27.2958C158.113 26.9655 158.201 26.6406 158.37 26.3571C158.536 26.082 158.775 25.8588 159.061 25.7122C159.371 25.5539 159.715 25.4747 160.063 25.4818C160.409 25.4754 160.751 25.5546 161.059 25.7122C161.344 25.8609 161.582 26.0837 161.75 26.3571C161.918 26.6411 162.004 26.966 161.998 27.2958C162.005 27.6275 161.919 27.9543 161.75 28.2401C161.585 28.5152 161.345 28.7386 161.059 28.8852C160.751 29.0428 160.409 29.1219 160.063 29.1155C159.715 29.1226 159.371 29.0435 159.061 28.8852ZM160.708 28.0099C160.883 27.8142 160.974 27.5578 160.962 27.2958C160.973 27.0357 160.882 26.7814 160.708 26.5875C160.626 26.5001 160.525 26.4312 160.414 26.3855C160.303 26.3398 160.183 26.3185 160.063 26.3226C159.942 26.3184 159.822 26.3397 159.709 26.3853C159.597 26.431 159.496 26.4999 159.412 26.5875C159.324 26.6824 159.256 26.7939 159.211 26.9155C159.167 27.0371 159.147 27.1664 159.153 27.2958C159.147 27.4261 159.166 27.5563 159.211 27.6789C159.255 27.8015 159.324 27.9141 159.412 28.0099C159.496 28.0974 159.597 28.1662 159.709 28.2119C159.822 28.2575 159.942 28.279 160.063 28.2747C160.183 28.2789 160.303 28.2574 160.414 28.2117C160.525 28.1661 160.626 28.0973 160.708 28.0099Z" fill="#2D2540"/>
</svg>
