<svg width="139" height="43" viewBox="0 0 139 43" fill="none" xmlns="http://www.w3.org/2000/svg">
<path d="M45.7701 0H32.8403V11.9243H45.7701V0Z" fill="#FDC300"/>
<path fill-rule="evenodd" clip-rule="evenodd" d="M32.7838 14.9053H46.7593L61.6674 29.8248H41.7852L32.7838 14.9053Z" fill="#009A3F"/>
<path d="M28.8272 0H15.8974V11.9243H28.8272V0Z" fill="#E63312"/>
<path fill-rule="evenodd" clip-rule="evenodd" d="M28.8978 14.9053H14.9081L0 29.8248H19.8822L28.8978 14.9053Z" fill="#007BC4"/>
<path d="M131.7 30.1638C136.533 30.1638 138.568 28.4119 138.568 23.3681V14.8912H133.65V24.5267C133.65 25.7134 133.128 26.6741 131.7 26.6741C130.273 26.6741 129.75 25.7134 129.75 24.5267V14.9053H124.833V23.3823C124.833 28.4261 126.868 30.178 131.7 30.178V30.1638ZM93.9566 26.4905H88.5445L87.3151 29.8813H82.2421L87.1314 16.855C87.3033 16.23 87.6956 15.6882 88.2359 15.3299C88.7761 14.9715 89.4278 14.8207 90.0706 14.9053H92.4446C93.0804 14.8162 93.7269 14.9603 94.2647 15.3109C94.8024 15.6615 95.1949 16.195 95.3697 16.8126L100.273 29.8389H95.2002L93.9566 26.4905ZM89.3075 23.4388H93.2077L91.7098 18.4939C91.7098 18.2961 91.5544 18.1972 91.2576 18.1972C90.9609 18.1972 90.8619 18.2961 90.8054 18.4939L89.3075 23.4388ZM83.966 14.9618V18.3102H79.7268V29.8954H74.7951V18.3102H70.5558V14.9053L83.966 14.9618ZM63.9142 14.9618H68.8601V29.8389H63.9142V14.9618ZM118.121 20.2317C118.121 21.263 117.767 22.2661 115.619 22.2661H114.065V18.0135H115.619C117.767 18.0135 118.121 19.0166 118.121 20.048V20.2317ZM114.093 25.5439H116.722C121.046 25.5439 122.982 23.792 122.982 20.274C122.982 16.7561 121.046 14.9618 116.722 14.9618H109.147V29.8389H114.093V25.5439ZM101.531 14.9618H106.463V29.8389H101.531V14.9618Z" fill="#1D1D1B"/>
<path d="M74.5832 39.5168C74.5832 41.1699 73.5799 41.9893 71.5591 41.9893H68.6199V33.6677H71.5591C73.3114 33.6677 74.2016 34.3883 74.2016 35.8152C74.2247 36.1553 74.1473 36.4947 73.979 36.7911C73.8106 37.0876 73.5588 37.328 73.2549 37.4824C73.1516 37.4951 73.0472 37.4951 72.944 37.4824C73.0471 37.4677 73.1518 37.4677 73.2549 37.4824C73.6634 37.6012 74.0185 37.8572 74.2605 38.2071C74.5024 38.5571 74.6164 38.9797 74.5832 39.4038V39.5168ZM73.269 35.7022C73.2932 35.4945 73.2614 35.2841 73.1769 35.0929C73.0925 34.9016 72.9583 34.7364 72.7885 34.6143C72.4078 34.425 71.9831 34.342 71.5591 34.3742H69.5384V37.0868H71.6863C72.7603 37.1998 73.269 36.7477 73.269 35.8152V35.7022ZM73.6788 39.4038C73.6788 38.4148 73.0146 37.9062 71.6863 37.9062H69.5384V41.184H71.5591C72.1324 41.2378 72.7077 41.1039 73.1983 40.8025C73.3742 40.6413 73.5094 40.4408 73.5929 40.2173C73.6764 39.9939 73.7058 39.7539 73.6788 39.5168V39.4038ZM77.0985 41.8763H76.2082V33.6677H77.0985V41.8763ZM85.6901 41.8763H84.8281L79.8257 35.0806C79.8791 35.245 79.9077 35.4164 79.9105 35.5892V42.0317H79.0062V33.6677H79.8257L84.8564 40.6189C84.8213 40.4702 84.7977 40.319 84.7857 40.1667V33.6677H85.6901V41.8763ZM94.1686 41.8763H93.2077L92.2469 39.2908H88.8271L87.8663 41.8763H86.8912L89.9717 33.5547H91.1305L94.1686 41.8763ZM91.936 38.4572L90.7914 35.3066C90.6878 35.0348 90.6028 34.7563 90.537 34.4731C90.4795 34.7569 90.3992 35.0357 90.2968 35.3066L89.138 38.4572H91.936ZM101.291 40.3928C101.052 40.9302 100.651 41.3796 100.144 41.6785C99.6377 41.9773 99.0505 42.1107 98.4645 42.0599C97.9374 42.1085 97.4069 42.018 96.9258 41.7973C96.4447 41.5767 96.03 41.2336 95.7231 40.8025C95.2066 39.8569 94.9712 38.7834 95.0448 37.7084C94.9647 36.5963 95.2154 35.4854 95.7654 34.5154C96.0736 34.1218 96.4759 33.812 96.9352 33.6145C97.3945 33.417 97.8961 33.3381 98.3938 33.3852C99.1809 33.3343 99.9567 33.5928 100.556 34.1057C100.954 34.4746 101.2 34.9781 101.248 35.5185H100.415C100.283 34.5767 99.6044 34.1057 98.3797 34.1057C97.9839 34.0597 97.5833 34.1301 97.2269 34.3083C96.8705 34.4865 96.5738 34.7647 96.3731 35.1088C96.0106 35.9546 95.8603 36.8761 95.935 37.7932C95.8835 38.6331 96.0237 39.4737 96.3448 40.2515C96.5848 40.6035 96.9113 40.8879 97.2929 41.0775C97.6744 41.2671 98.0983 41.3555 98.5239 41.3342C98.9494 41.313 99.3624 41.1827 99.7232 40.956C100.084 40.7293 100.38 40.4138 100.584 40.0396L101.291 40.3928ZM103.877 41.8056H102.972V33.6677H103.848L103.877 41.8056ZM112.355 37.5671C112.434 38.6757 112.194 39.7837 111.663 40.7601C111.351 41.1888 110.933 41.5288 110.45 41.7468C109.967 41.9648 109.435 42.0533 108.907 42.0034C108.381 42.055 107.851 41.9673 107.37 41.749C106.889 41.5308 106.473 41.1897 106.166 40.7601C105.643 39.7809 105.408 38.6741 105.488 37.5671C105.419 36.5197 105.655 35.4748 106.166 34.5578C106.505 34.1706 106.937 33.8755 107.422 33.7001C107.906 33.5247 108.427 33.4747 108.935 33.5547C109.461 33.5088 109.99 33.5976 110.472 33.8126C110.954 34.0277 111.374 34.3619 111.691 34.7839C112.194 35.7026 112.416 36.7494 112.327 37.7932L112.355 37.5671ZM111.437 37.5671C111.497 36.6922 111.316 35.8174 110.914 35.0382C110.664 34.7532 110.357 34.5248 110.012 34.3683C109.667 34.2118 109.293 34.1309 108.914 34.1309C108.536 34.1309 108.161 34.2118 107.816 34.3683C107.472 34.5248 107.164 34.7532 106.915 35.0382C106.522 35.8202 106.351 36.6948 106.42 37.5671C106.349 38.4988 106.52 39.433 106.915 40.2798C107.135 40.5952 107.437 40.8455 107.787 41.0046C108.138 41.1636 108.525 41.2256 108.907 41.184C109.292 41.2237 109.68 41.161 110.032 41.0022C110.385 40.8434 110.689 40.5941 110.914 40.2798C111.294 39.5069 111.483 38.6542 111.465 37.7932L111.437 37.5671ZM120.707 41.8056H119.859L114.842 34.8969C114.896 35.0613 114.924 35.2327 114.927 35.4055V42.0317H114.037V33.6677H114.885L119.901 40.6189C119.866 40.4702 119.842 40.319 119.83 40.1667V33.6677H120.805L120.707 41.8056ZM129.185 41.8056H128.224L127.263 39.2202H123.844L122.883 41.8056H121.964L125.045 33.6677H126.119L129.185 41.8056ZM126.967 38.3866L125.808 35.236C125.709 34.9638 125.629 34.6853 125.568 34.4024C125.504 34.6846 125.423 34.963 125.327 35.236L124.155 38.3866H126.967ZM135.12 41.8056H130.415V33.6677H131.319V41.184H135.12V41.8056Z" fill="#1D1D1B"/>
</svg>
