<svg width="570" height="319" viewBox="0 0 570 319" fill="none" xmlns="http://www.w3.org/2000/svg">
<path d="M206.041 240.42V223.06L208.581 222.916V240.333L241.61 240.42L241.754 183.431L212.39 184.037L212.549 209.903L186.244 183.431V240.261L206.041 240.42Z" fill="#5287DD"/>
<path d="M31.8751 240.593L31.803 222.208H41.2977L41.2255 205.152L59.0029 205.08V183.474L3.18897 183.315L3.04468 240.521L31.8751 240.593Z" fill="#5287DD"/>
<path d="M370.871 161.782L426.31 161.71V142.646L401.058 142.718L401.13 140.48L421.158 140.696L421.303 125.59L400.163 125.445L400.235 123.495L413.078 123.654L413.236 104.721H370.943L370.871 161.782Z" fill="#5287DD"/>
<path d="M305.937 240.449L361.376 240.376V221.313L336.124 221.385L336.196 219.146L356.225 219.363L356.369 204.256L335.23 204.112L335.302 202.162L348.159 202.307L348.303 183.387H306.01L305.937 240.449Z" fill="#5287DD"/>
<path d="M316.702 153.405C319.549 156.308 322.944 158.615 326.689 160.194C330.434 161.774 334.456 162.593 338.52 162.605C358.923 163.284 365.041 142.184 365.647 138.819C364.328 138.099 362.921 137.55 361.463 137.187L339.645 130.226L364.666 117.661C364.594 117.661 363.627 115.942 363.108 115.264C362.692 114.64 362.239 114.042 361.751 113.473C360.586 111.96 359.233 110.601 357.725 109.429C353.757 105.919 347.264 102.93 338 102.93C319.4 103.161 308.491 117.141 308.708 133.143C308.863 140.637 311.7 147.827 316.702 153.405Z" fill="#5287DD"/>
<path d="M124.672 161.941H152.55L152.622 104.649L124.6 104.576L124.672 161.941Z" fill="#5287DD"/>
<path d="M62.1485 122.225H75.7412L75.5969 124.391H62.1485L61.8455 161.479L87.1695 161.638L87.3282 147.051H89.2618L89.334 161.623H119.449L106.462 133.143L107.587 132.768C109.731 131.931 111.691 130.685 113.359 129.099C114.627 127.884 115.632 126.421 116.312 124.801C116.992 123.182 117.333 121.44 117.313 119.683C117.473 116.028 116.31 112.439 114.038 109.573C113.086 108.295 111.873 107.234 110.48 106.462C109.086 105.69 107.544 105.224 105.957 105.096H62.0763L62.1485 122.225Z" fill="#5287DD"/>
<path d="M400.019 200.964H413.611L413.467 203.13H400.019L399.716 240.232L425.04 240.376L425.198 225.79H427.132L427.204 240.376L457.319 240.304L444.332 211.81L445.458 211.434C447.601 210.598 449.561 209.352 451.23 207.766C452.497 206.551 453.502 205.088 454.182 203.468C454.862 201.848 455.203 200.106 455.183 198.35C455.343 194.695 454.18 191.105 451.908 188.24C450.956 186.961 449.744 185.901 448.35 185.129C446.957 184.357 445.415 183.891 443.827 183.763H399.947L400.019 200.964Z" fill="#5287DD"/>
<path d="M64.5727 200.964H78.1654L78.0211 203.13H64.5727L64.2697 240.218L89.6081 240.376L89.7524 225.79H91.7004L91.7726 240.376L121.873 240.29L108.958 211.81L110.069 211.434C112.213 210.598 114.173 209.352 115.841 207.766C117.111 206.552 118.119 205.09 118.802 203.47C119.484 201.85 119.827 200.107 119.809 198.35C119.964 194.693 118.796 191.104 116.519 188.24C115.571 186.962 114.361 185.901 112.97 185.129C111.579 184.357 110.039 183.891 108.453 183.763H64.4428L64.5727 200.964Z" fill="#5287DD"/>
<path d="M3.04471 128.579H14.6894L14.8482 161.565H44.2846L44.732 128.81H56.6797L56.7663 104.807L2.88599 104.879L3.04471 128.579Z" fill="#5287DD"/>
<path d="M247.064 207.318H258.724L258.868 240.304H288.304L288.752 207.549H300.714L300.786 183.546L246.92 183.619L247.064 207.318Z" fill="#5287DD"/>
<path d="M400.538 51.5443L421.158 51.4721V53.4363C421.158 53.6529 414.203 53.7251 400.38 53.6529L400.538 82.9706C425.718 82.9706 439.498 83.115 441.85 82.9706C444.549 82.9706 447.911 81.3964 451.273 78.3346C456.352 74.002 460.897 65.7699 461.2 54.7794C461.2 45.8108 459.036 38.2575 455.818 34.2858C454.352 32.3296 452.59 30.6143 450.595 29.2022C446.713 26.5159 443.726 25.8372 441.331 25.9094C438.113 25.9094 424.52 25.9094 400.538 25.9094V51.5443Z" fill="#5287DD"/>
<path d="M357.422 62.4772L360.337 62.3327L360.857 82.2919H395.228L368.548 25.1584L350.467 25.3895L322.229 82.0753L357.798 82.2919L357.422 62.4772Z" fill="#5287DD"/>
<path d="M497.895 219.955L500.795 219.811L501.329 239.784H535.701L509.02 182.651L490.94 182.868L462.701 239.553L498.27 239.784L497.895 219.955Z" fill="#5287DD"/>
<path d="M295.101 18.6594L300.108 23.743L316.024 11.5538L308.405 3.24951L295.101 18.6594Z" fill="#5287DD"/>
<path d="M288.91 83.115H316.774L316.846 25.8371L288.824 25.7649L288.91 83.115Z" fill="#5287DD"/>
<path d="M275.375 161.941H303.254L303.326 104.649L275.303 104.576L275.375 161.941Z" fill="#5287DD"/>
<path d="M366.686 240.608H394.55L394.636 183.315L366.614 183.243L366.686 240.608Z" fill="#5287DD"/>
<path d="M226.3 45.0886H239.373L239.301 47.4139H226.156L226.517 82.7828L255.376 82.8551V60.9461H271.667C274.726 60.9461 277.439 59.2276 279.878 55.8625C282.481 52.0376 283.818 47.4911 283.701 42.8645C283.701 32.235 275.996 26.1116 270.325 26.1116L226.315 26.3282L226.3 45.0886Z" fill="#5287DD"/>
<path d="M158.12 123.828H171.193V126.153H158.048L158.423 161.522H187.282V139.613H203.574C206.647 139.613 209.345 137.895 211.798 134.53C214.405 130.707 215.739 126.158 215.608 121.532C215.608 110.916 207.917 104.779 202.232 104.779L158.221 105.01L158.12 123.828Z" fill="#5287DD"/>
<path d="M176.301 82.8984L176.532 64.3401H178.552L178.322 82.9706L194.468 82.8984V64.4267L196.561 64.499L196.402 83.0428L220.759 83.115L220.831 25.7649L187.744 39.1384L154.339 25.9093V82.8984H176.301Z" fill="#5287DD"/>
<path d="M121.238 83.115H149.116L149.188 25.8371L121.166 25.7649L121.238 83.115Z" fill="#5287DD"/>
<path d="M66.4774 82.8985L115.711 83.1151L115.928 57.6246L90.8347 57.5379L91.2098 25.9094L66.4774 25.9816V82.8985Z" fill="#5287DD"/>
<path d="M220.615 161.522L269.849 161.753L270.08 136.248L244.972 136.176L245.347 104.533L220.615 104.62V161.522Z" fill="#5287DD"/>
<path d="M6.92628 39.5139C4.32623 43.9303 2.98385 48.9749 3.04471 54.1006C2.99256 59.248 4.33388 64.3135 6.92628 68.7594C9.49012 73.1521 13.1432 76.8083 17.5321 79.3744C21.9812 81.9202 27.0172 83.2594 32.1421 83.2594C37.267 83.2594 42.303 81.9202 46.7521 79.3744C51.1443 76.8125 54.7982 73.1554 57.3579 68.7594C59.9503 64.3135 61.2916 59.248 61.2395 54.1006C61.3003 48.9749 59.958 43.9303 57.3579 39.5139C54.8192 35.1018 51.1603 31.4398 46.7521 28.8989C42.303 26.3531 37.267 25.0139 32.1421 25.0139C27.0172 25.0139 21.9812 26.3531 17.5321 28.8989C13.1272 31.4442 9.46939 35.1052 6.92628 39.5139Z" fill="#5287DD"/>
<path d="M491.907 62.4772L494.822 62.3327L495.355 82.2919H529.727L503.046 25.1584L484.966 25.3895L456.727 82.0753L492.282 82.2919L491.907 62.4772Z" fill="#5287DD"/>
<path d="M130.877 97.3985L135.884 102.482L151.8 90.2929L144.181 81.9886L130.877 97.3985Z" fill="#5287DD"/>
<path d="M126.591 197.007C123.987 201.416 122.639 206.456 122.695 211.579C122.647 216.728 123.993 221.793 126.591 226.238C129.151 230.638 132.804 234.3 137.197 236.867C141.646 239.413 146.682 240.752 151.807 240.752C156.932 240.752 161.968 239.413 166.417 236.867C170.807 234.296 174.46 230.635 177.023 226.238C179.617 221.792 180.958 216.726 180.905 211.579C180.966 206.458 179.623 201.418 177.023 197.007C174.48 192.594 170.823 188.928 166.417 186.377C161.968 183.831 156.932 182.492 151.807 182.492C146.682 182.492 141.646 183.831 137.197 186.377C132.787 188.922 129.128 192.589 126.591 197.007Z" fill="#5287DD"/>
<path d="M29.9704 22.1256C35.2399 22.0486 40.4298 23.4171 44.9772 26.0828C47.9249 27.9076 50.5728 30.1778 52.827 32.8128C55.5068 35.0696 57.8022 37.7476 59.6234 40.7417C62.2191 45.3108 63.5839 50.4767 63.5839 55.7327C63.5839 60.9888 62.2191 66.1546 59.6234 70.7237C57.0056 75.2569 53.2437 79.0221 48.7145 81.6421C44.1494 84.2401 38.9881 85.606 33.7366 85.606C28.4851 85.606 23.3237 84.2401 18.7586 81.6421C15.7608 79.8872 13.0821 77.636 10.8367 74.9843C5.46324 70.4336 1.84948 64.145 0.621413 57.208C-0.606657 50.271 0.628348 43.1226 4.11248 37.0011C6.81946 32.5373 10.5614 28.7921 15.0213 26.0828C19.5536 23.4314 24.721 22.0635 29.9704 22.1256ZM4.79068 37.3766C2.15821 41.7933 0.790389 46.8496 0.836946 51.9922C0.788454 57.141 2.13483 62.2069 4.73295 66.6511C7.2922 71.0511 10.946 74.7131 15.3387 77.2805C19.7878 79.8263 24.8239 81.1654 29.9488 81.1654C35.0736 81.1654 40.1097 79.8263 44.5588 77.2805C48.9487 74.7094 52.6017 71.0483 55.1646 66.6511C57.7583 62.2057 59.0997 57.1398 59.0462 51.9922C59.1073 46.871 57.7648 41.8309 55.1646 37.4199C52.6258 33.0079 48.967 29.3459 44.5588 26.8049C40.113 24.2493 35.0756 22.9045 29.9488 22.9045C24.8219 22.9045 19.7846 24.2493 15.3387 26.8049C10.9543 29.3382 7.31571 32.9849 4.79068 37.3766Z" fill="#2B2B2B"/>
<path d="M63.5914 23.1077H89.8101V26.8482H93.6195L93.2443 54.7362C100.344 54.7362 107.587 54.7362 114.615 54.7362L114.543 58.4767H118.352L118.135 85.4693L67.4009 85.2526V81.512H63.6636L63.5914 23.1077ZM64.3418 80.7611L113.576 80.9921L113.792 55.4871H88.699L89.0742 23.8442L64.3418 23.9309V80.7611Z" fill="#2B2B2B"/>
<path d="M118.28 22.9487L147.788 23.0209V26.7615H151.526L151.454 85.5269H122.046V81.8008H118.309L118.28 22.9487ZM119.102 81.0498H146.98L147.053 23.7575L119.03 23.6853L119.102 81.0498Z" fill="#2B2B2B"/>
<path d="M155.234 85.2092V81.4687H151.497V22.6888L185.536 36.25C196.445 31.8451 208.48 26.8337 219.388 22.4866V27.7291L223.126 26.2849V85.4979L197.268 85.4258V81.6853H196.82V85.2092H179.187V81.4687H178.668V85.2092H155.234ZM174.209 80.7176L174.44 62.1739H176.46L176.229 80.7898H192.362V62.3183L194.454 62.3904L194.31 80.9343L218.667 81.0209L218.739 23.6564L185.536 37.001L152.146 23.7575V80.7466L174.209 80.7176Z" fill="#2B2B2B"/>
<path d="M223.414 23.3099L268.146 23.0933C270.271 23.2538 272.332 23.8964 274.172 24.9724C276.012 26.0484 277.583 27.5294 278.766 29.3034C281.084 31.0451 282.949 33.3186 284.204 35.9326C285.46 38.5466 286.069 41.4243 285.981 44.3234C286.12 49.118 284.73 53.8323 282.013 57.7835C279.401 61.3074 276.487 63.0982 273.197 63.1704H257.656V85.2093L227.354 85.1226L227.281 81.3821H223.631L223.256 44.5256H227.152V43.6302H223.414V23.3099ZM224.15 42.8358L237.238 42.908L237.151 45.2332H224.006L224.381 80.6023H253.24V58.6934H269.517C272.591 58.6067 275.289 56.9603 277.742 53.5952C280.349 49.7728 281.682 45.2235 281.551 40.5972C281.551 29.9822 273.86 23.8587 268.175 23.8587L224.165 24.0753L224.15 42.8358Z" fill="#2B2B2B"/>
<path d="M285.952 22.9487L298.347 23.0209L297.9 22.5732L291.926 16.5075L306.197 0L309.776 3.88496L309.934 3.74058L318.751 13.229L305.966 23.0354H315.403V26.7759H319.141L319.068 85.5413H289.762V81.8153H286.025L285.952 22.9487ZM286.775 81.0498H314.638V23.7575L286.616 23.6853L286.775 81.0498ZM292.965 16.5075L297.972 21.5912L313.845 9.40191L306.226 1.11208L292.965 16.5075Z" fill="#2B2B2B"/>
<path d="M366.859 22.27L368.577 26.0828H370.597L398.013 84.7038H361.708L361.578 80.8766H360.135L360.207 84.6171L322.69 84.4004L324.48 80.7322L318.953 80.6599L347.942 22.4722L366.859 22.27ZM355.316 60.3253L358.202 60.181L358.721 80.1545H393.092L366.412 23.021L348.332 23.2377L320.093 79.9234L355.662 80.1545L355.316 60.3253Z" fill="#2B2B2B"/>
<path d="M397.494 23.1077C421.49 23.1077 435.833 23.1077 439.036 23.1077C442.572 23.1278 445.998 24.3386 448.762 26.5449C450.55 27.8465 452.156 29.3812 453.538 31.1086C455.143 32.3815 456.595 33.8354 457.867 35.4413C461.013 39.5573 463.48 47.4139 463.394 56.3825C463.105 67.2286 458.17 75.9807 453.163 80.5444C450.523 83.1818 447.081 84.8637 443.38 85.3247C442.254 85.3247 439.643 85.3247 435.977 85.3247C431.937 85.3247 426.266 85.3247 419.095 85.3247C414.766 85.3247 406.238 85.3247 401.231 85.3247V81.5842H397.494L397.349 50.7646H401.231V50.1724H397.494V23.1077ZM398.244 49.3492H418.864V51.2989C418.864 51.5156 411.923 51.5877 398.1 51.5155L398.244 80.8332C423.424 80.8332 437.204 80.9776 439.57 80.8332C442.254 80.8332 445.616 79.2591 448.979 76.1973C454.058 71.8647 458.618 63.6326 458.921 52.642C458.993 43.6734 456.756 36.1201 453.538 32.1485C452.055 30.2021 450.29 28.4886 448.3 27.0648C444.419 24.3786 441.432 23.6998 439.036 23.772C435.833 23.772 422.226 23.772 398.244 23.8587V49.3492Z" fill="#2B2B2B"/>
<path d="M0 101.977H55.3666V105.717H59.1039V131.222H47.0118L46.5645 163.977H15.6995V160.237H11.9622L11.8035 130.991H3.896L3.80943 127.25H0.158727L0 101.977ZM0.894631 126.442H12.5538L12.7125 159.413H42.149L42.5963 126.658H54.5441L54.6162 102.655L0.750348 102.728L0.894631 126.442Z" fill="#2B2B2B"/>
<path d="M59.176 101.977H103.908C105.611 102.103 107.267 102.597 108.762 103.425C110.256 104.252 111.554 105.394 112.566 106.771L113.172 107.595C114.356 108.393 115.412 109.367 116.303 110.483C118.717 113.477 119.944 117.256 119.752 121.098C119.786 122.968 119.432 124.824 118.712 126.55C117.992 128.275 116.921 129.832 115.567 131.121C113.775 132.796 111.665 134.092 109.362 134.934C109.218 134.934 109.131 135.078 109.059 135.078C113.172 144.206 118.107 154.749 122.133 163.804H90.1564V160.063H89.5648V163.876L62.7401 163.732V159.991H59.0028L59.2914 121.401H63.0287V120.723H59.2914L59.176 101.977ZM59.9985 120.073H73.6056L73.4469 122.254H59.9985L59.7099 159.341L85.0339 159.486L85.1782 144.913L87.1262 144.827V159.413L117.241 159.341L104.254 130.847L105.38 130.471C107.523 129.641 109.484 128.4 111.152 126.817C112.424 125.602 113.433 124.138 114.116 122.515C114.799 120.893 115.14 119.147 115.12 117.386C115.279 113.729 114.111 110.138 111.83 107.277C110.882 105.997 109.672 104.934 108.281 104.159C106.89 103.385 105.35 102.916 103.764 102.785H59.9985V120.073Z" fill="#2B2B2B"/>
<path d="M155.234 102.063L199.966 101.832C202.089 101.993 204.148 102.635 205.985 103.711C207.823 104.788 209.392 106.269 210.572 108.042C212.889 109.787 214.754 112.063 216.01 114.68C217.265 117.296 217.875 120.176 217.787 123.077C217.926 127.869 216.541 132.582 213.833 136.537C211.207 140.046 208.292 141.837 205.016 141.909L189.476 141.996V163.905H159.173L159.101 160.164H155.451L155.075 123.293H158.957V122.398H155.234V102.063ZM155.985 121.575H169.058L168.986 123.9H155.826L156.201 159.269L185.06 159.341V137.432H201.351C204.41 137.36 207.123 135.714 209.562 132.349C212.166 128.525 213.499 123.976 213.371 119.351C213.371 108.721 205.68 102.598 200.009 102.598L155.999 102.814L155.985 121.575Z" fill="#2B2B2B"/>
<path d="M217.729 101.832H243.948L243.876 105.573H247.685L247.31 133.461C254.409 133.461 261.667 133.533 268.68 133.533L268.608 137.273H272.417L272.201 164.266L221.466 164.049V160.309H217.729V101.832ZM218.479 159.486L267.713 159.717L267.944 134.212H242.837L243.255 102.54H218.523L218.479 159.486Z" fill="#2B2B2B"/>
<path d="M272.417 101.688H301.94V105.428H305.663L305.591 164.208H276.227V160.468H272.49L272.417 101.688ZM273.24 159.789H301.118V102.511L273.096 102.424L273.24 159.789Z" fill="#2B2B2B"/>
<path d="M335.85 100.041C345.201 100.041 351.925 103.103 356.052 106.699C357.526 107.881 358.879 109.207 360.092 110.656C361.519 111.838 362.819 113.164 363.974 114.614C364.496 115.207 364.978 115.834 365.417 116.491C365.801 116.989 366.148 117.516 366.455 118.065C366.758 118.513 367.422 119.509 367.422 119.509L346.355 130.052C350.77 131.497 355.244 132.941 359.587 134.385C362.877 135.512 364.594 135.959 364.291 136.855L363.916 138.299C366.802 139.266 368.245 139.743 368.028 140.537C367.061 145.101 360.337 165.595 340.165 164.916C336.001 164.911 331.88 164.076 328.042 162.459C324.204 160.842 320.727 158.476 317.813 155.5L316.702 154.301C315.771 153.513 314.894 152.664 314.076 151.759C308.947 146.029 306.035 138.653 305.865 130.962C305.591 114.614 316.846 100.258 335.85 100.041ZM314.566 151.268C317.415 154.168 320.81 156.475 324.555 158.054C328.3 159.633 332.32 160.453 336.384 160.468C356.773 161.132 362.906 140.046 363.497 136.681C362.182 135.948 360.775 135.394 359.313 135.035L337.495 128.088L362.531 115.523C362.458 115.523 361.477 113.805 360.958 113.126C360.553 112.498 360.105 111.9 359.616 111.335C358.445 109.822 357.087 108.464 355.575 107.291C351.622 103.782 345.114 100.792 335.85 100.792C317.25 101.009 306.342 114.989 306.572 130.991C306.721 138.491 309.558 145.688 314.566 151.268Z" fill="#2B2B2B"/>
<path d="M368.057 101.832H411.837L411.764 105.573H415.574L415.43 122.701H419.917L419.831 126.442H423.626L423.467 139.743H424.91V143.483H428.633V164.049L371.708 164.122V160.381H367.97L368.057 101.832ZM368.735 159.601L424.174 159.514V140.451H398.922L398.994 138.212L419.008 138.429L419.167 123.322L398.027 123.178L398.1 121.242L410.942 121.387L411.101 102.468H368.793L368.735 159.601Z" fill="#2B2B2B"/>
<path d="M3.89597 242.861V239.134H0.158691L0.302997 180.427L57.6031 180.571V184.312H61.3404V207.419L43.5631 207.492C43.5631 213.023 43.5631 219.045 43.5631 224.548H34.0828C34.0828 230.527 34.0828 237.04 34.0828 242.947L3.89597 242.861ZM29.7395 238.456L29.6673 220.056H39.162L39.0755 203.014L56.8672 202.928V181.264L1.05332 181.12L0.894596 238.326L29.7395 238.456Z" fill="#2B2B2B"/>
<path d="M61.4415 180.73H106.173C107.876 180.854 109.531 181.345 111.026 182.17C112.52 182.996 113.819 184.135 114.831 185.51L115.423 186.334C116.611 187.131 117.672 188.105 118.568 189.222C120.978 192.218 122.201 195.997 122.003 199.837C122.041 201.707 121.689 203.565 120.968 205.291C120.247 207.017 119.175 208.573 117.818 209.86C116.031 211.541 113.919 212.838 111.613 213.673C111.469 213.673 111.397 213.817 111.325 213.817C115.423 222.945 120.358 233.487 124.398 242.543H92.4219L92.3498 238.802H91.7437V242.615L64.919 242.471V238.73H61.1818L61.4848 200.14H65.222V199.462H61.4848L61.4415 180.73ZM62.264 198.826H75.8711L75.7268 200.993H62.2784L61.9754 238.08L87.2994 238.225L87.4581 223.652H89.3917L89.4783 238.225L119.579 238.152L106.592 209.658L107.717 209.282C109.86 208.452 111.821 207.21 113.489 205.628C114.757 204.41 115.762 202.945 116.442 201.323C117.122 199.701 117.463 197.957 117.443 196.198C117.611 192.542 116.447 188.95 114.167 186.088C113.217 184.808 112.004 183.745 110.611 182.97C109.218 182.196 107.675 181.727 106.087 181.597H62.2495L62.264 198.826Z" fill="#2B2B2B"/>
<path d="M187.095 242.63V238.889H183.358V179.517L187.095 183.258L209.663 205.917C209.663 197.83 209.519 189.092 209.519 181.163L240.369 180.528V184.341L244.106 184.268L243.962 242.745H209.432V239.005H208.393V242.817L187.095 242.63ZM203.905 238.297V220.966L206.445 220.822V238.297L239.474 238.384L239.619 181.394L210.254 181.987L210.413 207.867L184.093 181.322V238.153L203.905 238.297Z" fill="#2B2B2B"/>
<path d="M244.034 180.73L299.401 180.643V184.384H303.124L303.051 209.889H291.104L290.656 242.644H259.719V238.903H255.982L255.838 209.658H247.916L247.844 205.932H244.178L244.034 180.73ZM244.929 205.181H256.588L256.732 238.152H286.169L286.616 205.397H298.578L298.65 181.394L244.785 181.467L244.929 205.181Z" fill="#2B2B2B"/>
<path d="M303.138 180.528H346.918V184.268H350.727L350.568 201.397H355.056L354.984 205.138H358.692L358.548 218.439H359.991V222.179H363.728V242.745L306.789 242.817V239.091H303.052L303.138 180.528ZM303.802 238.297H359.241V219.233H333.989L334.061 216.995L354.089 217.226L354.233 202.119L333.094 201.96L333.166 200.025L346.023 200.169L346.167 181.25H303.86L303.802 238.297Z" fill="#2B2B2B"/>
<path d="M363.728 180.427H393.237V184.167H396.974V242.947H367.538V239.207H363.8L363.728 180.427ZM364.551 238.528H392.414L392.487 181.25H364.479L364.551 238.528Z" fill="#2B2B2B"/>
<path d="M397.046 180.73H441.778C443.481 180.851 445.138 181.341 446.633 182.167C448.128 182.992 449.425 184.133 450.436 185.51L451.042 186.334C452.226 187.132 453.282 188.106 454.173 189.222C456.587 192.216 457.814 195.995 457.622 199.837C457.657 201.707 457.303 203.563 456.582 205.289C455.862 207.014 454.791 208.571 453.437 209.86C451.646 211.535 449.535 212.831 447.233 213.673C447.088 213.673 447.002 213.817 446.93 213.817C451.042 222.945 455.977 233.488 460.003 242.543H428.027L427.955 238.802H427.363V242.615L400.538 242.63V238.889H396.801L397.089 200.299H400.827V199.62H397.089L397.046 180.73ZM397.869 198.826H411.476L411.317 200.993H397.869L397.58 238.08L422.904 238.225L423.048 223.652H424.996L425.069 238.225L455.183 238.152L442.197 209.658L443.322 209.282C445.466 208.453 447.426 207.211 449.094 205.629C450.367 204.413 451.376 202.949 452.059 201.326C452.741 199.704 453.083 197.958 453.062 196.198C453.218 192.541 452.05 188.951 449.772 186.088C448.825 184.808 447.615 183.745 446.224 182.97C444.833 182.196 443.292 181.728 441.706 181.597H397.797L397.869 198.826Z" fill="#2B2B2B"/>
<path d="M507.318 179.748L509.035 183.561H511.055L538.471 242.196H502.181L502.022 238.456H500.579L500.651 242.196L463.134 241.965L464.923 238.297H459.397L488.386 180.124L507.318 179.748ZM495.774 217.818L498.66 217.659L499.194 237.633H533.551L506.885 180.528L488.804 180.759L460.566 237.43L496.12 237.662L495.774 217.818Z" fill="#2B2B2B"/>
<path d="M290.339 265.737C290.361 265.979 290.321 266.222 290.224 266.445L289.978 267.08C289.906 267.268 289.834 267.485 289.762 267.716C289.709 267.973 289.709 268.238 289.762 268.496C289.401 268.958 289.055 269.405 288.694 269.839C288.326 270.281 288.011 270.766 287.756 271.283C287.634 271.266 287.509 271.28 287.394 271.322C287.278 271.365 287.174 271.436 287.092 271.528C286.939 271.729 286.83 271.961 286.775 272.207C286.229 272.426 285.736 272.761 285.332 273.189C284.923 273.597 284.565 274.053 284.264 274.547C282.87 275.239 281.551 276.072 280.325 277.031C279.108 277.997 278.012 279.107 277.064 280.338C277.546 280.299 278.031 280.323 278.507 280.41C278.997 280.41 279.488 280.569 279.95 280.67C280.411 280.771 280.916 280.844 281.393 280.901C281.87 280.981 282.358 280.981 282.836 280.901C283.214 281.22 283.644 281.474 284.105 281.652C284.567 281.84 285.029 282.028 285.548 282.187C286.016 282.34 286.47 282.534 286.905 282.765C287.343 282.978 287.746 283.255 288.102 283.588C288.11 283.64 288.11 283.694 288.102 283.747C288.094 283.794 288.094 283.843 288.102 283.891C288.121 284.111 288.191 284.323 288.304 284.512C288.425 284.698 288.494 284.912 288.506 285.133C288.386 285.367 288.28 285.608 288.189 285.855C288.097 286.097 287.981 286.329 287.843 286.548C287.706 286.745 287.541 286.92 287.352 287.068C287.128 287.232 286.864 287.331 286.587 287.357C286.504 287.787 286.299 288.183 285.996 288.498C285.704 288.783 285.385 289.04 285.043 289.264L283.99 289.942C283.646 290.17 283.352 290.465 283.124 290.809C282.311 291.05 281.524 291.369 280.772 291.762C280.016 292.157 279.344 292.697 278.795 293.351L277.554 293.611C277.142 293.708 276.722 293.771 276.299 293.798C275.801 293.851 275.299 293.756 274.856 293.524C274.65 293.388 274.479 293.204 274.358 292.987C274.238 292.771 274.171 292.529 274.163 292.282C274.229 292.083 274.343 291.905 274.495 291.762L275 291.314C275.174 291.171 275.338 291.017 275.491 290.852C275.636 290.684 275.744 290.487 275.808 290.274H276.256C276.535 290.265 276.806 290.175 277.035 290.015L277.554 289.567C277.732 289.412 277.926 289.277 278.132 289.162C278.391 289.018 278.688 288.958 278.983 288.989C279.153 288.616 279.442 288.311 279.805 288.123C280.18 287.915 280.565 287.727 280.96 287.559C281.356 287.389 281.737 287.186 282.1 286.953C282.452 286.728 282.706 286.377 282.807 285.971C282.653 285.77 282.455 285.607 282.23 285.494C281.987 285.386 281.736 285.299 281.479 285.234L280.686 285.032C280.45 284.979 280.222 284.896 280.007 284.786C279.728 284.883 279.437 284.941 279.142 284.96C278.581 285.025 278.014 285.025 277.453 284.96C276.892 284.909 276.327 284.909 275.765 284.96C275.3 284.983 274.842 285.08 274.409 285.249L273.976 285.162L273.528 285.017C272.915 285.303 272.255 285.475 271.58 285.523L268.911 285.682C268.69 285.697 268.472 285.741 268.262 285.812C267.99 286.368 267.87 286.986 267.915 287.603C267.944 288.058 268.042 288.506 268.204 288.931C268.377 289.35 268.536 289.783 268.709 290.246C269.316 290.728 269.863 291.28 270.339 291.892C270.832 292.505 271.12 293.258 271.162 294.044C271.177 294.198 271.177 294.352 271.162 294.506C270.828 294.322 270.444 294.247 270.065 294.289C269.695 294.308 269.329 294.386 268.983 294.521C268.635 294.652 268.278 294.758 267.915 294.838L266.949 294.463C266.605 294.329 266.276 294.16 265.967 293.957C265.722 293.51 265.477 293.076 265.217 292.672C264.97 292.245 264.669 291.852 264.322 291.502V291.343C264.269 290.372 264.139 289.406 263.933 288.455C263.717 287.505 263.577 286.539 263.514 285.566C263.514 285.119 263.514 284.671 263.514 284.223C263.524 283.777 263.632 283.338 263.832 282.938C263.698 282.261 263.611 281.576 263.572 280.887C263.484 279.444 263.484 277.997 263.572 276.554C263.65 275.111 263.65 273.665 263.572 272.222C263.558 271.922 263.529 271.623 263.485 271.326C263.485 271.023 263.413 270.72 263.37 270.416H263.211C262.862 270.432 262.516 270.5 262.187 270.619L261.22 270.994C260.903 271.124 260.571 271.254 260.21 271.37C259.87 271.487 259.515 271.555 259.157 271.572C258.969 271.676 258.795 271.802 258.637 271.947C258.514 272.057 258.384 272.159 258.247 272.251C258.108 272.353 257.951 272.431 257.786 272.482C257.583 272.558 257.366 272.587 257.151 272.568C256.929 272.74 256.697 272.899 256.458 273.045C256.225 273.188 255.978 273.309 255.722 273.406C255.569 273.466 255.431 273.56 255.318 273.68L255.015 273.984L254.654 274.258C254.498 274.356 254.319 274.41 254.135 274.417C253.996 274.434 253.856 274.434 253.717 274.417C253.542 274.28 253.386 274.12 253.255 273.94C253.125 273.767 252.995 273.579 252.851 273.42C252.721 273.244 252.571 273.085 252.403 272.944C252.242 272.797 252.05 272.688 251.841 272.626C251.925 272.525 251.966 272.396 251.956 272.265C251.956 272.178 251.956 272.063 251.956 271.918C251.956 271.918 251.956 271.788 251.956 271.76C252.049 271.293 252.28 270.865 252.62 270.532C252.966 270.223 253.355 269.965 253.774 269.767L255.073 269.203C255.499 269.056 255.91 268.868 256.299 268.64C257.281 268.614 258.253 268.444 259.185 268.135C260.105 267.828 260.994 267.437 261.84 266.965C261.994 267.034 262.163 267.064 262.331 267.051C262.47 267.065 262.61 267.065 262.75 267.051L263.154 266.936C263.443 266.652 263.801 266.448 264.192 266.344C264.568 266.228 264.943 266.141 265.318 266.055C265.693 265.968 266.068 265.896 266.415 265.809C266.756 265.72 267.072 265.551 267.338 265.318H267.511C268.185 265.273 268.847 265.122 269.474 264.871C270.09 264.61 270.753 264.482 271.422 264.495C271.864 264.194 272.351 263.965 272.865 263.816C273.393 263.706 273.928 263.634 274.466 263.6C274.642 263.572 274.806 263.497 274.943 263.383C275.147 263.243 275.387 263.163 275.635 263.152H275.924C276.026 263.154 276.127 263.129 276.216 263.078C276.305 263.027 276.379 262.953 276.429 262.863C276.515 262.704 276.761 262.603 277.165 262.574H278.204C278.281 262.58 278.358 262.559 278.421 262.514C278.484 262.469 278.53 262.404 278.55 262.329C278.576 262.257 278.627 262.198 278.693 262.161C278.759 262.124 278.836 262.112 278.911 262.127C278.964 262.181 279.031 262.22 279.104 262.241C279.178 262.261 279.255 262.261 279.329 262.242H279.776C279.979 262.242 280.08 262.242 280.123 262.387C280.554 262.075 281.045 261.859 281.566 261.751C282.069 261.638 282.581 261.566 283.095 261.534H284.293C284.539 261.35 284.837 261.249 285.144 261.246C285.466 261.252 285.783 261.316 286.082 261.433C286.515 261.563 286.977 261.737 287.453 261.924C287.906 262.097 288.345 262.304 288.766 262.545C289.055 262.669 289.308 262.862 289.502 263.109C289.58 263.214 289.625 263.339 289.632 263.47C289.652 263.639 289.696 263.804 289.762 263.961C289.921 264.278 290.079 264.582 290.209 264.871C290.31 265.148 290.354 265.442 290.339 265.737ZM285.808 266.474C285.814 266.411 285.814 266.348 285.808 266.286C285.802 266.223 285.802 266.161 285.808 266.098C285.644 265.944 285.447 265.83 285.231 265.766C284.984 265.698 284.734 265.645 284.481 265.607L283.687 265.52C283.451 265.499 283.219 265.451 282.994 265.376C282.395 265.613 281.762 265.75 281.118 265.78C280.544 265.825 279.967 265.761 279.416 265.593C279.164 265.87 278.853 266.087 278.507 266.228C278.124 266.39 277.728 266.521 277.323 266.618C276.891 266.705 276.472 266.777 276.054 266.82L274.928 266.907C274.722 266.96 274.529 267.059 274.365 267.196C274.148 267.353 273.895 267.452 273.629 267.485C273.545 267.49 273.46 267.477 273.38 267.447C273.301 267.417 273.228 267.371 273.168 267.311C272.869 267.553 272.533 267.743 272.172 267.875C271.739 268.033 271.306 268.178 270.845 268.308L269.402 268.698C268.925 268.842 268.536 268.972 268.204 269.102C267.911 269.872 267.769 270.691 267.785 271.514C267.785 272.352 267.858 273.16 267.901 273.955C267.93 274.407 267.93 274.86 267.901 275.312C267.869 275.793 267.869 276.276 267.901 276.757C267.916 276.984 267.945 277.211 267.987 277.435C268.035 277.671 268.133 277.893 268.276 278.085C268.08 278.26 267.944 278.493 267.886 278.75C267.851 279.008 267.851 279.271 267.886 279.53C267.909 279.803 267.957 280.074 268.031 280.338C268.031 280.584 268.161 280.815 268.233 281.031C269.051 280.917 269.851 280.698 270.614 280.382C271.306 280.098 271.972 279.755 272.605 279.356C273.235 278.95 273.834 278.496 274.394 277.999L276.198 276.395C276.438 276.349 276.664 276.251 276.862 276.107C277.06 275.98 277.29 275.91 277.525 275.905C277.555 275.733 277.62 275.569 277.717 275.425C277.814 275.281 277.94 275.158 278.088 275.067C278.379 274.901 278.612 274.649 278.752 274.345C279.045 274.251 279.322 274.115 279.575 273.94L280.224 273.449C280.438 273.267 280.67 273.108 280.916 272.973C281.179 272.808 281.475 272.704 281.782 272.669C282.215 272.092 282.662 271.514 283.139 270.922C283.607 270.334 284.185 269.844 284.841 269.478C284.92 269.214 285.032 268.962 285.173 268.727L285.52 268.091C285.627 267.874 285.714 267.646 285.779 267.412C285.856 267.1 285.866 266.775 285.808 266.459V266.474Z" fill="#2B2B2B"/>
<path d="M312.662 265.015C312.67 265.135 312.65 265.256 312.602 265.366C312.554 265.477 312.481 265.574 312.387 265.65C312.2 265.838 312.099 265.968 312.113 266.04C312.109 266.164 312.145 266.285 312.214 266.387C312.268 266.453 312.303 266.533 312.315 266.618V266.82C312.067 267.087 311.876 267.402 311.753 267.745C311.624 268.065 311.532 268.4 311.478 268.741C311.478 269.102 311.363 269.449 311.32 269.81C311.276 270.161 311.208 270.508 311.118 270.85C311.015 271.17 310.853 271.469 310.641 271.731C310.432 271.98 310.266 272.263 310.151 272.568C309.966 273.074 309.83 273.596 309.747 274.128C309.664 274.651 309.456 275.147 309.141 275.572V275.774C309.133 275.866 309.147 275.959 309.182 276.045C309.217 276.13 309.272 276.206 309.343 276.266C308.843 277.041 308.477 277.896 308.261 278.793C308.009 279.78 307.826 280.784 307.712 281.797C307.587 282.837 307.486 283.877 307.409 284.916C307.337 285.956 307.222 286.88 307.092 287.718C307.262 288.307 307.51 288.87 307.828 289.393C308.145 289.899 308.463 290.448 308.78 290.997C309.332 291.105 309.873 291.264 310.396 291.473C310.914 291.688 311.331 292.09 311.565 292.6C311.568 293.078 311.405 293.543 311.103 293.914C310.777 294.276 310.425 294.613 310.05 294.925L309.3 294.708C309.014 294.645 308.719 294.645 308.434 294.708C307.953 294.37 307.447 294.071 306.919 293.813C306.384 293.54 305.934 293.126 305.62 292.614C305.59 292.576 305.55 292.546 305.504 292.528C305.458 292.51 305.409 292.505 305.36 292.513H304.999C304.841 292.195 304.653 291.863 304.437 291.502C304.22 291.141 304.004 290.766 303.787 290.376C303.574 290.004 303.386 289.618 303.225 289.22C303.075 288.882 302.982 288.52 302.95 288.151C302.864 286.75 302.907 285.343 303.08 283.949C303.254 282.54 303.297 281.119 303.21 279.703V279.298C302.659 279.47 302.128 279.697 301.623 279.977C301.117 280.25 300.585 280.472 300.036 280.641C299.848 280.714 299.733 280.815 299.718 280.959C299.708 281.029 299.684 281.096 299.647 281.155C299.609 281.215 299.56 281.266 299.502 281.306L298.723 281.407H298.016C297.554 281.407 297.063 281.407 296.573 281.407C296.064 281.392 295.557 281.334 295.057 281.234C294.557 281.136 294.071 280.971 293.614 280.743C293.165 280.524 292.76 280.225 292.417 279.862L292.229 279.963C292.148 279.975 292.065 279.975 291.984 279.963C291.898 279.977 291.81 279.977 291.724 279.963H291.522C291.282 279.674 291.083 279.353 290.931 279.009L290.44 277.97C290.281 277.623 290.108 277.291 289.935 276.973C289.74 276.649 289.496 276.357 289.213 276.107C289.1 275.632 289.028 275.149 288.997 274.662C288.968 274.182 288.968 273.699 288.997 273.218C289.041 272.733 289.114 272.251 289.213 271.774C289.085 271.447 288.988 271.108 288.925 270.763C288.925 270.416 288.824 270.055 288.795 269.709C288.766 269.281 288.766 268.851 288.795 268.423C288.848 267.994 288.965 267.576 289.141 267.181C289.305 266.8 289.557 266.463 289.877 266.199C290.229 265.925 290.658 265.769 291.104 265.752C291.645 265.718 292.186 265.838 292.662 266.098C293.138 266.358 293.614 266.618 294.105 266.893C294.177 267.21 294.235 267.542 294.278 267.846C294.322 268.149 294.365 268.496 294.394 268.857C294.394 269.507 294.394 270.185 294.394 270.85C294.358 271.533 294.358 272.217 294.394 272.9C294.43 273.575 294.562 274.241 294.783 274.879C295.018 275.51 295.381 276.086 295.851 276.569H296.024C296.221 276.523 296.427 276.554 296.601 276.656C296.781 276.758 296.987 276.803 297.193 276.785C297.281 276.781 297.367 276.755 297.442 276.71C297.518 276.664 297.581 276.601 297.626 276.525C297.667 276.454 297.726 276.394 297.796 276.351C297.867 276.308 297.947 276.284 298.03 276.28C298.153 276.246 298.282 276.246 298.405 276.28C298.472 276.294 298.541 276.294 298.607 276.28C298.971 276.229 299.318 276.09 299.617 275.876C299.937 275.711 300.184 275.433 300.31 275.096C300.437 275.168 300.582 275.203 300.728 275.197C300.95 275.178 301.162 275.092 301.334 274.951C301.544 274.796 301.795 274.706 302.056 274.691C302.229 274.691 302.272 274.576 302.229 274.374C302.186 274.171 302.229 274.041 302.344 273.984C302.716 273.791 303.069 273.564 303.398 273.305C303.677 273.076 303.994 272.9 304.336 272.785C304.443 272.422 304.594 272.073 304.783 271.745C304.971 271.413 305.158 271.11 305.36 270.821C305.402 270.189 305.533 269.567 305.75 268.972C305.952 268.38 306.183 267.788 306.414 267.196C306.644 266.604 306.875 266.012 307.092 265.419C307.297 264.827 307.423 264.21 307.467 263.585C307.743 263.277 307.967 262.926 308.131 262.545C308.284 262.187 308.419 261.82 308.535 261.448C308.865 261.332 309.21 261.264 309.559 261.246L310.613 261.144H311.32C311.406 261.314 311.53 261.462 311.68 261.578L312.113 261.968C311.903 262.321 311.798 262.727 311.81 263.137C311.841 263.445 311.929 263.744 312.07 264.019C312.242 264.365 312.44 264.698 312.662 265.015Z" fill="#2B2B2B"/>
<path d="M353.858 285.639C353.899 286.071 353.803 286.505 353.584 286.881C353.365 287.266 353.298 287.719 353.396 288.152C353.033 288.388 352.727 288.704 352.502 289.076C352.272 289.448 352.065 289.834 351.881 290.231C350.134 291.523 348.24 292.604 346.239 293.452C344.23 294.291 342.093 294.779 339.919 294.896C339.846 294.901 339.773 294.889 339.706 294.862C339.638 294.834 339.578 294.792 339.53 294.737L339.183 294.362C339.065 294.234 338.94 294.113 338.808 294.001C338.749 293.944 338.679 293.9 338.602 293.873C338.524 293.846 338.442 293.835 338.361 293.842C338.201 293.845 338.045 293.896 337.913 293.986C337.906 293.938 337.906 293.89 337.913 293.842C337.921 293.794 337.921 293.745 337.913 293.697C337.886 293.359 337.823 293.026 337.726 292.701C337.629 292.376 337.566 292.042 337.538 291.704C337.505 291.375 337.555 291.042 337.683 290.737H338.173C338.446 290.728 338.717 290.689 338.981 290.621C339.258 290.57 339.537 290.536 339.818 290.52C340.11 290.496 340.402 290.562 340.655 290.708C342.12 290.57 343.553 290.195 344.897 289.596C346.225 289.004 347.567 288.412 348.938 287.834C349.127 287.524 349.236 287.171 349.255 286.808C349.27 286.44 349.353 286.077 349.5 285.74C348.813 285.21 348.055 284.777 347.249 284.454C346.439 284.149 345.559 284.079 344.71 284.252C344.132 283.943 343.489 283.775 342.834 283.761C342.185 283.761 341.535 283.761 340.872 283.631L340.352 283.559C340.165 283.544 339.977 283.544 339.789 283.559C339.652 283.576 339.52 283.62 339.4 283.689C339.378 283.709 339.36 283.734 339.349 283.761C339.337 283.788 339.33 283.818 339.33 283.848C339.33 283.878 339.337 283.907 339.349 283.934C339.36 283.962 339.378 283.986 339.4 284.007C339.333 283.911 339.247 283.829 339.148 283.767C339.049 283.705 338.938 283.664 338.823 283.646C338.593 283.629 338.375 283.538 338.202 283.386C337.41 283.396 336.622 283.284 335.864 283.053L333.628 282.302C333.421 282.235 333.208 282.187 332.993 282.158C332.777 282.131 332.567 282.068 332.372 281.97C331.889 281.769 331.459 281.457 331.117 281.06C330.786 280.656 330.518 280.203 330.323 279.717C330.106 279.216 329.942 278.693 329.833 278.157C329.717 277.623 329.602 277.118 329.487 276.713C329.711 276.244 329.909 275.761 330.078 275.269C330.254 274.799 330.394 274.316 330.497 273.825C330.653 273.729 330.817 273.647 330.987 273.579L331.507 273.348C331.49 273.277 331.49 273.203 331.507 273.132C331.499 272.983 331.54 272.836 331.622 272.713C331.658 272.651 331.676 272.581 331.676 272.51C331.676 272.439 331.658 272.37 331.622 272.308C332.185 271.716 332.733 271.11 333.253 270.489C333.78 269.861 334.231 269.173 334.595 268.438C334.966 268.299 335.295 268.065 335.547 267.759L336.225 266.878C336.454 266.572 336.716 266.291 337.004 266.04C337.329 265.776 337.717 265.602 338.13 265.535C338.223 265.333 338.367 265.158 338.548 265.029L339.097 264.654C339.279 264.531 339.452 264.396 339.616 264.25C339.774 264.077 339.888 263.869 339.948 263.643C340.365 263.622 340.773 263.513 341.146 263.325C341.506 263.137 341.853 262.935 342.199 262.719C342.545 262.502 342.892 262.3 343.252 262.112C343.625 261.924 344.033 261.816 344.45 261.794H344.782H345.157C345.358 261.967 345.508 262.192 345.59 262.444C345.678 262.717 345.74 262.998 345.778 263.282C345.778 263.571 345.864 263.874 345.908 264.177C345.927 264.455 345.991 264.728 346.095 264.986C345.879 265.477 345.633 265.954 345.388 266.43C345.139 266.898 344.771 267.292 344.32 267.571H344.234C344.051 267.614 343.859 267.583 343.7 267.485C343.52 267.383 343.314 267.337 343.108 267.355C343.048 267.354 342.988 267.367 342.934 267.392C342.879 267.417 342.83 267.454 342.791 267.499L342.603 267.716L342.387 267.889C342.326 267.918 342.259 267.934 342.192 267.934C342.124 267.934 342.058 267.918 341.997 267.889C341.607 268.048 341.478 268.293 341.579 268.626C341.109 268.688 340.664 268.878 340.294 269.174C339.962 269.457 339.653 269.766 339.371 270.099C339.082 270.431 338.794 270.734 338.519 271.023C338.234 271.301 337.863 271.474 337.466 271.514C337.069 272.356 336.543 273.131 335.908 273.81C335.281 274.469 334.764 275.225 334.378 276.049C334.469 276.272 334.537 276.505 334.58 276.742C334.58 276.988 334.681 277.248 334.753 277.508C335.021 277.826 335.337 278.099 335.691 278.316L336.745 278.995H336.875C337.393 278.951 337.915 279.02 338.404 279.197C338.863 279.376 339.356 279.45 339.847 279.414C340.091 279.406 340.33 279.337 340.54 279.212C341.261 279.327 341.983 279.428 342.675 279.486C343.368 279.544 344.118 279.587 344.811 279.602C345.176 279.631 345.543 279.631 345.908 279.602C346.257 279.557 346.611 279.557 346.961 279.602C347.274 279.668 347.582 279.755 347.884 279.862C348.202 279.963 348.505 280.064 348.808 280.194C349.439 280.416 350.056 280.677 350.655 280.974C351.225 281.264 351.754 281.628 352.228 282.057C352.692 282.461 353.074 282.952 353.353 283.501C353.676 284.168 353.848 284.898 353.858 285.639Z" fill="#2B2B2B"/>
<path d="M386.989 285.754C386.948 286.112 386.791 286.447 386.541 286.707C386.282 286.966 385.979 287.176 385.647 287.328C385.305 287.48 384.947 287.592 384.579 287.66L383.569 287.79H382.79C382.66 287.79 382.588 287.877 382.602 288.007C382.607 288.071 382.591 288.135 382.558 288.189C382.524 288.244 382.474 288.286 382.415 288.31L381.996 288.209H381.578H381.029L380.51 288.296C380.353 288.332 380.19 288.332 380.034 288.296C379.937 288.255 379.849 288.196 379.774 288.123C379.695 288.058 379.622 287.985 379.557 287.906C379.466 287.825 379.357 287.766 379.24 287.733C379.166 287.697 379.084 287.678 379.002 287.678C378.919 287.678 378.838 287.697 378.764 287.733C378.634 287.733 378.446 287.733 378.187 287.516C377.835 287.253 377.532 286.93 377.292 286.563C377.032 286.173 376.773 285.783 376.527 285.35C376.282 284.916 376.022 284.497 375.748 284.079C375.486 283.672 375.171 283.303 374.81 282.981H374.478C374.263 282.981 374.053 283.047 373.877 283.171C373.702 283.296 373.569 283.471 373.497 283.674C373.346 283.588 373.202 283.492 373.064 283.385C372.919 283.272 372.759 283.18 372.588 283.111C371.955 283.348 371.309 283.55 370.654 283.718C369.985 283.9 369.298 284.011 368.605 284.05H368.028C367.851 284.077 367.671 284.077 367.494 284.05C367.237 284.156 366.999 284.302 366.787 284.483C366.574 284.645 366.318 284.741 366.051 284.758C365.853 284.75 365.657 284.706 365.474 284.627C365.301 284.627 365.229 284.714 365.258 284.844C365.287 284.974 365.186 285.061 364.998 285.075H364.637C364.248 285.075 363.872 285.075 363.497 285.191L362.372 285.306C361.83 285.338 361.287 285.299 360.756 285.191C360.63 285.285 360.48 285.341 360.323 285.35C360.213 285.407 360.13 285.506 360.092 285.624L359.948 285.971C359.892 286.07 359.818 286.158 359.731 286.23C359.675 286.27 359.612 286.298 359.545 286.313C359.478 286.328 359.409 286.329 359.342 286.317C359.322 286.621 359.194 286.909 358.981 287.126C358.873 287.244 358.793 287.384 358.745 287.536C358.698 287.688 358.685 287.849 358.707 288.007C358.433 288.179 358.197 288.405 358.014 288.671C357.826 288.931 357.653 289.206 357.48 289.494C357.307 289.783 357.119 290.043 356.932 290.303C356.741 290.566 356.495 290.783 356.21 290.939C356.153 291.061 356.123 291.194 356.123 291.329C356.123 291.464 356.153 291.597 356.21 291.719C355.89 292.008 355.531 292.251 355.143 292.441C354.765 292.651 354.347 292.779 353.916 292.816C353.54 292.843 353.166 292.742 352.854 292.53C352.543 292.318 352.312 292.006 352.199 291.646C352.199 291.372 352.199 291.069 352.199 290.751C352.226 290.446 352.269 290.142 352.329 289.841C352.391 289.554 352.504 289.28 352.661 289.032C352.814 288.777 353.047 288.579 353.324 288.469C353.327 288.368 353.302 288.269 353.251 288.182C353.2 288.095 353.125 288.024 353.036 287.978C352.952 287.926 352.886 287.85 352.845 287.76C352.804 287.67 352.79 287.57 352.805 287.473C353.5 287.103 354.125 286.614 354.652 286.028C355.175 285.421 355.657 284.779 356.095 284.108C356.499 283.429 356.917 282.75 357.35 282.057C357.766 281.388 358.249 280.763 358.793 280.194V279.327C359.54 278.455 360.039 277.397 360.236 276.266C360.361 276.248 360.48 276.197 360.579 276.118C360.678 276.04 360.754 275.936 360.799 275.818C360.888 275.563 360.922 275.292 360.9 275.024C360.96 275.025 361.019 275.006 361.066 274.969C361.113 274.932 361.146 274.88 361.16 274.821C361.16 274.706 361.304 274.662 361.492 274.706C361.689 274.071 361.925 273.449 362.199 272.843C362.473 272.279 362.732 271.702 363.007 271.124C363.27 270.535 363.501 269.933 363.699 269.319C363.897 268.65 364.027 267.963 364.089 267.268C364.246 267.268 364.396 267.206 364.507 267.095C364.618 266.984 364.68 266.833 364.68 266.676C364.68 266.329 364.68 266.026 364.767 265.737C365.159 265.328 365.45 264.834 365.618 264.293C365.792 263.773 365.936 263.21 366.066 262.632C366.196 262.054 366.34 261.491 366.513 260.913C366.68 260.349 366.949 259.821 367.307 259.354V259.238C367.31 259.182 367.295 259.126 367.263 259.079C367.232 259.032 367.187 258.997 367.134 258.978C367.018 258.978 366.96 258.863 366.946 258.718C366.956 258.69 366.956 258.66 366.946 258.631C367.26 258.488 367.508 258.23 367.639 257.909C367.776 257.594 368.022 257.338 368.331 257.187C368.794 257.55 369.331 257.806 369.904 257.938C370.483 258.015 371.066 258.054 371.65 258.054C372.025 258.409 372.265 258.884 372.328 259.397C372.402 259.928 372.528 260.45 372.703 260.957C372.978 261.823 373.266 262.661 373.584 263.484C373.894 264.312 374.145 265.162 374.334 266.026C374.45 266.53 374.634 267.016 374.882 267.47C375.13 267.923 375.31 268.409 375.416 268.914C375.506 269.341 375.536 269.779 375.503 270.214C375.466 270.643 375.551 271.074 375.748 271.456L376.08 272.092C376.232 272.392 376.367 272.701 376.484 273.016C376.599 273.348 376.715 273.666 376.816 273.984C377.09 274.792 377.335 275.673 377.581 276.598C377.791 277.483 378.127 278.334 378.576 279.125C378.724 279.385 378.967 279.577 379.254 279.659C379.574 279.753 379.903 279.807 380.236 279.818C380.586 279.847 380.939 279.847 381.289 279.818L382.169 279.732H382.573C382.74 279.702 382.911 279.702 383.078 279.732C383.181 279.905 383.25 280.096 383.28 280.295C383.297 280.443 383.279 280.592 383.229 280.733C383.179 280.873 383.098 280.999 382.992 281.104C382.897 281.189 382.823 281.294 382.773 281.411C382.723 281.528 382.699 281.655 382.703 281.782C382.724 281.944 382.794 282.096 382.905 282.216C382.737 282.201 382.568 282.201 382.4 282.216C381.768 282.258 381.148 282.41 380.568 282.663C380.81 283.097 381.139 283.475 381.534 283.775C381.926 284.07 382.336 284.34 382.761 284.584C382.99 284.366 383.284 284.229 383.598 284.194C383.92 284.177 384.241 284.237 384.536 284.368C384.831 284.496 385.152 284.555 385.474 284.541C385.664 284.543 385.85 284.488 386.008 284.382C386.229 284.598 386.423 284.84 386.585 285.104C386.69 285.338 386.826 285.556 386.989 285.754ZM373.713 279.977C373.677 279.625 373.564 279.284 373.382 278.981C373.232 278.753 373.115 278.505 373.035 278.244C372.894 277.851 372.792 277.444 372.732 277.031C372.666 276.602 372.575 276.178 372.458 275.76C372.213 274.836 371.939 273.926 371.65 273.002C371.359 272.093 371.007 271.205 370.597 270.344C370.687 270.208 370.733 270.046 370.727 269.882V269.752C370.453 269.483 370.25 269.151 370.135 268.784C369.991 268.399 369.861 268.009 369.745 267.615C369.629 267.236 369.479 266.869 369.298 266.517C369.131 266.18 368.864 265.903 368.533 265.723C368.459 265.911 368.43 266.113 368.447 266.315C368.457 266.492 368.49 266.667 368.548 266.835C368.592 267.01 368.621 267.189 368.634 267.369C368.375 267.52 368.179 267.762 368.086 268.048C367.979 268.338 367.782 268.586 367.523 268.755C367.371 269.638 367.104 270.498 366.73 271.312C366.369 272.121 365.994 272.915 365.59 273.709C365.186 274.504 364.796 275.312 364.435 276.121C364.075 276.928 363.799 277.77 363.613 278.634C363.284 278.874 363.049 279.221 362.949 279.616C362.847 279.997 362.808 280.392 362.833 280.786C363.102 280.904 363.392 280.963 363.685 280.959C364.002 280.959 364.32 280.959 364.623 280.959C364.911 280.938 365.2 280.938 365.489 280.959C365.775 281.005 366.042 281.135 366.253 281.335C366.626 281.191 367.013 281.089 367.408 281.031C367.778 280.977 368.13 280.834 368.432 280.613C369.014 280.774 369.62 280.832 370.221 280.786C370.548 280.774 370.872 280.726 371.188 280.641L372.097 280.382C372.311 280.408 372.514 280.488 372.689 280.613C372.779 280.673 372.881 280.712 372.988 280.73C373.095 280.747 373.205 280.742 373.309 280.714C373.423 280.621 373.504 280.495 373.54 280.353C373.559 280.213 373.619 280.082 373.713 279.977Z" fill="#2B2B2B"/>
<path d="M417.522 263.888C417.522 264.278 417.522 264.654 417.522 265.044C417.522 265.434 417.522 265.824 417.522 266.199C417.522 266.575 417.176 266.748 417.017 266.965C416.853 267.195 416.748 267.463 416.714 267.745C416.368 268.038 416.049 268.362 415.761 268.712C415.606 268.863 415.489 269.05 415.421 269.256C415.353 269.463 415.336 269.682 415.372 269.896H414.795C414.506 270.398 414.141 270.851 413.712 271.24C413.292 271.641 412.849 272.017 412.385 272.366L410.942 273.406C410.488 273.739 410.071 274.122 409.701 274.547C409.518 274.583 409.34 274.636 409.167 274.706C408.997 274.754 408.817 274.754 408.648 274.706C407.832 275.307 406.974 275.847 406.079 276.323L403.41 277.695C402.515 278.157 401.62 278.634 400.755 279.139C399.878 279.634 399.043 280.199 398.258 280.829C398.149 280.807 398.036 280.807 397.926 280.829C397.675 280.835 397.426 280.884 397.19 280.974C396.953 281.056 396.705 281.105 396.455 281.118C396.311 281.131 396.166 281.131 396.022 281.118C395.886 281.116 395.752 281.081 395.632 281.017C395.474 280.931 395.337 280.813 395.228 280.67C395.111 280.506 395.019 280.326 394.954 280.136C394.883 279.944 394.83 279.746 394.795 279.544C394.753 279.383 394.729 279.219 394.723 279.053C394.709 278.875 394.709 278.696 394.723 278.518C394.737 278.333 394.766 278.15 394.81 277.97C395.637 277.856 396.438 277.597 397.176 277.204L399.441 276.034C399.61 275.946 399.761 275.829 399.889 275.688C400.003 275.561 400.129 275.445 400.264 275.341C400.4 275.233 400.545 275.137 400.697 275.052C400.881 274.944 401.089 274.884 401.303 274.879H401.433C403.107 273.969 404.737 273.001 406.339 271.99C407.941 270.979 409.528 269.911 411.115 268.842C411.197 268.573 411.313 268.316 411.461 268.077L411.923 267.326C412.077 267.083 412.216 266.833 412.342 266.575C412.456 266.341 412.51 266.083 412.5 265.824C412.483 265.576 412.402 265.337 412.266 265.129C412.129 264.922 411.942 264.753 411.721 264.639H411.562C411.266 264.672 410.966 264.642 410.682 264.553L409.961 264.307C409.716 264.224 409.465 264.162 409.21 264.12C408.895 264.068 408.573 264.068 408.258 264.12C408.053 263.999 407.828 263.916 407.594 263.874C407.345 263.844 407.093 263.844 406.844 263.874C405.876 263.936 404.912 264.056 403.958 264.235C403.004 264.425 402.041 264.565 401.072 264.654L400.394 265.058C400.161 265.194 399.898 265.269 399.629 265.275H399.254H398.879C398.319 265.539 397.74 265.761 397.147 265.939C396.498 266.127 395.863 266.344 395.228 266.589C394.617 266.821 394.032 267.117 393.482 267.47C392.969 267.789 392.555 268.244 392.284 268.784C392.292 268.908 392.332 269.027 392.4 269.131C392.459 269.232 392.494 269.346 392.501 269.463V269.636C392.348 269.797 392.243 269.997 392.198 270.214C392.155 270.419 392.126 270.626 392.111 270.835C392.111 271.037 392.111 271.254 392.111 271.456C392.076 271.684 391.981 271.898 391.837 272.077C391.982 272.511 392.065 272.963 392.082 273.42C392.126 273.968 392.126 274.519 392.082 275.067C392.046 275.62 392.046 276.175 392.082 276.728C392.1 277.218 392.182 277.703 392.328 278.172C392.246 278.277 392.19 278.399 392.162 278.529C392.135 278.659 392.137 278.794 392.169 278.923C392.201 279.052 392.203 279.186 392.176 279.316C392.148 279.447 392.092 279.569 392.01 279.674C392.007 279.76 392.026 279.846 392.063 279.924C392.101 280.002 392.157 280.07 392.227 280.121C392.293 280.165 392.35 280.222 392.392 280.289C392.435 280.357 392.462 280.432 392.472 280.511C392.396 281.018 392.372 281.531 392.4 282.042C392.456 282.859 392.596 283.667 392.818 284.454C393.049 285.263 393.323 286.057 393.612 286.837C394.085 286.668 394.567 286.523 395.055 286.404C395.527 286.281 396.011 286.204 396.498 286.173H397.003C397.071 286.465 397.199 286.74 397.378 286.981C397.569 287.231 397.738 287.497 397.883 287.776L397.566 288.267C397.469 288.427 397.428 288.615 397.45 288.801C397.114 288.831 396.794 288.957 396.527 289.162C396.296 289.35 396.022 289.567 395.748 289.812H395.574C395.176 289.817 394.786 289.932 394.449 290.144L393.453 290.809C393.135 290.691 392.796 290.642 392.458 290.664C392.092 290.684 391.733 290.777 391.404 290.939C390.959 290.777 390.568 290.491 390.279 290.116C389.966 289.724 389.7 289.297 389.485 288.845C389.269 288.382 389.067 287.906 388.893 287.4C388.717 286.946 388.515 286.502 388.287 286.072V285.422C388.247 284.809 388.161 284.201 388.028 283.602C387.897 283.003 387.81 282.394 387.768 281.782C387.747 281.518 387.747 281.252 387.768 280.988C387.796 280.718 387.854 280.451 387.941 280.194C387.884 279.966 387.845 279.734 387.826 279.501V278.721C387.826 277.893 387.826 277.069 387.826 276.251C387.826 275.413 387.826 274.59 387.826 273.767C387.791 273.151 387.713 272.538 387.595 271.933C387.467 271.981 387.346 272.044 387.234 272.121C387.117 272.178 386.989 272.212 386.859 272.222C386.729 272.236 386.599 272.236 386.469 272.222H386.123C385.829 271.998 385.608 271.691 385.488 271.341C385.361 271 385.186 270.679 384.969 270.387C384.929 269.944 384.978 269.497 385.113 269.073C385.244 268.731 385.409 268.402 385.603 268.091L386.238 267.21C386.473 266.885 386.653 266.524 386.772 266.141H386.931C387.401 266.099 387.848 265.918 388.215 265.622C388.633 265.306 389.136 265.125 389.658 265.102C389.852 264.822 390.103 264.585 390.394 264.408C390.717 264.207 391.06 264.043 391.419 263.917C391.776 263.789 392.143 263.688 392.515 263.614L393.569 263.484C393.662 263.289 393.828 263.139 394.03 263.065L394.694 262.82L395.343 262.574C395.547 262.489 395.718 262.343 395.834 262.155H396.455C396.799 262.128 397.139 262.055 397.465 261.939C397.797 261.823 398.114 261.693 398.431 261.549L399.413 261.13C399.763 261.009 400.126 260.931 400.495 260.899H401.317C401.548 260.899 401.664 260.783 401.693 260.624C401.704 260.546 401.731 260.47 401.774 260.403C401.816 260.336 401.872 260.278 401.938 260.234C402.091 260.259 402.247 260.259 402.4 260.234C402.936 260.205 403.467 260.123 403.987 259.989C404.512 259.856 405.048 259.774 405.589 259.743H406.324C406.582 259.754 406.835 259.808 407.075 259.902C407.121 259.825 407.174 259.753 407.234 259.686C407.284 259.623 407.319 259.548 407.334 259.469C408.646 259.46 409.95 259.655 411.202 260.047C412.446 260.457 413.713 260.794 414.997 261.058C415.168 261.292 415.372 261.501 415.603 261.679L416.339 262.213L417.075 262.733C417.314 262.922 417.523 263.146 417.695 263.397L417.522 263.888Z" fill="#2B2B2B"/>
<path d="M428.835 280.483C428.707 280.712 428.552 280.926 428.373 281.118C428.198 281.3 428.034 281.493 427.882 281.696C427.686 281.799 427.469 281.858 427.248 281.869H426.584C426.396 281.854 426.208 281.854 426.021 281.869C425.856 281.879 425.701 281.951 425.588 282.071C425.392 282.044 425.213 281.946 425.083 281.797C425.006 281.719 424.914 281.658 424.812 281.618C424.71 281.579 424.601 281.561 424.491 281.566C424.382 281.544 424.269 281.544 424.16 281.566C423.719 281.112 423.309 280.63 422.933 280.122L421.88 278.677C421.793 277.666 421.634 276.641 421.447 275.616C421.447 275.37 421.346 275.125 421.274 274.879C421.201 274.634 421.144 274.403 421.1 274.186C421.079 273.922 421.079 273.656 421.1 273.392C421.1 273.117 421.1 272.872 421.1 272.655C421.1 271.861 421.23 271.066 421.317 270.287C421.403 269.507 421.49 268.727 421.548 267.918C421.606 267.168 421.606 266.415 421.548 265.665C421.51 264.918 421.339 264.185 421.043 263.499V263.297C421.068 263.099 421.117 262.905 421.187 262.719C421.251 262.552 421.289 262.377 421.302 262.199C421.327 262.078 421.317 261.953 421.274 261.838C421.23 261.723 421.155 261.623 421.057 261.549C421.078 261.449 421.123 261.356 421.189 261.278C421.254 261.2 421.338 261.139 421.432 261.101C421.527 261.056 421.606 260.984 421.66 260.894C421.714 260.804 421.74 260.7 421.735 260.596C421.764 260.492 421.764 260.382 421.735 260.278L422.399 260.004C422.621 259.94 422.856 259.94 423.077 260.004C423.417 260.027 423.747 260.126 424.044 260.292C424.332 260.453 424.607 260.637 424.867 260.841C425.397 262.158 425.666 263.566 425.66 264.986C425.66 266.43 425.66 267.875 425.53 269.42C425.401 270.965 425.401 272.381 425.429 273.753C425.443 275.099 425.753 276.425 426.338 277.638H426.425C426.488 277.648 426.552 277.638 426.609 277.61C426.666 277.581 426.713 277.535 426.742 277.479C426.77 277.42 426.815 277.371 426.873 277.339C426.93 277.308 426.995 277.296 427.06 277.305C427.127 277.344 427.2 277.368 427.276 277.378C427.414 277.913 427.623 278.428 427.897 278.909C428.2 279.53 428.503 280.006 428.835 280.483Z" fill="#2B2B2B"/>
<path d="M457.463 258.083V258.242C457.376 258.271 457.301 258.331 457.254 258.41C457.206 258.49 457.188 258.584 457.203 258.675C456.91 258.829 456.6 258.95 456.28 259.036C455.956 259.131 455.642 259.257 455.342 259.411H454.418H453.495C452.673 259.411 451.85 259.541 451.028 259.657C450.209 259.764 449.385 259.812 448.56 259.801C448.186 260.056 447.778 260.255 447.348 260.394C446.934 260.542 446.502 260.635 446.064 260.668C445.777 260.715 445.485 260.715 445.198 260.668C444.529 261.055 443.823 261.374 443.091 261.621L440.768 262.415C440.008 262.655 439.262 262.934 438.531 263.253C437.845 263.537 437.218 263.949 436.684 264.466C436.684 264.856 436.684 265.232 436.684 265.607C436.684 265.983 436.684 266.344 436.684 266.69C436.709 267.049 436.752 267.405 436.814 267.759C436.877 268.096 436.989 268.422 437.146 268.727C437.299 268.785 437.459 268.819 437.622 268.828H438.055C438.193 268.814 438.328 268.785 438.459 268.741C438.525 268.719 438.585 268.682 438.633 268.631C438.681 268.581 438.715 268.519 438.733 268.452C439.137 268.369 439.548 268.32 439.96 268.308H441.201C441.605 268.308 442.009 268.308 442.413 268.192C442.807 268.144 443.194 268.052 443.567 267.918C443.985 267.781 444.415 267.684 444.852 267.629L446.093 267.47C446.511 267.47 446.93 267.34 447.362 267.239C447.828 267.139 448.275 266.968 448.69 266.734C449.044 266.847 449.416 266.891 449.787 266.864C450.152 266.842 450.518 266.842 450.883 266.864C451.072 266.976 451.243 267.117 451.388 267.282C451.519 267.442 451.594 267.64 451.605 267.846C451.623 268.266 451.506 268.681 451.273 269.03C451.043 269.382 450.845 269.754 450.681 270.142H450.219C449.574 270.184 448.938 270.315 448.329 270.532C447.723 270.748 447.117 270.994 446.525 271.254C445.934 271.514 445.313 271.774 444.707 271.991C444.099 272.209 443.462 272.34 442.817 272.38C442.702 272.38 442.644 272.381 442.644 272.583C442.641 272.681 442.611 272.776 442.557 272.857C442.351 272.833 442.143 272.833 441.937 272.857C441.329 272.892 440.728 273.003 440.148 273.189C439.574 273.356 438.983 273.457 438.387 273.493H437.897H437.392C437.289 273.706 437.108 273.871 436.886 273.955C436.667 274.047 436.466 274.179 436.295 274.345C436.218 274.641 436.189 274.949 436.208 275.254C436.208 275.616 436.208 275.977 436.208 276.352C436.231 276.703 436.231 277.055 436.208 277.406C436.19 277.696 436.096 277.975 435.934 278.215C435.934 278.345 436.078 278.388 436.266 278.331C436.454 278.273 436.555 278.331 436.569 278.576C436.597 278.84 436.597 279.106 436.569 279.37C436.54 279.644 436.54 279.92 436.569 280.194C436.61 280.77 436.707 281.34 436.858 281.898C437.009 282.479 437.237 283.038 437.536 283.559C437.818 284.049 438.208 284.469 438.676 284.786C439.168 285.116 439.76 285.264 440.35 285.205C440.772 285.177 441.184 285.064 441.562 284.873C441.946 284.682 442.259 284.373 442.456 283.992H442.658C442.764 283.977 442.87 283.977 442.976 283.992C443.076 284.006 443.178 284.006 443.279 283.992C443.516 283.943 443.733 283.822 443.899 283.645L444.722 282.866L445.631 281.999C445.903 281.754 446.209 281.55 446.54 281.392C446.713 280.988 446.872 280.598 447.031 280.194C447.182 279.813 447.437 279.483 447.766 279.241L447.694 278.056C447.947 277.739 448.227 277.444 448.531 277.175C448.837 276.908 449.066 276.564 449.195 276.179C449.319 276.231 449.451 276.265 449.585 276.28C449.714 276.294 449.845 276.294 449.974 276.28C450.275 276.272 450.571 276.198 450.84 276.063C451.075 276.364 451.269 276.694 451.417 277.045C451.557 277.401 451.736 277.74 451.951 278.056L451.201 279.876C450.912 280.584 450.595 281.32 450.263 282.014C449.931 282.707 449.556 283.458 449.166 284.035C448.845 284.568 448.451 285.054 447.997 285.48C447.848 285.613 447.677 285.72 447.492 285.797C447.204 286.043 446.929 286.259 446.699 286.491C446.457 286.723 446.239 286.979 446.049 287.256C445.269 287.547 444.523 287.925 443.827 288.383C443.135 288.845 442.384 289.278 441.749 289.711C441.39 289.666 441.026 289.666 440.667 289.711C440.338 289.734 440.01 289.777 439.686 289.841C439.332 289.903 438.976 289.947 438.618 289.971C438.494 289.835 438.325 289.747 438.142 289.726C437.925 289.726 437.839 289.552 437.882 289.307C437.067 289.342 436.261 289.125 435.573 288.686C434.961 288.263 434.432 287.729 434.015 287.112C433.565 286.466 433.197 285.768 432.918 285.032C432.615 284.281 432.312 283.588 431.995 282.866V282.736C431.995 282.606 431.995 282.519 432.154 282.49C432.203 282.468 432.243 282.431 432.269 282.384C432.296 282.337 432.306 282.283 432.298 282.23C432.308 282.187 432.308 282.143 432.298 282.1L432.038 281.335C431.959 281.082 431.916 280.82 431.908 280.555C431.879 280.122 431.879 279.688 431.908 279.255C431.937 278.822 431.937 278.388 431.908 277.955C431.89 277.565 431.812 277.181 431.677 276.814C431.788 276.642 431.866 276.451 431.908 276.251C431.958 276.008 431.987 275.762 431.995 275.515C432.009 275.269 432.009 275.023 431.995 274.778C431.993 274.554 432.017 274.332 432.067 274.114L431.721 273.319C431.624 273.05 431.566 272.768 431.547 272.482V272.207C431.787 271.742 431.989 271.259 432.154 270.763C432.317 270.253 432.49 269.733 432.673 269.203V269.073C432.673 268.279 432.543 267.485 432.442 266.69C432.341 265.896 432.255 265.116 432.211 264.322V263.527C432.197 263.268 432.197 263.007 432.211 262.748C432.406 262.635 432.566 262.47 432.673 262.271C432.775 262.065 432.935 261.894 433.135 261.78L434.491 261.693L434.708 261.275C434.784 261.131 434.832 260.974 434.852 260.812C435.148 260.704 435.433 260.569 435.703 260.408C435.975 260.249 436.236 260.07 436.482 259.873L437.492 259.224C437.786 259.026 438.095 258.852 438.416 258.704C438.735 258.559 439.063 258.433 439.397 258.328C439.744 258.227 440.162 258.141 440.609 258.054C440.688 258.059 440.768 258.047 440.842 258.02C440.917 257.992 440.985 257.95 441.042 257.895C441.126 257.783 441.223 257.681 441.331 257.592L442.326 257.678H443.322C443.955 257.642 444.574 257.475 445.14 257.187L447.579 256.999C448.387 256.913 449.209 256.855 450.032 256.797C450.854 256.74 451.475 256.797 452.167 256.797C452.877 256.801 453.585 256.85 454.289 256.942C454.55 256.851 454.821 256.793 455.097 256.769C455.433 256.74 455.771 256.74 456.107 256.769C456.441 256.828 456.783 256.828 457.117 256.769C457.152 257.036 457.246 257.292 457.391 257.52C457.458 257.699 457.482 257.892 457.463 258.083Z" fill="#2B2B2B"/>
<path d="M482.484 255.627C482.45 255.916 482.393 256.201 482.311 256.479C482.223 256.786 482.223 257.112 482.311 257.418C482.074 257.441 481.854 257.548 481.691 257.721C481.549 257.881 481.432 258.061 481.344 258.256C481.258 258.458 481.186 258.66 481.099 258.877C481.019 259.083 480.913 259.277 480.781 259.455C481.063 260.426 481.252 261.422 481.344 262.43C481.431 263.392 481.561 264.389 481.734 265.419C481.947 266.663 482.237 267.893 482.6 269.102C482.972 270.302 483.195 271.544 483.263 272.799C483.263 273.189 483.263 273.536 483.263 273.868C483.263 274.2 483.263 274.547 483.263 274.893C483.263 275.24 483.263 275.341 483.263 275.572C483.263 275.803 483.263 276.034 483.263 276.251C483.318 277.058 483.265 277.869 483.105 278.663C482.957 279.461 482.851 280.266 482.787 281.075C482.478 281.381 482.215 281.731 482.008 282.114C481.805 282.472 481.584 282.82 481.344 283.154C481.113 283.472 480.842 283.759 480.536 284.006C480.18 284.272 479.772 284.459 479.339 284.555C479.275 284.82 479.116 285.051 478.891 285.205C478.662 285.36 478.474 285.568 478.343 285.812H478.458C477.855 285.859 477.249 285.795 476.669 285.624C476.174 285.475 475.691 285.287 475.226 285.061L473.884 284.353C473.392 284.097 472.868 283.907 472.326 283.79C471.518 283.215 470.769 282.562 470.089 281.84C469.408 281.125 468.648 280.491 467.824 279.948C467.635 279.459 467.35 279.012 466.987 278.634C466.618 278.273 466.28 277.882 465.977 277.464C465.847 277.304 465.736 277.129 465.645 276.944L465.342 276.381C465.261 276.193 465.112 276.042 464.923 275.962C464.75 275.896 464.585 275.809 464.433 275.702C464.173 274.89 463.804 274.118 463.336 273.406C462.863 272.712 462.337 272.055 461.763 271.442C461.621 271.761 461.514 272.095 461.446 272.438C461.359 272.785 461.301 273.131 461.229 273.478C461.175 273.834 461.097 274.186 460.998 274.532C460.9 274.867 460.76 275.187 460.58 275.485V275.615C460.58 275.745 460.652 275.832 460.768 275.847C460.82 275.857 460.866 275.886 460.898 275.929C460.93 275.972 460.945 276.025 460.941 276.078C460.947 276.106 460.947 276.136 460.941 276.164C460.934 276.193 460.934 276.222 460.941 276.251C460.812 276.368 460.717 276.518 460.667 276.684C460.632 276.769 460.574 276.842 460.5 276.896C460.427 276.949 460.339 276.981 460.248 276.988C460.279 277.126 460.303 277.266 460.32 277.406V277.767C460.375 278.573 460.337 279.382 460.205 280.179C460.073 280.986 460.034 281.805 460.089 282.62V283.154C460.101 283.335 460.13 283.514 460.176 283.689C460.239 283.862 460.332 284.023 460.45 284.165C460.552 284.295 460.617 284.449 460.638 284.613C460.642 284.714 460.625 284.816 460.588 284.91C460.551 285.005 460.494 285.091 460.421 285.162L461.114 285.566C461.367 285.715 461.603 285.889 461.821 286.086C462.034 286.268 462.223 286.477 462.384 286.707C462.529 286.932 462.614 287.191 462.629 287.458C462.66 287.646 462.64 287.839 462.572 288.017C462.503 288.194 462.389 288.351 462.239 288.469C461.921 288.702 461.565 288.878 461.186 288.989C460.763 289.133 460.33 289.263 459.887 289.379C459.479 289.484 459.103 289.688 458.791 289.971H458.661C458.526 289.991 458.389 289.981 458.259 289.941C458.13 289.901 458.01 289.832 457.911 289.74C457.809 289.645 457.688 289.573 457.556 289.531C457.423 289.489 457.283 289.476 457.146 289.494C456.563 288.65 456.142 287.705 455.905 286.707C455.656 285.722 455.496 284.717 455.429 283.703C455.357 282.514 455.386 281.32 455.515 280.136C455.645 278.952 455.818 277.767 456.035 276.598C456.251 275.428 456.496 274.258 456.756 273.102C457.016 271.947 457.29 270.777 457.507 269.608V269.477C457.506 269.425 457.494 269.373 457.472 269.326C457.449 269.279 457.417 269.237 457.377 269.203C457.341 269.173 457.313 269.135 457.293 269.093C457.273 269.05 457.262 269.004 457.261 268.958V268.871C457.318 268.602 457.39 268.337 457.478 268.077C457.553 267.801 457.611 267.522 457.651 267.239C457.769 266.45 457.837 265.654 457.853 264.856C457.853 264.033 457.853 263.238 457.853 262.444C457.853 261.65 457.853 260.841 457.781 260.032C457.768 259.222 457.807 258.412 457.896 257.606C458.104 257.373 458.297 257.127 458.473 256.869C458.662 256.595 458.896 256.356 459.166 256.162C459.723 256.152 460.279 256.201 460.825 256.306C461.386 256.406 461.927 256.597 462.427 256.869C462.826 258.007 463.13 259.176 463.336 260.365C463.529 261.55 463.814 262.718 464.187 263.859V263.975C464.187 264.119 464.274 264.177 464.418 264.148C464.485 264.134 464.554 264.138 464.617 264.161C464.681 264.184 464.737 264.225 464.779 264.278C464.733 264.369 464.704 264.466 464.692 264.567V264.899V265.593L464.938 266.286C464.984 266.403 465.063 266.505 465.165 266.579C465.268 266.654 465.389 266.697 465.515 266.705C465.689 267.523 465.945 268.321 466.28 269.088C466.594 269.804 466.956 270.499 467.362 271.167C467.752 271.832 468.184 272.496 468.632 273.131C469.079 273.767 469.555 274.46 470.075 275.168C470.779 275.636 471.411 276.205 471.951 276.857C472.484 277.493 473.018 278.099 473.567 278.692C474.118 279.245 474.733 279.73 475.399 280.136C476.185 280.591 477.075 280.835 477.982 280.843C478.118 280.717 478.21 280.55 478.242 280.367L478.415 279.775C478.481 279.597 478.558 279.423 478.646 279.255C478.735 279.088 478.877 278.956 479.05 278.879C479.05 278.099 479.05 277.32 479.05 276.511C479.063 275.736 479.19 274.967 479.425 274.229C479.26 273.959 479.17 273.65 479.165 273.334C479.144 273.069 479.144 272.804 479.165 272.539C479.194 272.295 479.194 272.047 479.165 271.803C479.162 271.352 479.021 270.914 478.761 270.546C478.747 270.349 478.747 270.151 478.761 269.954C478.778 269.732 478.853 269.518 478.978 269.333C478.718 268.791 478.51 268.225 478.357 267.643C478.197 267.038 478.095 266.419 478.054 265.795C478.227 264.936 478.099 264.044 477.694 263.267L477.419 261.592C477.342 261.055 477.227 260.524 477.073 260.003C476.959 259.559 476.718 259.158 476.38 258.848C476.535 258.582 476.601 258.273 476.568 257.967C476.544 257.436 476.427 256.913 476.222 256.422C476.032 255.927 475.92 255.406 475.89 254.876C475.862 254.479 475.921 254.079 476.063 253.707C476.659 253.67 477.256 253.67 477.852 253.707C478.438 253.757 479.027 253.757 479.613 253.707C479.78 253.913 479.986 254.085 480.219 254.212L480.94 254.559C481.197 254.66 481.447 254.775 481.691 254.905C482.038 255.035 482.322 255.294 482.484 255.627Z" fill="#2B2B2B"/>
<path d="M522.007 253.736C521.916 254.102 521.76 254.45 521.545 254.761L520.896 255.671C520.697 255.961 520.527 256.271 520.391 256.595C520.263 256.942 520.238 257.318 520.319 257.678H519.915C519.549 257.668 519.193 257.797 518.919 258.039C518.659 258.286 518.356 258.482 518.024 258.617C517.962 258.456 517.885 258.301 517.794 258.155C517.751 258.083 517.695 258.021 517.628 257.971C517.561 257.921 517.485 257.886 517.404 257.866C516.764 258.052 516.114 258.196 515.456 258.299C514.792 258.415 514.143 258.545 513.493 258.689C513.189 258.766 512.89 258.862 512.599 258.978C512.31 259.094 511.993 259.195 511.675 259.296C511.507 259.368 511.325 259.403 511.141 259.397C510.95 259.376 510.756 259.376 510.564 259.397C509.915 259.397 509.208 259.556 508.443 259.671C507.722 259.775 507.032 260.036 506.423 260.437C506.135 260.421 505.846 260.421 505.557 260.437C505.255 260.415 504.951 260.415 504.648 260.437C503.924 260.488 503.206 260.595 502.498 260.755C501.776 260.904 501.089 261.193 500.478 261.607C500.335 261.551 500.184 261.517 500.031 261.505H499.511H499.396C499.359 261.52 499.317 261.52 499.28 261.505C499.265 261.755 499.315 262.003 499.425 262.228C499.538 262.462 499.733 262.647 499.973 262.748C499.879 263.071 499.845 263.409 499.872 263.744C499.896 264.23 499.959 264.713 500.059 265.188C500.16 265.664 500.222 266.147 500.247 266.633C500.288 267.051 500.244 267.474 500.117 267.875C500.453 268.708 500.648 269.591 500.694 270.489C500.716 270.811 500.716 271.134 500.694 271.456C500.694 271.774 500.694 272.106 500.694 272.467C500.696 272.604 500.732 272.739 500.797 272.86C500.862 272.981 500.956 273.084 501.07 273.16C501.183 273.241 501.275 273.347 501.341 273.47C501.406 273.593 501.441 273.729 501.445 273.868C501.471 273.977 501.471 274.091 501.445 274.2C501.816 274.091 502.178 273.951 502.527 273.781C502.869 273.608 503.242 273.505 503.624 273.478C503.844 273.464 504.064 273.494 504.273 273.565C504.476 273.638 504.67 273.735 504.85 273.854C504.842 274.008 504.842 274.162 504.85 274.316C504.85 274.489 504.85 274.648 504.85 274.807C504.85 274.966 504.85 275.399 504.85 275.659C504.85 275.919 504.922 276.193 504.966 276.497C504.772 276.876 504.54 277.234 504.273 277.565C503.989 277.907 503.809 278.323 503.753 278.764C503.369 278.77 502.993 278.885 502.671 279.096C502.373 279.288 502.089 279.5 501.82 279.732C501.56 279.948 501.3 280.165 501.041 280.353C500.788 280.548 500.48 280.659 500.16 280.67C499.861 280.721 499.553 280.675 499.28 280.54C499.128 280.447 498.995 280.324 498.891 280.179L498.631 279.818C498.554 279.722 498.41 279.693 498.198 279.732C498.123 279.381 497.991 279.044 497.808 278.735L497.231 277.84L496.64 276.959C496.444 276.665 496.294 276.344 496.192 276.006C495.973 275.294 495.857 274.555 495.846 273.81C495.825 273.048 495.653 272.297 495.341 271.601C495.341 271.225 495.341 270.821 495.341 270.431C495.341 270.041 495.341 269.637 495.341 269.247C495.341 268.481 495.226 267.716 495.139 266.965C495.052 266.214 494.966 265.52 494.879 264.654C494.677 264.418 494.538 264.135 494.475 263.831C494.475 263.513 494.374 263.21 494.316 262.906L494.042 262.675C493.989 262.638 493.944 262.591 493.91 262.537C493.875 262.482 493.851 262.421 493.84 262.358C493.672 262.341 493.503 262.341 493.335 262.358C492.991 262.366 492.658 262.482 492.383 262.69C492.187 262.857 491.946 262.962 491.69 262.993C491.485 263.023 491.275 263.023 491.07 262.993C490.874 262.965 490.674 262.965 490.478 262.993C490.319 262.993 490.233 262.993 490.218 263.109C490.208 263.154 490.187 263.196 490.156 263.231C490.126 263.266 490.088 263.293 490.045 263.311C489.871 263.411 489.68 263.479 489.483 263.513C489.179 263.585 488.848 263.657 488.487 263.715L487.419 263.888L486.741 263.975C486.387 264.019 486.028 263.948 485.716 263.773C485.485 263.6 485.182 263.426 484.851 263.224C484.862 263.114 484.862 263.002 484.851 262.892C484.844 262.642 484.741 262.403 484.562 262.228C484.415 262.115 484.316 261.949 484.288 261.765C484.269 261.629 484.287 261.49 484.34 261.363C484.393 261.236 484.48 261.125 484.591 261.043C484.704 260.946 484.792 260.823 484.85 260.685C484.907 260.547 484.932 260.398 484.923 260.249C485.532 259.938 486.17 259.687 486.827 259.498C487.477 259.325 488.141 259.18 488.819 259.05C489.497 258.92 490.161 258.79 490.839 258.631C491.509 258.478 492.162 258.255 492.787 257.967H493.35C493.537 257.981 493.725 257.981 493.912 257.967C494.734 257.922 495.547 257.781 496.337 257.548C497.14 257.313 497.968 257.173 498.804 257.13H499.468L500.132 257.216L503.364 256.465C504.432 256.205 505.543 255.974 506.683 255.772L508.299 255.512C508.833 255.512 509.367 255.353 509.901 255.238C510.056 255.214 510.204 255.155 510.333 255.064C510.385 255.003 510.422 254.931 510.442 254.854C510.462 254.776 510.464 254.695 510.449 254.617C510.716 254.714 511.002 254.754 511.286 254.732C511.745 254.702 512.194 254.59 512.613 254.4C513.038 254.212 513.492 254.099 513.955 254.068H514.532C514.571 254.07 514.609 254.064 514.645 254.05C514.681 254.036 514.714 254.015 514.741 253.988C514.768 253.961 514.79 253.928 514.803 253.892C514.817 253.856 514.823 253.817 514.821 253.779C514.821 253.591 514.951 253.476 515.182 253.403C515.448 253.314 515.724 253.256 516.004 253.23L517.13 253.057L518.226 252.826C518.496 252.763 518.747 252.639 518.962 252.465L519.222 251.988C519.446 251.976 519.669 252.024 519.869 252.125C520.069 252.226 520.239 252.378 520.362 252.566C520.61 252.949 520.768 253.383 520.824 253.837C520.894 253.888 520.973 253.924 521.057 253.944C521.142 253.964 521.229 253.967 521.314 253.952H521.863L522.007 253.736Z" fill="#2B2B2B"/>
<path d="M526.437 274.402C526.318 274.63 526.167 274.839 525.99 275.024C525.802 275.226 525.643 275.413 525.485 275.616C525.292 275.714 525.08 275.769 524.864 275.774H524.2H523.623C523.463 275.795 523.315 275.872 523.205 275.991C523.005 275.963 522.821 275.866 522.685 275.717C522.608 275.639 522.516 275.578 522.414 275.538C522.312 275.498 522.203 275.48 522.094 275.486C521.985 275.457 521.87 275.457 521.762 275.486C521.326 275.032 520.921 274.549 520.55 274.041L519.482 272.597C519.393 271.569 519.249 270.547 519.049 269.535C519.005 269.287 518.947 269.041 518.876 268.799C518.805 268.572 518.752 268.34 518.717 268.106C518.695 267.837 518.695 267.566 518.717 267.297C518.717 267.037 518.717 266.791 518.717 266.575C518.789 265.766 518.861 264.986 518.948 264.206C519.034 263.426 519.107 262.647 519.164 261.838C519.222 261.088 519.222 260.335 519.164 259.585C519.125 258.834 518.954 258.096 518.659 257.404V257.202C518.694 257.011 518.742 256.822 518.804 256.638C518.866 256.471 518.905 256.296 518.919 256.119C518.95 255.998 518.942 255.871 518.899 255.755C518.855 255.639 518.776 255.539 518.674 255.469C518.702 255.368 518.752 255.275 518.819 255.196C518.886 255.116 518.969 255.052 519.063 255.006C519.159 254.969 519.24 254.9 519.292 254.811C519.345 254.722 519.366 254.618 519.352 254.515C519.381 254.412 519.381 254.302 519.352 254.198L520.016 253.923C520.233 253.845 520.465 253.821 520.694 253.851C521.034 253.882 521.364 253.985 521.661 254.154C521.952 254.31 522.227 254.494 522.483 254.703C523.007 256.017 523.276 257.419 523.277 258.834C523.277 260.278 523.277 261.722 523.147 263.282C523.017 264.842 523.003 266.17 523.046 267.615C523.06 268.964 523.365 270.294 523.941 271.514H524.027C524.09 271.522 524.154 271.511 524.21 271.483C524.267 271.455 524.314 271.41 524.345 271.355C524.374 271.297 524.42 271.25 524.476 271.219C524.533 271.188 524.598 271.175 524.662 271.182C524.729 271.22 524.802 271.245 524.879 271.254C525.021 271.79 525.235 272.305 525.513 272.785C525.802 273.353 526.11 273.892 526.437 274.402Z" fill="#2B2B2B"/>
<path d="M561.082 274.821C561.04 275.183 560.883 275.522 560.635 275.789C560.375 276.043 560.072 276.248 559.74 276.395C559.401 276.554 559.042 276.666 558.673 276.728C558.339 276.795 558.002 276.838 557.663 276.858H556.883C556.739 276.858 556.681 276.858 556.696 277.074C556.697 277.137 556.679 277.199 556.646 277.253C556.613 277.307 556.565 277.35 556.508 277.378C556.374 277.325 556.233 277.291 556.09 277.276C555.951 277.262 555.81 277.262 555.671 277.276C555.489 277.261 555.305 277.261 555.123 277.276C554.95 277.29 554.776 277.29 554.603 277.276C554.448 277.32 554.283 277.32 554.127 277.276C554.034 277.236 553.947 277.182 553.868 277.118L553.651 276.901C553.564 276.811 553.455 276.746 553.334 276.713C553.258 276.681 553.177 276.665 553.096 276.665C553.014 276.665 552.933 276.681 552.857 276.713C552.742 276.713 552.54 276.713 552.28 276.497C551.922 276.241 551.618 275.917 551.386 275.543C551.126 275.168 550.866 274.763 550.621 274.33C550.376 273.897 550.116 273.493 549.842 273.059C549.576 272.656 549.261 272.287 548.904 271.962H548.572C548.358 271.958 548.148 272.022 547.972 272.143C547.796 272.265 547.663 272.439 547.591 272.641C547.437 272.56 547.292 272.463 547.158 272.352C547.013 272.238 546.853 272.146 546.682 272.077C546.061 272.308 545.426 272.51 544.748 272.698C544.077 272.873 543.391 272.985 542.699 273.031H542.122C541.945 273.057 541.765 273.057 541.588 273.031C541.334 273.151 541.092 273.296 540.866 273.464C540.688 273.613 540.47 273.706 540.239 273.732C540.008 273.757 539.774 273.714 539.568 273.608C539.395 273.608 539.322 273.695 539.351 273.839C539.38 273.984 539.279 274.041 539.092 274.056H538.731C538.341 274.056 537.966 274.056 537.605 274.157C537.245 274.258 536.855 274.244 536.465 274.273C535.925 274.302 535.382 274.268 534.849 274.171C534.723 274.262 534.572 274.312 534.416 274.316C534.306 274.379 534.223 274.483 534.186 274.605L534.041 274.937C533.985 275.036 533.912 275.124 533.825 275.197C533.772 275.243 533.709 275.274 533.641 275.29C533.573 275.305 533.502 275.303 533.435 275.283C533.416 275.588 533.288 275.875 533.074 276.092C532.967 276.213 532.887 276.356 532.84 276.51C532.793 276.665 532.779 276.827 532.8 276.988C532.522 277.159 532.281 277.385 532.093 277.652C531.92 277.897 531.747 278.172 531.574 278.461C531.401 278.75 531.213 279.024 531.025 279.284C530.834 279.542 530.588 279.755 530.304 279.905C530.246 280.029 530.216 280.165 530.216 280.302C530.216 280.439 530.246 280.575 530.304 280.699C529.98 280.984 529.621 281.227 529.236 281.421C528.858 281.628 528.439 281.751 528.01 281.782C527.633 281.815 527.256 281.716 526.943 281.503C526.63 281.29 526.401 280.976 526.292 280.613C526.292 280.338 526.292 280.049 526.292 279.732C526.292 279.414 526.292 279.111 526.422 278.807C526.488 278.521 526.6 278.248 526.754 277.999C526.915 277.752 527.146 277.561 527.418 277.45C527.42 277.347 527.395 277.246 527.344 277.157C527.293 277.068 527.219 276.994 527.129 276.944C527.044 276.897 526.976 276.824 526.934 276.736C526.893 276.648 526.88 276.549 526.899 276.453C527.603 276.061 528.229 275.542 528.746 274.922C529.272 274.318 529.754 273.676 530.188 273.002C530.592 272.337 531.011 271.644 531.444 270.965C531.852 270.291 532.336 269.666 532.887 269.102V268.236C533.631 267.362 534.129 266.305 534.33 265.174C534.454 265.154 534.571 265.102 534.67 265.023C534.768 264.945 534.845 264.843 534.893 264.726C534.98 264.471 535.015 264.201 534.994 263.932C535.052 263.933 535.108 263.913 535.153 263.876C535.198 263.839 535.229 263.787 535.239 263.73C535.239 263.595 535.354 263.552 535.585 263.6C535.787 262.966 536.023 262.344 536.292 261.737C536.566 261.173 536.826 260.596 537.1 260.018C537.361 259.433 537.592 258.835 537.793 258.227C537.99 257.558 538.121 256.871 538.183 256.176C538.558 256.176 538.76 255.931 538.774 255.584C538.789 255.238 538.774 254.92 538.861 254.645C539.253 254.237 539.544 253.742 539.712 253.201C539.885 252.667 540.03 252.118 540.159 251.54C540.289 250.963 540.434 250.399 540.607 249.822C540.771 249.257 541.04 248.728 541.4 248.262V248.132C541.403 248.078 541.387 248.024 541.356 247.98C541.324 247.935 541.279 247.902 541.227 247.887C541.174 247.867 541.127 247.831 541.094 247.785C541.061 247.739 541.042 247.684 541.04 247.626C541.049 247.598 541.049 247.568 541.04 247.54C541.349 247.39 541.595 247.133 541.732 246.818C541.87 246.502 542.115 246.246 542.425 246.096C542.887 246.457 543.424 246.709 543.998 246.832C544.576 246.915 545.159 246.958 545.744 246.962C546.118 247.312 546.358 247.782 546.422 248.291C546.498 248.826 546.623 249.353 546.797 249.865C547.071 250.732 547.36 251.569 547.677 252.392C547.986 253.216 548.237 254.061 548.428 254.92C548.545 255.424 548.729 255.909 548.976 256.364C549.225 256.816 549.405 257.303 549.51 257.808C549.599 258.235 549.628 258.673 549.596 259.108C549.558 259.537 549.643 259.968 549.842 260.35L550.174 261C550.328 261.299 550.463 261.608 550.578 261.924C550.693 262.242 550.809 262.56 550.91 262.892C551.184 263.701 551.429 264.567 551.674 265.506C551.882 266.388 552.218 267.234 552.67 268.019C552.741 268.149 552.838 268.264 552.954 268.356C553.071 268.448 553.205 268.515 553.348 268.553C553.665 268.659 553.996 268.717 554.329 268.727C554.68 268.756 555.032 268.756 555.383 268.727L556.263 268.654H556.667C556.834 268.625 557.005 268.625 557.172 268.654C557.278 268.826 557.347 269.018 557.374 269.218C557.39 269.363 557.372 269.511 557.322 269.649C557.272 269.786 557.191 269.911 557.085 270.012C556.992 270.098 556.918 270.203 556.868 270.32C556.818 270.437 556.794 270.564 556.797 270.691C556.817 270.857 556.887 271.013 556.999 271.139C556.831 271.122 556.662 271.122 556.494 271.139C555.866 271.179 555.251 271.331 554.676 271.586C554.908 272.022 555.233 272.401 555.628 272.698C556.02 272.997 556.429 273.272 556.855 273.522C557.076 273.292 557.374 273.153 557.691 273.132C558.014 273.107 558.337 273.167 558.629 273.305C558.924 273.435 559.246 273.49 559.567 273.464C559.756 273.469 559.941 273.419 560.101 273.319C560.326 273.532 560.52 273.775 560.678 274.041C560.777 274.319 560.913 274.581 561.082 274.821ZM547.807 269.044C547.764 268.693 547.651 268.354 547.475 268.048C547.329 267.813 547.213 267.561 547.129 267.297C546.981 266.906 546.879 266.499 546.826 266.084C546.758 265.66 546.667 265.241 546.552 264.827C546.306 263.903 546.032 262.979 545.744 262.069C545.455 261.159 545.103 260.271 544.69 259.411C544.781 259.275 544.826 259.113 544.82 258.949V258.819C544.55 258.545 544.343 258.215 544.214 257.852C544.084 257.447 543.954 257.057 543.839 256.667C543.725 256.293 543.575 255.93 543.392 255.584C543.228 255.244 542.96 254.966 542.627 254.79C542.552 254.973 542.522 255.171 542.54 255.368C542.55 255.549 542.584 255.729 542.641 255.902C542.688 256.077 542.717 256.256 542.728 256.436C542.469 256.582 542.274 256.819 542.179 257.101C542.069 257.393 541.873 257.645 541.617 257.823C541.465 258.699 541.203 259.553 540.838 260.365C540.462 261.173 540.087 261.982 539.683 262.776C539.279 263.571 538.89 264.38 538.529 265.188C538.167 265.989 537.891 266.827 537.706 267.687C537.38 267.935 537.146 268.286 537.043 268.683C536.941 269.06 536.902 269.45 536.927 269.839C537.191 269.969 537.484 270.029 537.778 270.012H538.716C539.004 269.976 539.295 269.976 539.582 270.012C539.867 270.053 540.134 270.179 540.347 270.373C540.722 270.236 541.108 270.135 541.501 270.07C541.875 270.029 542.23 269.884 542.526 269.651C543.107 269.817 543.712 269.88 544.315 269.839C544.636 269.814 544.954 269.766 545.267 269.694C545.585 269.694 545.888 269.536 546.191 269.434C546.406 269.455 546.611 269.534 546.783 269.665C546.873 269.725 546.975 269.765 547.082 269.783C547.189 269.8 547.298 269.795 547.403 269.767C547.515 269.672 547.595 269.546 547.634 269.406C547.655 269.275 547.716 269.154 547.807 269.059V269.044Z" fill="#2B2B2B"/>
<path d="M263.558 318.986C262.467 319.029 261.377 318.903 260.325 318.61C259.393 318.313 258.416 318.186 257.439 318.234C256.477 318.234 255.568 318.263 254.712 318.321L255.434 318.148C256.396 317.917 256.655 317.758 256.213 317.671C255.78 317.585 255.65 317.469 255.852 317.325C260.662 316.66 264.991 315.924 268.839 315.115C270.587 315.078 272.332 314.933 274.062 314.682C275.736 314.451 277.41 314.277 279.084 314.191C283.98 313.382 289.069 312.631 294.35 311.938C299.632 311.244 304.961 310.57 310.338 309.916L326.428 307.937C331.795 307.273 336.99 306.493 342.055 305.829L349.688 305.208C352.113 305.016 354.523 304.669 356.903 304.168C360.857 303.898 364.786 303.566 368.692 303.171L380.481 301.958C384.449 301.539 388.374 301.135 392.284 300.759C396.195 300.384 400.134 300.081 404.117 299.835L404.824 299.662C405.185 299.575 405.603 299.503 406.094 299.416L407.537 299.214C413.905 298.704 420.182 298.169 426.367 297.611L444.938 295.907C446.511 295.907 448.069 295.82 449.599 295.705C451.129 295.589 452.615 295.531 454.029 295.459C456.02 295.199 458.055 294.997 460.19 294.867C462.326 294.737 464.375 294.607 466.424 294.506C468.473 294.405 470.565 294.26 472.658 294.087C474.75 293.914 476.784 293.668 478.747 293.351C482.325 293.351 486.871 293.206 492.397 292.758C497.924 292.311 502.945 291.848 507.462 291.314C511.666 291.256 516.197 291.083 521.055 290.794C525.932 290.505 530.621 290.274 535.152 290.101C536.121 290.104 537.087 290.012 538.038 289.827C538.858 289.626 539.693 289.496 540.535 289.437C544.825 289.321 549 289.239 553.06 289.191C557.119 289.143 561.01 289.143 564.733 289.191H567.114C568.052 289.191 568.86 289.191 569.524 289.292C569.884 289.48 569.899 289.668 569.524 289.855C569.004 290.1 568.456 290.279 567.893 290.39L565.296 290.982C564.344 291.184 563.449 291.415 562.626 291.632C561.888 291.778 561.141 291.88 560.39 291.935L558.009 292.108L555.628 292.311C554.885 292.385 554.148 292.506 553.42 292.672L552.814 292.845L552.194 293.018C551.01 293.018 549.741 293.018 548.384 293.119C547.028 293.22 545.83 293.119 544.763 293.119C544.229 293.119 543.55 293.119 542.728 292.975C539.274 293.235 535.936 293.423 532.714 293.538L523.003 293.914C519.785 294.058 516.495 294.231 513.176 294.434C509.857 294.636 506.365 294.939 502.729 295.344C497.419 295.526 491.979 295.806 486.409 296.181C480.839 296.557 475.231 296.951 469.584 297.366L452.673 298.622C447.074 299.041 441.49 299.373 435.963 299.647C433.596 299.936 431.172 300.268 428.748 300.644C427.708 300.614 426.668 300.643 425.631 300.73L422.601 301.019C421.591 301.121 420.567 301.193 419.556 301.265C418.546 301.337 417.493 301.366 416.425 301.265C412.702 301.775 408.975 302.199 405.242 302.536C401.519 302.882 397.797 303.186 394.103 303.446C390.524 303.98 386.888 304.442 383.194 304.89C379.5 305.338 375.762 305.684 371.967 306.06C368.172 306.435 364.377 306.825 360.554 307.244C356.73 307.663 353.007 308.096 349.428 308.602C346.961 308.674 344.522 308.833 342.141 309.107C339.76 309.381 337.365 309.67 334.927 309.988L327.712 310.912C325.273 311.201 322.777 311.432 320.223 311.591C318.506 311.894 316.63 312.169 314.581 312.429C312.532 312.689 310.497 312.949 308.506 313.194L302.532 313.96C300.541 314.234 298.694 314.523 297.005 314.855C294.043 315.038 291.195 315.288 288.463 315.606L280.137 316.646L271.855 317.758C269.228 318.379 266.458 318.711 263.558 318.986Z" fill="#5287DD"/>
<path d="M501.358 22.27L503.075 26.0828H505.095L532.512 84.7038H496.207L496.048 80.9633H494.605V84.7038L457.088 84.4872L458.877 80.8188L453.351 80.7467L482.34 22.5589L501.358 22.27ZM489.814 60.3253L492.7 60.181L493.234 80.1545H527.519L500.853 23.021L482.773 23.2377L454.534 79.9234L490.089 80.1545L489.814 60.3253Z" fill="#2B2B2B"/>
<path d="M121.714 101.688H134.124L133.676 101.24L127.702 95.1744L141.959 78.6523L145.552 82.5374L145.696 82.393L154.513 91.8959L141.742 101.688H151.237V105.428H154.96L154.888 164.208H125.524V160.468H121.786L121.714 101.688ZM122.537 159.789H150.415L150.487 102.511L122.464 102.424L122.537 159.789ZM128.741 95.2465L133.748 100.345L149.621 88.141L142.002 79.8512L128.741 95.2465Z" fill="#2B2B2B"/>
<path d="M149.462 179.604C154.736 179.532 159.929 180.9 164.484 183.561C167.425 185.394 170.072 187.663 172.333 190.291C175.006 192.555 177.3 195.231 179.13 198.22C181.721 202.793 183.083 207.96 183.083 213.218C183.083 218.475 181.721 223.643 179.13 228.216C176.504 232.743 172.744 236.506 168.221 239.134C163.656 241.732 158.494 243.098 153.243 243.098C147.991 243.098 142.83 241.732 138.265 239.134C135.271 237.374 132.593 235.124 130.343 232.477C124.961 227.929 121.342 221.637 120.113 214.695C118.885 207.754 120.125 200.601 123.619 194.479C126.326 190.015 130.068 186.27 134.528 183.561C139.054 180.908 144.217 179.54 149.462 179.604ZM124.283 194.855C121.683 199.271 120.34 204.316 120.401 209.441C120.349 214.589 121.69 219.654 124.283 224.1C126.851 228.494 130.509 232.15 134.903 234.715C139.349 237.261 144.383 238.6 149.506 238.6C154.628 238.6 159.662 237.261 164.108 234.715C168.502 232.15 172.16 228.494 174.729 224.1C177.321 219.654 178.662 214.589 178.61 209.441C178.671 204.316 177.329 199.271 174.729 194.855C172.18 190.445 168.517 186.784 164.108 184.24C159.662 181.694 154.628 180.354 149.506 180.354C144.383 180.354 139.349 181.694 134.903 184.24C130.483 186.78 126.81 190.442 124.254 194.855H124.283Z" fill="#2B2B2B"/>
</svg>
